STARTFONT 2.1
COMMENT
COMMENT Converted from OpenType font "Hack-Bold.ttf" by "otf2bdf 3.0".
COMMENT
FONT -FreeType-Hack-Bold-R-Normal--19-140-100-100-P-96-ISO10646-1
SIZE 14 100 100
FONTBOUNDINGBOX 28 27 -14 -8
STARTPROPERTIES 19
FOUNDRY "FreeType"
FAMILY_NAME "Hack"
WEIGHT_NAME "Bold"
SLANT "R"
SETWIDTH_NAME "Normal"
ADD_STYLE_NAME ""
PIXEL_SIZE 19
POINT_SIZE 140
RESOLUTION_X 100
RESOLUTION_Y 100
SPACING "P"
AVERAGE_WIDTH 96
CHARSET_REGISTRY "ISO10646"
CHARSET_ENCODING "1"
FONT_ASCENT 17
FONT_DESCENT 4
COPYRIGHT "Copyright (c) 2018 Source Foundry Authors / Copyright (c) 2003 by Bitstream, Inc. All Rights Reserved."
_OTF_FONTFILE "Hack-Bold.ttf"
_OTF_PSNAME "Hack-Bold"
ENDPROPERTIES
CHARS 1624
STARTCHAR 0000
ENCODING 0
SWIDTH 0 0
DWIDTH 0 0
BBX 0 0 0 0
BITMAP
ENDCHAR
STARTCHAR 000D
ENCODING 13
SWIDTH 617 0
DWIDTH 12 0
BBX 0 0 0 0
BITMAP
ENDCHAR
STARTCHAR 0020
ENCODING 32
SWIDTH 617 0
DWIDTH 12 0
BBX 0 0 0 0
BITMAP
ENDCHAR
STARTCHAR 0021
ENCODING 33
SWIDTH 617 0
DWIDTH 12 0
BBX 3 14 4 0
BITMAP
E0
E0
E0
E0
E0
60
60
60
60
60
00
60
E0
60
ENDCHAR
STARTCHAR 0022
ENCODING 34
SWIDTH 617 0
DWIDTH 12 0
BBX 7 5 2 9
BITMAP
E6
E6
E6
E6
E6
ENDCHAR
STARTCHAR 0023
ENCODING 35
SWIDTH 617 0
DWIDTH 12 0
BBX 12 14 0 0
BITMAP
0EE0
0CC0
0CC0
7FF0
7FF0
1980
1980
1980
FFE0
FFE0
3300
3300
7700
6600
ENDCHAR
STARTCHAR 0024
ENCODING 36
SWIDTH 617 0
DWIDTH 12 0
BBX 8 17 2 -2
BITMAP
18
18
7E
FE
D9
D8
F8
FE
3F
1F
1B
9B
FF
FE
18
18
18
ENDCHAR
STARTCHAR 0025
ENCODING 37
SWIDTH 617 0
DWIDTH 12 0
BBX 12 14 0 0
BITMAP
3800
7C00
EC00
C400
CC00
7C60
79C0
0F00
79E0
C3E0
0630
0370
03E0
01C0
ENDCHAR
STARTCHAR 0026
ENCODING 38
SWIDTH 617 0
DWIDTH 12 0
BBX 12 14 0 0
BITMAP
0F80
3F80
3880
3800
3800
1C00
3E00
7E70
6760
E3E0
E1E0
71C0
7FE0
1FF0
ENDCHAR
STARTCHAR 0027
ENCODING 39
SWIDTH 617 0
DWIDTH 12 0
BBX 2 5 5 9
BITMAP
C0
C0
C0
C0
C0
ENDCHAR
STARTCHAR 0028
ENCODING 40
SWIDTH 617 0
DWIDTH 12 0
BBX 5 17 3 -2
BITMAP
38
30
70
60
E0
E0
C0
C0
C0
C0
C0
E0
E0
60
70
30
38
ENDCHAR
STARTCHAR 0029
ENCODING 41
SWIDTH 617 0
DWIDTH 12 0
BBX 5 17 4 -2
BITMAP
C0
60
70
70
30
38
38
38
38
38
38
38
30
70
70
60
C0
ENDCHAR
STARTCHAR 002A
ENCODING 42
SWIDTH 617 0
DWIDTH 12 0
BBX 10 10 1 4
BITMAP
0C00
0C00
0C00
CDC0
FF80
1E00
1E00
3600
3300
6180
ENDCHAR
STARTCHAR 002B
ENCODING 43
SWIDTH 617 0
DWIDTH 12 0
BBX 10 11 1 1
BITMAP
0C00
0C00
0C00
0C00
0C00
FFC0
FFC0
0C00
0C00
0C00
0C00
ENDCHAR
STARTCHAR 002C
ENCODING 44
SWIDTH 617 0
DWIDTH 12 0
BBX 4 7 4 -4
BITMAP
60
F0
70
30
60
E0
C0
ENDCHAR
STARTCHAR 002D
ENCODING 45
SWIDTH 617 0
DWIDTH 12 0
BBX 8 2 2 4
BITMAP
FF
FF
ENDCHAR
STARTCHAR 002E
ENCODING 46
SWIDTH 617 0
DWIDTH 12 0
BBX 4 3 4 0
BITMAP
60
F0
60
ENDCHAR
STARTCHAR 002F
ENCODING 47
SWIDTH 617 0
DWIDTH 12 0
BBX 10 16 1 -2
BITMAP
01C0
0180
0300
0300
0700
0600
0600
0C00
0C00
1800
1800
3000
3000
6000
6000
C000
ENDCHAR
STARTCHAR 0030
ENCODING 48
SWIDTH 617 0
DWIDTH 12 0
BBX 10 14 1 0
BITMAP
1E00
3F00
7780
6380
E980
E980
E9C0
E9C0
E980
E980
6380
7780
3F00
1E00
ENDCHAR
STARTCHAR 0031
ENCODING 49
SWIDTH 617 0
DWIDTH 12 0
BBX 10 14 1 0
BITMAP
1E00
1E00
3E00
EE00
4E00
0E00
0E00
0E00
0E00
0E00
0E00
0E00
7FC0
7FC0
ENDCHAR
STARTCHAR 0032
ENCODING 50
SWIDTH 617 0
DWIDTH 12 0
BBX 9 14 1 0
BITMAP
7E00
FF00
E780
0380
0380
0380
0700
0E00
1C00
3800
7000
E000
FF80
FF80
ENDCHAR
STARTCHAR 0033
ENCODING 51
SWIDTH 617 0
DWIDTH 12 0
BBX 9 14 1 0
BITMAP
7E00
7F80
4380
0380
0380
1F00
1F00
0780
0180
0180
0180
C380
FF80
7E00
ENDCHAR
STARTCHAR 0034
ENCODING 52
SWIDTH 617 0
DWIDTH 12 0
BBX 10 14 1 0
BITMAP
0700
0F00
0F00
1B00
3B00
3300
6300
E300
C300
FFC0
FFC0
0300
0300
0300
ENDCHAR
STARTCHAR 0035
ENCODING 53
SWIDTH 617 0
DWIDTH 12 0
BBX 9 14 1 0
BITMAP
7F80
7F80
6000
6000
6000
7E00
7F80
4380
0180
0180
0380
C780
FF00
7E00
ENDCHAR
STARTCHAR 0036
ENCODING 54
SWIDTH 617 0
DWIDTH 12 0
BBX 10 14 1 0
BITMAP
1F80
3F80
7880
6000
EF00
FF80
F380
E1C0
E1C0
E1C0
6180
7380
3F80
1E00
ENDCHAR
STARTCHAR 0037
ENCODING 55
SWIDTH 617 0
DWIDTH 12 0
BBX 9 14 1 0
BITMAP
FF80
FF80
0380
0380
0700
0700
0600
0E00
0E00
1C00
1C00
1800
3800
3800
ENDCHAR
STARTCHAR 0038
ENCODING 56
SWIDTH 617 0
DWIDTH 12 0
BBX 9 14 1 0
BITMAP
3E00
7F80
7380
6180
6380
3F00
3F00
7380
E180
E180
E180
7380
7F80
3E00
ENDCHAR
STARTCHAR 0039
ENCODING 57
SWIDTH 617 0
DWIDTH 12 0
BBX 9 14 1 0
BITMAP
3E00
7F00
F380
E380
E380
E380
F380
7F80
3D80
0180
0380
4780
7F00
7C00
ENDCHAR
STARTCHAR 003A
ENCODING 58
SWIDTH 617 0
DWIDTH 12 0
BBX 4 11 4 0
BITMAP
60
F0
F0
60
00
00
00
60
F0
F0
60
ENDCHAR
STARTCHAR 003B
ENCODING 59
SWIDTH 617 0
DWIDTH 12 0
BBX 4 15 4 -4
BITMAP
60
F0
F0
60
00
00
00
00
60
F0
70
30
30
60
C0
ENDCHAR
STARTCHAR 003C
ENCODING 60
SWIDTH 617 0
DWIDTH 12 0
BBX 10 10 1 1
BITMAP
00C0
03C0
1F80
7C00
F000
F000
7E00
0FC0
03C0
0040
ENDCHAR
STARTCHAR 003D
ENCODING 61
SWIDTH 617 0
DWIDTH 12 0
BBX 10 7 1 3
BITMAP
FFC0
FFC0
0000
0000
0000
FFC0
FFC0
ENDCHAR
STARTCHAR 003E
ENCODING 62
SWIDTH 617 0
DWIDTH 12 0
BBX 10 10 1 1
BITMAP
C000
F000
7E00
1F80
03C0
03C0
1F80
FC00
F000
8000
ENDCHAR
STARTCHAR 003F
ENCODING 63
SWIDTH 617 0
DWIDTH 12 0
BBX 8 15 2 0
BITMAP
3C
FE
C7
83
03
06
0C
18
18
18
00
00
38
38
38
ENDCHAR
STARTCHAR 0040
ENCODING 64
SWIDTH 617 0
DWIDTH 12 0
BBX 11 16 0 -3
BITMAP
0F80
1FC0
38E0
6060
67E0
CFE0
CCE0
CC60
CC60
CC60
CFE0
63E0
7000
3C40
1FE0
0FC0
ENDCHAR
STARTCHAR 0041
ENCODING 65
SWIDTH 617 0
DWIDTH 12 0
BBX 11 14 0 0
BITMAP
0F00
0F00
1F00
1F80
1B80
1980
3980
39C0
3FC0
3FC0
70C0
70E0
60E0
E0E0
ENDCHAR
STARTCHAR 0042
ENCODING 66
SWIDTH 617 0
DWIDTH 12 0
BBX 10 14 1 0
BITMAP
FF00
FF80
E380
E1C0
E380
FF80
FF00
E380
E1C0
E1C0
E1C0
E3C0
FF80
FF00
ENDCHAR
STARTCHAR 0043
ENCODING 67
SWIDTH 617 0
DWIDTH 12 0
BBX 9 14 1 0
BITMAP
0F80
3F80
7980
7080
7000
E000
E000
E000
E000
7000
7080
7880
3F80
0F80
ENDCHAR
STARTCHAR 0044
ENCODING 68
SWIDTH 617 0
DWIDTH 12 0
BBX 10 14 1 0
BITMAP
FE00
FF00
E780
E380
E1C0
E1C0
E1C0
E1C0
E1C0
E1C0
E380
E780
FF00
FE00
ENDCHAR
STARTCHAR 0045
ENCODING 69
SWIDTH 617 0
DWIDTH 12 0
BBX 8 14 2 0
BITMAP
FF
FF
C0
C0
C0
C0
FF
FF
C0
C0
C0
C0
FF
FF
ENDCHAR
STARTCHAR 0046
ENCODING 70
SWIDTH 617 0
DWIDTH 12 0
BBX 9 14 2 0
BITMAP
FF80
FF80
E000
E000
E000
E000
FF00
FF00
E000
E000
E000
E000
E000
E000
ENDCHAR
STARTCHAR 0047
ENCODING 71
SWIDTH 617 0
DWIDTH 12 0
BBX 10 14 1 0
BITMAP
1F80
3F80
7880
7040
E000
E000
E7C0
E7C0
E1C0
E1C0
71C0
79C0
3FC0
1F00
ENDCHAR
STARTCHAR 0048
ENCODING 72
SWIDTH 617 0
DWIDTH 12 0
BBX 9 14 1 0
BITMAP
E180
E180
E180
E180
E180
FF80
FF80
E180
E180
E180
E180
E180
E180
E180
ENDCHAR
STARTCHAR 0049
ENCODING 73
SWIDTH 617 0
DWIDTH 12 0
BBX 8 14 2 0
BITMAP
FF
FF
38
38
38
38
38
38
38
38
38
38
FF
FF
ENDCHAR
STARTCHAR 004A
ENCODING 74
SWIDTH 617 0
DWIDTH 12 0
BBX 9 14 1 0
BITMAP
3F80
3F80
0380
0380
0380
0380
0380
0380
0380
0380
8300
C700
FF00
7E00
ENDCHAR
STARTCHAR 004B
ENCODING 75
SWIDTH 617 0
DWIDTH 12 0
BBX 11 14 1 0
BITMAP
E1C0
E380
E700
E700
EE00
FC00
FC00
FE00
F700
E700
E380
E380
E1C0
E1E0
ENDCHAR
STARTCHAR 004C
ENCODING 76
SWIDTH 617 0
DWIDTH 12 0
BBX 9 14 2 0
BITMAP
E000
E000
E000
E000
E000
E000
E000
E000
E000
E000
E000
E000
FF80
FF80
ENDCHAR
STARTCHAR 004D
ENCODING 77
SWIDTH 617 0
DWIDTH 12 0
BBX 10 14 1 0
BITMAP
E3C0
F3C0
F3C0
F3C0
D7C0
DFC0
DFC0
DDC0
CDC0
C1C0
C1C0
C1C0
C1C0
C1C0
ENDCHAR
STARTCHAR 004E
ENCODING 78
SWIDTH 617 0
DWIDTH 12 0
BBX 10 14 1 0
BITMAP
E1C0
F1C0
F1C0
F1C0
F9C0
F9C0
EDC0
EDC0
EDC0
E7C0
E7C0
E3C0
E3C0
E3C0
ENDCHAR
STARTCHAR 004F
ENCODING 79
SWIDTH 617 0
DWIDTH 12 0
BBX 10 14 1 0
BITMAP
1E00
7F00
7380
E380
E1C0
E1C0
E1C0
E1C0
E1C0
E1C0
E380
7380
7F00
1E00
ENDCHAR
STARTCHAR 0050
ENCODING 80
SWIDTH 617 0
DWIDTH 12 0
BBX 9 14 2 0
BITMAP
FE00
FF00
C780
C380
C380
C380
FF00
FE00
C000
C000
C000
C000
C000
C000
ENDCHAR
STARTCHAR 0051
ENCODING 81
SWIDTH 617 0
DWIDTH 12 0
BBX 11 17 1 -3
BITMAP
1E00
7F00
7380
E380
E1C0
E1C0
E1C0
E1C0
E1C0
E1C0
E380
7380
7F00
1F00
0380
0380
01E0
ENDCHAR
STARTCHAR 0052
ENCODING 82
SWIDTH 617 0
DWIDTH 12 0
BBX 11 14 1 0
BITMAP
FE00
FF80
E380
E380
E180
E380
FF00
FE00
E700
E300
E380
E380
E1C0
E1E0
ENDCHAR
STARTCHAR 0053
ENCODING 83
SWIDTH 617 0
DWIDTH 12 0
BBX 10 14 1 0
BITMAP
3F00
7F80
F180
E080
E000
7800
7F00
1F80
0380
01C0
81C0
E380
FF80
7E00
ENDCHAR
STARTCHAR 0054
ENCODING 84
SWIDTH 617 0
DWIDTH 12 0
BBX 10 14 1 0
BITMAP
FFC0
FFC0
1C00
1C00
1C00
1C00
1C00
1C00
1C00
1C00
1C00
1C00
1C00
1C00
ENDCHAR
STARTCHAR 0055
ENCODING 85
SWIDTH 617 0
DWIDTH 12 0
BBX 10 14 1 0
BITMAP
E1C0
E1C0
E1C0
E1C0
E1C0
E1C0
E1C0
E1C0
E1C0
E1C0
E1C0
FF80
7F80
3E00
ENDCHAR
STARTCHAR 0056
ENCODING 86
SWIDTH 617 0
DWIDTH 12 0
BBX 10 14 1 0
BITMAP
C1C0
E1C0
E1C0
E180
6380
7380
7380
7300
3300
3700
3F00
3E00
1E00
1E00
ENDCHAR
STARTCHAR 0057
ENCODING 87
SWIDTH 617 0
DWIDTH 12 0
BBX 12 14 0 0
BITMAP
E070
E070
E060
E660
6E60
6F60
6F60
6F60
6B60
69E0
79C0
79C0
39C0
31C0
ENDCHAR
STARTCHAR 0058
ENCODING 88
SWIDTH 617 0
DWIDTH 12 0
BBX 11 14 0 0
BITMAP
F0E0
70C0
39C0
3B80
1F80
0F00
0F00
0F00
1F00
1F80
3B80
39C0
70E0
E0E0
ENDCHAR
STARTCHAR 0059
ENCODING 89
SWIDTH 617 0
DWIDTH 12 0
BBX 12 14 0 0
BITMAP
E0F0
70E0
71C0
39C0
3B80
1F80
1F00
0F00
0E00
0E00
0E00
0E00
0E00
0E00
ENDCHAR
STARTCHAR 005A
ENCODING 90
SWIDTH 617 0
DWIDTH 12 0
BBX 10 14 1 0
BITMAP
FFC0
FFC0
0380
0780
0700
0E00
1E00
1C00
3800
7800
7000
E000
FFC0
FFC0
ENDCHAR
STARTCHAR 005B
ENCODING 91
SWIDTH 617 0
DWIDTH 12 0
BBX 6 18 3 -3
BITMAP
FC
FC
C0
C0
C0
C0
C0
C0
C0
C0
C0
C0
C0
C0
C0
C0
FC
FC
ENDCHAR
STARTCHAR 005C
ENCODING 92
SWIDTH 617 0
DWIDTH 12 0
BBX 10 16 1 -2
BITMAP
C000
6000
6000
3000
3000
1800
1800
0C00
0C00
0E00
0600
0700
0300
0300
0180
01C0
ENDCHAR
STARTCHAR 005D
ENCODING 93
SWIDTH 617 0
DWIDTH 12 0
BBX 7 18 2 -3
BITMAP
FE
FE
06
06
06
06
06
06
06
06
06
06
06
06
06
06
FE
FE
ENDCHAR
STARTCHAR 005E
ENCODING 94
SWIDTH 617 0
DWIDTH 12 0
BBX 10 6 1 9
BITMAP
0C00
1E00
3F00
7700
6380
C1C0
ENDCHAR
STARTCHAR 005F
ENCODING 95
SWIDTH 617 0
DWIDTH 12 0
BBX 10 2 1 -4
BITMAP
FFC0
FFC0
ENDCHAR
STARTCHAR 0060
ENCODING 96
SWIDTH 617 0
DWIDTH 12 0
BBX 5 4 2 12
BITMAP
E0
60
30
18
ENDCHAR
STARTCHAR 0061
ENCODING 97
SWIDTH 617 0
DWIDTH 12 0
BBX 10 11 1 0
BITMAP
3F00
7F80
6380
0180
7FC0
FFC0
E1C0
E180
E380
FFC0
3DC0
ENDCHAR
STARTCHAR 0062
ENCODING 98
SWIDTH 617 0
DWIDTH 12 0
BBX 10 15 1 0
BITMAP
E000
E000
E000
E000
EF00
FF80
F380
F1C0
E1C0
E1C0
E1C0
F1C0
F380
FF80
EF00
ENDCHAR
STARTCHAR 0063
ENCODING 99
SWIDTH 617 0
DWIDTH 12 0
BBX 9 11 1 0
BITMAP
1F00
3F80
7980
7000
E000
E000
E000
7000
7980
3F80
1F00
ENDCHAR
STARTCHAR 0064
ENCODING 100
SWIDTH 617 0
DWIDTH 12 0
BBX 9 15 1 0
BITMAP
0380
0380
0380
0380
3B80
7F80
F780
E380
E380
E380
E380
E380
F780
7D80
3980
ENDCHAR
STARTCHAR 0065
ENCODING 101
SWIDTH 617 0
DWIDTH 12 0
BBX 10 11 1 0
BITMAP
3E00
7F80
F380
E1C0
FFC0
FFC0
E000
E000
F180
7F80
1F80
ENDCHAR
STARTCHAR 0066
ENCODING 102
SWIDTH 617 0
DWIDTH 12 0
BBX 9 15 1 0
BITMAP
0F80
1F80
1C00
1C00
FF80
FF80
1C00
1C00
1C00
1C00
1C00
1C00
1C00
1C00
1C00
ENDCHAR
STARTCHAR 0067
ENCODING 103
SWIDTH 617 0
DWIDTH 12 0
BBX 9 15 1 -4
BITMAP
3D80
7F80
F780
E380
E180
E180
E180
E380
F780
7F80
3D80
0380
4380
7F80
7E00
ENDCHAR
STARTCHAR 0068
ENCODING 104
SWIDTH 617 0
DWIDTH 12 0
BBX 8 15 2 0
BITMAP
C0
C0
C0
C0
DE
DF
E7
E7
C7
C7
C7
C7
C7
C7
C7
ENDCHAR
STARTCHAR 0069
ENCODING 105
SWIDTH 617 0
DWIDTH 12 0
BBX 9 15 2 0
BITMAP
3800
3800
3800
0000
F800
F800
3800
3800
3800
3800
3800
3800
3C00
1F80
0F80
ENDCHAR
STARTCHAR 006A
ENCODING 106
SWIDTH 617 0
DWIDTH 12 0
BBX 6 19 2 -4
BITMAP
0C
0C
0C
00
7C
7C
0C
0C
0C
0C
0C
0C
0C
0C
0C
1C
1C
FC
F8
ENDCHAR
STARTCHAR 006B
ENCODING 107
SWIDTH 617 0
DWIDTH 12 0
BBX 9 15 2 0
BITMAP
C000
C000
C000
C000
C780
CF00
CE00
DC00
F800
FC00
EE00
CE00
C700
C700
C380
ENDCHAR
STARTCHAR 006C
ENCODING 108
SWIDTH 617 0
DWIDTH 12 0
BBX 9 15 1 0
BITMAP
FC00
FC00
1C00
1C00
1C00
1C00
1C00
1C00
1C00
1C00
1C00
1C00
1C00
1F80
0F80
ENDCHAR
STARTCHAR 006D
ENCODING 109
SWIDTH 617 0
DWIDTH 12 0
BBX 10 11 1 0
BITMAP
FB80
FFC0
DDC0
CCC0
CCC0
CCC0
CCC0
CCC0
CCC0
CCC0
CCC0
ENDCHAR
STARTCHAR 006E
ENCODING 110
SWIDTH 617 0
DWIDTH 12 0
BBX 8 11 2 0
BITMAP
DE
DF
E7
E7
C7
C7
C7
C7
C7
C7
C7
ENDCHAR
STARTCHAR 006F
ENCODING 111
SWIDTH 617 0
DWIDTH 12 0
BBX 10 11 1 0
BITMAP
1E00
7F00
7380
E1C0
E1C0
E1C0
E1C0
E1C0
7380
7F00
1E00
ENDCHAR
STARTCHAR 0070
ENCODING 112
SWIDTH 617 0
DWIDTH 12 0
BBX 10 15 1 -4
BITMAP
EF00
FF80
F380
F1C0
E1C0
E1C0
E1C0
F1C0
F380
FF80
EF00
E000
E000
E000
E000
ENDCHAR
STARTCHAR 0071
ENCODING 113
SWIDTH 617 0
DWIDTH 12 0
BBX 9 15 1 -4
BITMAP
3980
7D80
F780
E380
E380
E380
E380
E380
F780
7F80
3B80
0380
0380
0380
0380
ENDCHAR
STARTCHAR 0072
ENCODING 114
SWIDTH 617 0
DWIDTH 12 0
BBX 8 11 2 0
BITMAP
EF
FF
F9
E0
E0
E0
E0
E0
E0
E0
E0
ENDCHAR
STARTCHAR 0073
ENCODING 115
SWIDTH 617 0
DWIDTH 12 0
BBX 8 11 2 0
BITMAP
7E
FE
E2
C0
F0
7E
0F
07
C7
FF
7E
ENDCHAR
STARTCHAR 0074
ENCODING 116
SWIDTH 617 0
DWIDTH 12 0
BBX 9 15 1 0
BITMAP
0C00
1C00
1C00
1C00
FF80
FF80
1C00
1C00
1C00
1C00
1C00
1C00
1C00
1F80
0F80
ENDCHAR
STARTCHAR 0075
ENCODING 117
SWIDTH 617 0
DWIDTH 12 0
BBX 8 11 2 0
BITMAP
C7
C7
C7
C7
C7
C7
C7
C7
EF
FF
77
ENDCHAR
STARTCHAR 0076
ENCODING 118
SWIDTH 617 0
DWIDTH 12 0
BBX 10 11 1 0
BITMAP
E1C0
E180
6380
6380
7380
7300
3700
3F00
3E00
1E00
1E00
ENDCHAR
STARTCHAR 0077
ENCODING 119
SWIDTH 617 0
DWIDTH 12 0
BBX 12 11 0 0
BITMAP
C070
E060
E060
6660
6E60
6F60
6FE0
6BC0
79C0
39C0
39C0
ENDCHAR
STARTCHAR 0078
ENCODING 120
SWIDTH 617 0
DWIDTH 12 0
BBX 10 11 1 0
BITMAP
E3C0
7380
3700
3F00
1E00
1C00
1E00
3F00
7300
7380
E1C0
ENDCHAR
STARTCHAR 0079
ENCODING 121
SWIDTH 617 0
DWIDTH 12 0
BBX 10 15 1 -4
BITMAP
E1C0
E1C0
6180
7380
7380
3300
3F00
1F00
1E00
1E00
0C00
1C00
1C00
F800
F000
ENDCHAR
STARTCHAR 007A
ENCODING 122
SWIDTH 617 0
DWIDTH 12 0
BBX 8 11 2 0
BITMAP
FF
FF
07
0E
1C
3C
78
70
E0
FF
FF
ENDCHAR
STARTCHAR 007B
ENCODING 123
SWIDTH 617 0
DWIDTH 12 0
BBX 9 19 1 -4
BITMAP
0F80
1F80
1C00
1C00
1C00
1C00
1C00
1C00
1C00
F800
F800
3C00
1C00
1C00
1C00
1C00
1C00
1F80
0F80
ENDCHAR
STARTCHAR 007C
ENCODING 124
SWIDTH 617 0
DWIDTH 12 0
BBX 2 20 5 -5
BITMAP
C0
C0
C0
C0
C0
C0
C0
C0
C0
C0
C0
C0
C0
C0
C0
C0
C0
C0
C0
C0
ENDCHAR
STARTCHAR 007D
ENCODING 125
SWIDTH 617 0
DWIDTH 12 0
BBX 9 19 2 -4
BITMAP
F000
F800
3800
1C00
1C00
1C00
1C00
1C00
1C00
0F80
0F80
1E00
1C00
1C00
1C00
1C00
3C00
F800
F000
ENDCHAR
STARTCHAR 007E
ENCODING 126
SWIDTH 617 0
DWIDTH 12 0
BBX 10 5 1 3
BITMAP
78C0
FCC0
CDC0
CF80
C780
ENDCHAR
STARTCHAR 00A0
ENCODING 160
SWIDTH 617 0
DWIDTH 12 0
BBX 0 0 0 0
BITMAP
ENDCHAR
STARTCHAR 00A1
ENCODING 161
SWIDTH 617 0
DWIDTH 12 0
BBX 3 15 4 -1
BITMAP
60
E0
60
00
00
60
60
60
60
60
E0
E0
E0
E0
E0
ENDCHAR
STARTCHAR 00A2
ENCODING 162
SWIDTH 617 0
DWIDTH 12 0
BBX 9 17 1 -3
BITMAP
0600
0600
0600
1F80
3F80
7780
6600
E600
E600
E600
6600
7680
3F80
1F80
0600
0600
0600
ENDCHAR
STARTCHAR 00A3
ENCODING 163
SWIDTH 617 0
DWIDTH 12 0
BBX 10 14 1 0
BITMAP
0F80
1F80
1C80
3800
3800
3800
FF00
FF00
3800
3800
3800
3800
FFC0
FFC0
ENDCHAR
STARTCHAR 00A4
ENCODING 164
SWIDTH 617 0
DWIDTH 12 0
BBX 9 9 2 2
BITMAP
C100
DB80
7F00
6600
6200
6200
7E00
FF80
C100
ENDCHAR
STARTCHAR 00A5
ENCODING 165
SWIDTH 617 0
DWIDTH 12 0
BBX 12 14 0 0
BITMAP
E0F0
70E0
71C0
39C0
1B80
7FE0
7FE0
0F00
7FE0
7FE0
0E00
0E00
0E00
0E00
ENDCHAR
STARTCHAR 00A6
ENCODING 166
SWIDTH 617 0
DWIDTH 12 0
BBX 2 17 5 -3
BITMAP
C0
C0
C0
C0
C0
C0
C0
00
00
00
C0
C0
C0
C0
C0
C0
C0
ENDCHAR
STARTCHAR 00A7
ENCODING 167
SWIDTH 617 0
DWIDTH 12 0
BBX 8 16 2 -2
BITMAP
3E
7E
E2
E0
70
7C
FE
C7
C3
F7
3E
1E
06
86
FE
FC
ENDCHAR
STARTCHAR 00A8
ENCODING 168
SWIDTH 617 0
DWIDTH 12 0
BBX 6 2 3 13
BITMAP
CC
CC
ENDCHAR
STARTCHAR 00A9
ENCODING 169
SWIDTH 617 0
DWIDTH 12 0
BBX 12 12 0 1
BITMAP
0F00
30C0
6060
4F20
9930
9030
9030
98B0
CF20
6060
30C0
1F80
ENDCHAR
STARTCHAR 00AA
ENCODING 170
SWIDTH 617 0
DWIDTH 12 0
BBX 7 10 2 5
BITMAP
7C
46
06
7E
E6
E6
7E
00
00
7E
ENDCHAR
STARTCHAR 00AB
ENCODING 171
SWIDTH 617 0
DWIDTH 12 0
BBX 8 9 1 1
BITMAP
11
33
77
CE
CC
E6
73
11
11
ENDCHAR
STARTCHAR 00AC
ENCODING 172
SWIDTH 617 0
DWIDTH 12 0
BBX 10 5 1 3
BITMAP
FFC0
FFC0
00C0
00C0
00C0
ENDCHAR
STARTCHAR 00AD
ENCODING 173
SWIDTH 617 0
DWIDTH 12 0
BBX 6 2 3 4
BITMAP
FC
FC
ENDCHAR
STARTCHAR 00AE
ENCODING 174
SWIDTH 617 0
DWIDTH 12 0
BBX 12 12 0 1
BITMAP
0F00
30C0
6060
5F20
9930
9930
9E30
9B30
D920
60E0
30C0
1F80
ENDCHAR
STARTCHAR 00AF
ENCODING 175
SWIDTH 617 0
DWIDTH 12 0
BBX 6 2 3 13
BITMAP
FC
FC
ENDCHAR
STARTCHAR 00B0
ENCODING 176
SWIDTH 617 0
DWIDTH 12 0
BBX 6 7 3 8
BITMAP
70
F8
CC
8C
CC
F8
70
ENDCHAR
STARTCHAR 00B1
ENCODING 177
SWIDTH 617 0
DWIDTH 12 0
BBX 10 12 1 0
BITMAP
0C00
0C00
0C00
FFC0
FFC0
0C00
0C00
0C00
0C00
0000
FFC0
FFC0
ENDCHAR
STARTCHAR 00B2
ENCODING 178
SWIDTH 617 0
DWIDTH 12 0
BBX 6 8 3 11
BITMAP
F8
9C
0C
18
30
60
C0
FC
ENDCHAR
STARTCHAR 00B3
ENCODING 179
SWIDTH 617 0
DWIDTH 12 0
BBX 6 8 3 11
BITMAP
F8
8C
0C
70
0C
0C
8C
F8
ENDCHAR
STARTCHAR 00B4
ENCODING 180
SWIDTH 617 0
DWIDTH 12 0
BBX 6 4 4 12
BITMAP
1C
38
30
E0
ENDCHAR
STARTCHAR 00B5
ENCODING 181
SWIDTH 617 0
DWIDTH 12 0
BBX 10 15 1 -4
BITMAP
E380
E380
E380
E380
E380
E380
E380
E380
F3C0
FFC0
FDC0
E000
E000
E000
E000
ENDCHAR
STARTCHAR 00B6
ENCODING 182
SWIDTH 617 0
DWIDTH 12 0
BBX 9 16 1 -2
BITMAP
3F80
7980
F980
F980
F980
F980
F980
3980
0980
0980
0980
0980
0980
0980
0980
0980
ENDCHAR
STARTCHAR 00B7
ENCODING 183
SWIDTH 617 0
DWIDTH 12 0
BBX 3 3 4 6
BITMAP
60
E0
60
ENDCHAR
STARTCHAR 00B8
ENCODING 184
SWIDTH 617 0
DWIDTH 12 0
BBX 5 4 3 -4
BITMAP
30
18
18
F8
ENDCHAR
STARTCHAR 00B9
ENCODING 185
SWIDTH 617 0
DWIDTH 12 0
BBX 6 8 3 11
BITMAP
F0
F0
30
30
30
30
30
FC
ENDCHAR
STARTCHAR 00BA
ENCODING 186
SWIDTH 617 0
DWIDTH 12 0
BBX 6 10 3 4
BITMAP
78
CC
CC
C4
CC
CC
78
00
00
FC
ENDCHAR
STARTCHAR 00BB
ENCODING 187
SWIDTH 617 0
DWIDTH 12 0
BBX 9 9 2 1
BITMAP
8400
C600
6700
3B80
1980
3300
E600
C400
8800
ENDCHAR
STARTCHAR 00BC
ENCODING 188
SWIDTH 617 0
DWIDTH 12 0
BBX 11 19 0 -3
BITMAP
3800
7800
1800
1800
1800
1800
1800
7E00
00E0
0F80
F800
01C0
03C0
02C0
04C0
0CC0
0FE0
00C0
00C0
ENDCHAR
STARTCHAR 00BD
ENCODING 189
SWIDTH 617 0
DWIDTH 12 0
BBX 11 18 0 -2
BITMAP
7800
1800
1800
1800
1800
1800
7E00
00E0
0F80
F800
47C0
04E0
0060
00C0
01C0
0300
0600
07E0
ENDCHAR
STARTCHAR 00BE
ENCODING 190
SWIDTH 617 0
DWIDTH 12 0
BBX 11 19 0 -3
BITMAP
7C00
4E00
0600
0600
3800
0600
0600
7C00
01E0
1F00
F000
01C0
03C0
02C0
04C0
0CC0
0FE0
00C0
00C0
ENDCHAR
STARTCHAR 00BF
ENCODING 191
SWIDTH 617 0
DWIDTH 12 0
BBX 8 15 2 0
BITMAP
18
1C
18
00
1C
1C
18
38
70
E0
E0
C1
E7
FF
7C
ENDCHAR
STARTCHAR 00C0
ENCODING 192
SWIDTH 617 0
DWIDTH 12 0
BBX 11 18 0 0
BITMAP
1C00
0C00
0600
0000
0F00
0F00
1F00
1F80
1B80
1980
3980
39C0
3FC0
3FC0
70C0
70E0
60E0
E0E0
ENDCHAR
STARTCHAR 00C1
ENCODING 193
SWIDTH 617 0
DWIDTH 12 0
BBX 11 18 0 0
BITMAP
0380
0700
0E00
0000
0F00
0F00
1F00
1F80
1B80
1980
3980
39C0
3FC0
3FC0
70C0
70E0
60E0
E0E0
ENDCHAR
STARTCHAR 00C2
ENCODING 194
SWIDTH 617 0
DWIDTH 12 0
BBX 11 18 0 0
BITMAP
0F00
1F00
3180
0000
0F00
0F00
1F00
1F80
1B80
1980
3980
39C0
3FC0
3FC0
70C0
70E0
60E0
E0E0
ENDCHAR
STARTCHAR 00C3
ENCODING 195
SWIDTH 617 0
DWIDTH 12 0
BBX 11 18 0 0
BITMAP
1C80
1780
0000
0000
0F00
0F00
1F00
1F80
1B80
1980
3980
39C0
3FC0
3FC0
70C0
70E0
60E0
E0E0
ENDCHAR
STARTCHAR 00C4
ENCODING 196
SWIDTH 617 0
DWIDTH 12 0
BBX 11 18 0 0
BITMAP
1980
1980
0000
0000
0F00
0F00
1F00
1F80
1B80
1980
3980
39C0
3FC0
3FC0
70C0
70E0
60E0
E0E0
ENDCHAR
STARTCHAR 00C5
ENCODING 197
SWIDTH 617 0
DWIDTH 12 0
BBX 11 18 0 0
BITMAP
0E00
1900
1980
1900
0F00
0F00
1F00
1F80
1B80
1980
3980
39C0
3FC0
3FC0
70C0
70E0
60E0
E0E0
ENDCHAR
STARTCHAR 00C6
ENCODING 198
SWIDTH 617 0
DWIDTH 12 0
BBX 11 14 0 0
BITMAP
1FE0
1FE0
1B00
1B00
3B00
33E0
33E0
3300
7F00
7F00
6300
6300
E3E0
C3E0
ENDCHAR
STARTCHAR 00C7
ENCODING 199
SWIDTH 617 0
DWIDTH 12 0
BBX 9 18 1 -4
BITMAP
0F80
3F80
7880
7080
7000
E000
E000
E000
E000
7000
7000
7880
3F80
1F80
0200
0300
1300
1E00
ENDCHAR
STARTCHAR 00C8
ENCODING 200
SWIDTH 617 0
DWIDTH 12 0
BBX 8 18 2 0
BITMAP
70
30
1C
00
FF
FF
C0
C0
C0
C0
FF
FF
C0
C0
C0
C0
FF
FF
ENDCHAR
STARTCHAR 00C9
ENCODING 201
SWIDTH 617 0
DWIDTH 12 0
BBX 8 18 2 0
BITMAP
06
0C
18
00
FF
FF
C0
C0
C0
C0
FF
FF
C0
C0
C0
C0
FF
FF
ENDCHAR
STARTCHAR 00CA
ENCODING 202
SWIDTH 617 0
DWIDTH 12 0
BBX 8 18 2 0
BITMAP
3C
3E
63
00
FF
FF
C0
C0
C0
C0
FF
FF
C0
C0
C0
C0
FF
FF
ENDCHAR
STARTCHAR 00CB
ENCODING 203
SWIDTH 617 0
DWIDTH 12 0
BBX 8 18 2 0
BITMAP
66
66
00
00
FF
FF
C0
C0
C0
C0
FF
FF
C0
C0
C0
C0
FF
FF
ENDCHAR
STARTCHAR 00CC
ENCODING 204
SWIDTH 617 0
DWIDTH 12 0
BBX 8 18 2 0
BITMAP
70
30
18
00
FF
FF
38
38
38
38
38
38
38
38
38
38
FF
FF
ENDCHAR
STARTCHAR 00CD
ENCODING 205
SWIDTH 617 0
DWIDTH 12 0
BBX 8 18 2 0
BITMAP
0E
1C
38
00
FF
FF
38
38
38
38
38
38
38
38
38
38
FF
FF
ENDCHAR
STARTCHAR 00CE
ENCODING 206
SWIDTH 617 0
DWIDTH 12 0
BBX 8 18 2 0
BITMAP
3C
7C
C6
00
FF
FF
38
38
38
38
38
38
38
38
38
38
FF
FF
ENDCHAR
STARTCHAR 00CF
ENCODING 207
SWIDTH 617 0
DWIDTH 12 0
BBX 8 18 2 0
BITMAP
66
66
00
00
FF
FF
38
38
38
38
38
38
38
38
38
38
FF
FF
ENDCHAR
STARTCHAR 00D0
ENCODING 208
SWIDTH 617 0
DWIDTH 12 0
BBX 11 14 0 0
BITMAP
7F00
7F80
73C0
71C0
70E0
70E0
FCE0
FCE0
70E0
70E0
71C0
73C0
7F80
7F00
ENDCHAR
STARTCHAR 00D1
ENCODING 209
SWIDTH 617 0
DWIDTH 12 0
BBX 10 18 1 0
BITMAP
3900
2F00
0000
0000
E1C0
F1C0
F1C0
F1C0
F9C0
F9C0
EDC0
EDC0
EDC0
E7C0
E7C0
E3C0
E3C0
E3C0
ENDCHAR
STARTCHAR 00D2
ENCODING 210
SWIDTH 617 0
DWIDTH 12 0
BBX 10 18 1 0
BITMAP
3800
1800
0C00
0000
1E00
7F00
7380
E380
E1C0
E1C0
E1C0
E1C0
E1C0
E1C0
E380
7380
7F00
1E00
ENDCHAR
STARTCHAR 00D3
ENCODING 211
SWIDTH 617 0
DWIDTH 12 0
BBX 10 18 1 0
BITMAP
0700
0E00
0C00
1000
1E00
7F00
7380
E380
E1C0
E1C0
E1C0
E1C0
E1C0
E1C0
E380
7380
7F00
1E00
ENDCHAR
STARTCHAR 00D4
ENCODING 212
SWIDTH 617 0
DWIDTH 12 0
BBX 10 18 1 0
BITMAP
1E00
3E00
3300
4000
1E00
7F00
7380
E380
E1C0
E1C0
E1C0
E1C0
E1C0
E1C0
E380
7380
7F00
1E00
ENDCHAR
STARTCHAR 00D5
ENCODING 213
SWIDTH 617 0
DWIDTH 12 0
BBX 10 18 1 0
BITMAP
3900
2F00
0000
0000
1E00
7F00
7380
E380
E1C0
E1C0
E1C0
E1C0
E1C0
E1C0
E380
7380
7F00
1E00
ENDCHAR
STARTCHAR 00D6
ENCODING 214
SWIDTH 617 0
DWIDTH 12 0
BBX 10 18 1 0
BITMAP
3300
3300
0000
0000
1E00
7F00
7380
E380
E1C0
E1C0
E1C0
E1C0
E1C0
E1C0
E380
7380
7F00
1E00
ENDCHAR
STARTCHAR 00D7
ENCODING 215
SWIDTH 617 0
DWIDTH 12 0
BBX 10 10 1 1
BITMAP
4100
E1C0
7380
3F00
1E00
1E00
3F00
7380
E1C0
4100
ENDCHAR
STARTCHAR 00D8
ENCODING 216
SWIDTH 617 0
DWIDTH 12 0
BBX 12 14 0 0
BITMAP
0F70
3FE0
39C0
71C0
73E0
73E0
76E0
7EE0
7CE0
78E0
71C0
79C0
7F80
CF00
ENDCHAR
STARTCHAR 00D9
ENCODING 217
SWIDTH 617 0
DWIDTH 12 0
BBX 10 18 1 0
BITMAP
3800
1800
0C00
0000
E1C0
E1C0
E1C0
E1C0
E1C0
E1C0
E1C0
E1C0
E1C0
E1C0
E1C0
FF80
7F80
3E00
ENDCHAR
STARTCHAR 00DA
ENCODING 218
SWIDTH 617 0
DWIDTH 12 0
BBX 10 18 1 0
BITMAP
0700
0E00
1C00
0000
E1C0
E1C0
E1C0
E1C0
E1C0
E1C0
E1C0
E1C0
E1C0
E1C0
E1C0
FF80
7F80
3E00
ENDCHAR
STARTCHAR 00DB
ENCODING 219
SWIDTH 617 0
DWIDTH 12 0
BBX 10 18 1 0
BITMAP
1E00
3E00
6300
0000
E1C0
E1C0
E1C0
E1C0
E1C0
E1C0
E1C0
E1C0
E1C0
E1C0
E1C0
FF80
7F80
3E00
ENDCHAR
STARTCHAR 00DC
ENCODING 220
SWIDTH 617 0
DWIDTH 12 0
BBX 10 18 1 0
BITMAP
3300
3300
0000
0000
E1C0
E1C0
E1C0
E1C0
E1C0
E1C0
E1C0
E1C0
E1C0
E1C0
E1C0
FF80
7F80
3E00
ENDCHAR
STARTCHAR 00DD
ENCODING 221
SWIDTH 617 0
DWIDTH 12 0
BBX 12 18 0 0
BITMAP
0380
0700
0E00
0000
E0F0
70E0
71C0
39C0
3B80
1F80
1F00
0F00
0E00
0E00
0E00
0E00
0E00
0E00
ENDCHAR
STARTCHAR 00DE
ENCODING 222
SWIDTH 617 0
DWIDTH 12 0
BBX 9 14 2 0
BITMAP
C000
C000
FE00
FF00
C780
C380
C380
C380
C780
FF00
FE00
C000
C000
C000
ENDCHAR
STARTCHAR 00DF
ENCODING 223
SWIDTH 617 0
DWIDTH 12 0
BBX 10 15 1 0
BITMAP
3E00
7F00
F380
E180
E780
EE00
EC00
EE00
E700
E380
E1C0
E1C0
E9C0
EFC0
EF00
ENDCHAR
STARTCHAR 00E0
ENCODING 224
SWIDTH 617 0
DWIDTH 12 0
BBX 10 17 1 0
BITMAP
7000
3000
1800
0C00
0C00
0000
3F00
7F80
6380
0180
7FC0
FFC0
E1C0
E180
E380
FFC0
3DC0
ENDCHAR
STARTCHAR 00E1
ENCODING 225
SWIDTH 617 0
DWIDTH 12 0
BBX 10 17 1 0
BITMAP
0380
0700
0600
0C00
1800
0000
3F00
7F80
6380
0180
3FC0
FFC0
E1C0
E180
E380
FFC0
3DC0
ENDCHAR
STARTCHAR 00E2
ENCODING 226
SWIDTH 617 0
DWIDTH 12 0
BBX 10 17 1 0
BITMAP
0C00
1E00
3E00
3300
6100
0000
3F00
7F80
6380
0180
7FC0
FFC0
E1C0
E180
E380
FFC0
3DC0
ENDCHAR
STARTCHAR 00E3
ENCODING 227
SWIDTH 617 0
DWIDTH 12 0
BBX 10 15 1 0
BITMAP
3900
2F00
0000
0000
3F00
7F80
6380
0180
7FC0
FFC0
E1C0
E180
E380
FFC0
3DC0
ENDCHAR
STARTCHAR 00E4
ENCODING 228
SWIDTH 617 0
DWIDTH 12 0
BBX 10 15 1 0
BITMAP
3300
3300
0000
0000
3F00
7F80
6380
0180
7FC0
FFC0
E1C0
E180
E380
FFC0
3DC0
ENDCHAR
STARTCHAR 00E5
ENCODING 229
SWIDTH 617 0
DWIDTH 12 0
BBX 10 18 1 0
BITMAP
1C00
3200
3300
3200
1E00
0000
0000
3F00
7F80
6380
0180
7FC0
FFC0
E1C0
E180
E380
FFC0
3DC0
ENDCHAR
STARTCHAR 00E6
ENCODING 230
SWIDTH 617 0
DWIDTH 12 0
BBX 11 11 0 0
BITMAP
7BC0
7FE0
4E60
0660
3FE0
7FE0
E600
C600
EF20
7FE0
79E0
ENDCHAR
STARTCHAR 00E7
ENCODING 231
SWIDTH 617 0
DWIDTH 12 0
BBX 8 15 2 -4
BITMAP
3E
7F
F1
E0
E0
C0
C0
E0
E1
7F
3F
0C
04
2C
3C
ENDCHAR
STARTCHAR 00E8
ENCODING 232
SWIDTH 617 0
DWIDTH 12 0
BBX 10 17 1 0
BITMAP
7000
3800
1800
0C00
0600
0000
1E00
7F80
7380
E1C0
FFC0
FFC0
E000
E000
F180
7F80
1F80
ENDCHAR
STARTCHAR 00E9
ENCODING 233
SWIDTH 617 0
DWIDTH 12 0
BBX 10 17 1 0
BITMAP
0380
0300
0600
0C00
0C00
0000
3E00
7F80
F380
E1C0
FFC0
FFC0
E000
E000
F180
7F80
1F80
ENDCHAR
STARTCHAR 00EA
ENCODING 234
SWIDTH 617 0
DWIDTH 12 0
BBX 10 17 1 0
BITMAP
0C00
1E00
1E00
3300
2180
0000
3E00
7F80
F380
E1C0
FFC0
FFC0
E000
E000
F180
7F80
1F80
ENDCHAR
STARTCHAR 00EB
ENCODING 235
SWIDTH 617 0
DWIDTH 12 0
BBX 10 15 1 0
BITMAP
3300
3300
0000
0000
3E00
7F80
F380
E1C0
FFC0
FFC0
E000
E000
F180
7F80
1F80
ENDCHAR
STARTCHAR 00EC
ENCODING 236
SWIDTH 617 0
DWIDTH 12 0
BBX 9 16 2 0
BITMAP
E000
6000
3000
1800
0000
F800
F800
3800
3800
3800
3800
3800
3800
3C00
1F80
0F80
ENDCHAR
STARTCHAR 00ED
ENCODING 237
SWIDTH 617 0
DWIDTH 12 0
BBX 9 16 2 0
BITMAP
0E00
1C00
1800
3000
0000
F800
F800
3800
3800
3800
3800
3800
3800
3800
3F80
1F80
ENDCHAR
STARTCHAR 00EE
ENCODING 238
SWIDTH 617 0
DWIDTH 12 0
BBX 9 16 2 0
BITMAP
3800
7C00
CC00
8600
0000
F800
F800
3800
3800
3800
3800
3800
3800
3800
1F80
0F80
ENDCHAR
STARTCHAR 00EF
ENCODING 239
SWIDTH 617 0
DWIDTH 12 0
BBX 9 15 2 0
BITMAP
CC00
CC00
0000
0000
F800
F800
3800
3800
3800
3800
3800
3800
3C00
1F80
1F80
ENDCHAR
STARTCHAR 00F0
ENCODING 240
SWIDTH 617 0
DWIDTH 12 0
BBX 10 15 1 0
BITMAP
3980
1F00
3E00
6600
0700
3F80
7F80
E180
E1C0
E1C0
E1C0
E180
7380
7F00
1E00
ENDCHAR
STARTCHAR 00F1
ENCODING 241
SWIDTH 617 0
DWIDTH 12 0
BBX 8 15 2 0
BITMAP
72
5E
00
00
DE
DF
E7
E7
C7
C7
C7
C7
C7
C7
C7
ENDCHAR
STARTCHAR 00F2
ENCODING 242
SWIDTH 617 0
DWIDTH 12 0
BBX 10 15 1 0
BITMAP
7000
1800
0C00
0000
1E00
7F00
7380
E1C0
E1C0
E1C0
E1C0
E1C0
7380
7F00
1E00
ENDCHAR
STARTCHAR 00F3
ENCODING 243
SWIDTH 617 0
DWIDTH 12 0
BBX 10 15 1 0
BITMAP
0380
0600
1C00
0000
1E00
7F00
7380
E1C0
E1C0
E1C0
E1C0
E1C0
7380
7F00
1E00
ENDCHAR
STARTCHAR 00F4
ENCODING 244
SWIDTH 617 0
DWIDTH 12 0
BBX 10 15 1 0
BITMAP
1C00
3E00
6100
0000
1E00
7F00
7380
E1C0
E1C0
E1C0
E1C0
E1C0
7380
7F00
1E00
ENDCHAR
STARTCHAR 00F5
ENCODING 245
SWIDTH 617 0
DWIDTH 12 0
BBX 10 15 1 0
BITMAP
3900
3F00
2600
0000
1E00
7F00
7380
E1C0
E1C0
E1C0
E1C0
E1C0
7380
7F00
1E00
ENDCHAR
STARTCHAR 00F6
ENCODING 246
SWIDTH 617 0
DWIDTH 12 0
BBX 10 15 1 0
BITMAP
3300
3300
0000
0000
1E00
7F00
7380
E1C0
E1C0
E1C0
E1C0
E1C0
7380
7F00
1E00
ENDCHAR
STARTCHAR 00F7
ENCODING 247
SWIDTH 617 0
DWIDTH 12 0
BBX 10 11 1 1
BITMAP
1C00
1C00
1C00
0000
0000
FFC0
FFC0
0000
1C00
1C00
1C00
ENDCHAR
STARTCHAR 00F8
ENCODING 248
SWIDTH 617 0
DWIDTH 12 0
BBX 11 13 0 -1
BITMAP
0020
0F60
3FC0
39C0
73C0
73E0
76E0
7CE0
78E0
39C0
7F80
EF00
4000
ENDCHAR
STARTCHAR 00F9
ENCODING 249
SWIDTH 617 0
DWIDTH 12 0
BBX 8 16 2 0
BITMAP
E0
70
30
18
00
C7
C7
C7
C7
C7
C7
C7
C7
EF
FF
77
ENDCHAR
STARTCHAR 00FA
ENCODING 250
SWIDTH 617 0
DWIDTH 12 0
BBX 8 16 2 0
BITMAP
07
0C
18
30
00
C7
C7
C7
C7
C7
C7
C7
C7
EF
FF
77
ENDCHAR
STARTCHAR 00FB
ENCODING 251
SWIDTH 617 0
DWIDTH 12 0
BBX 8 16 2 0
BITMAP
38
3C
66
C2
00
C7
C7
C7
C7
C7
C7
C7
C7
EF
FF
77
ENDCHAR
STARTCHAR 00FC
ENCODING 252
SWIDTH 617 0
DWIDTH 12 0
BBX 8 15 2 0
BITMAP
66
66
00
00
C7
C7
C7
C7
C7
C7
C7
C7
EF
FF
77
ENDCHAR
STARTCHAR 00FD
ENCODING 253
SWIDTH 617 0
DWIDTH 12 0
BBX 10 20 1 -4
BITMAP
0380
0700
0600
0C00
0000
E1C0
E1C0
6180
7380
7380
3300
3F00
1F00
1E00
1E00
0C00
1C00
1C00
F800
F000
ENDCHAR
STARTCHAR 00FE
ENCODING 254
SWIDTH 617 0
DWIDTH 12 0
BBX 10 19 1 -4
BITMAP
E000
E000
E000
E000
EF00
FF80
F380
F1C0
E1C0
E1C0
E1C0
F1C0
F380
FF80
EF00
E000
E000
E000
E000
ENDCHAR
STARTCHAR 00FF
ENCODING 255
SWIDTH 617 0
DWIDTH 12 0
BBX 10 19 1 -4
BITMAP
3300
3300
0000
0000
E1C0
E1C0
6180
7380
7380
3300
3F00
1F00
1E00
1E00
0C00
1C00
1C00
F800
F000
ENDCHAR
STARTCHAR 0100
ENCODING 256
SWIDTH 617 0
DWIDTH 12 0
BBX 11 18 0 0
BITMAP
1F80
1F80
0000
0000
0F00
0F00
1F00
1F80
1B80
1980
3980
39C0
3FC0
3FC0
70C0
70E0
60E0
E0E0
ENDCHAR
STARTCHAR 0101
ENCODING 257
SWIDTH 617 0
DWIDTH 12 0
BBX 10 15 1 0
BITMAP
3F00
3F00
0000
0000
3F00
7F80
6380
0180
7FC0
FFC0
E1C0
E180
E380
FFC0
3DC0
ENDCHAR
STARTCHAR 0102
ENCODING 258
SWIDTH 617 0
DWIDTH 12 0
BBX 11 18 0 0
BITMAP
1080
1980
0F00
0000
0F00
0F00
1F00
1F80
1B80
1980
3980
39C0
3FC0
3FC0
70C0
70E0
60E0
E0E0
ENDCHAR
STARTCHAR 0103
ENCODING 259
SWIDTH 617 0
DWIDTH 12 0
BBX 10 15 1 0
BITMAP
2300
3E00
0000
0000
3F00
7F80
6380
0180
3FC0
FFC0
E1C0
E180
E380
FFC0
3DC0
ENDCHAR
STARTCHAR 0104
ENCODING 260
SWIDTH 617 0
DWIDTH 12 0
BBX 12 18 0 -4
BITMAP
0F00
0F00
1F00
1F80
1B80
1980
3980
39C0
3FC0
3FC0
70C0
70E0
60E0
E0E0
00C0
0080
0080
00F0
ENDCHAR
STARTCHAR 0105
ENCODING 261
SWIDTH 617 0
DWIDTH 12 0
BBX 10 15 1 -4
BITMAP
3F00
7F80
6380
0180
3FC0
FFC0
F1C0
E180
E380
FFC0
3DC0
0100
0300
0340
01C0
ENDCHAR
STARTCHAR 0106
ENCODING 262
SWIDTH 617 0
DWIDTH 12 0
BBX 9 18 1 0
BITMAP
0380
0300
0600
0000
0F80
3F80
7980
7080
7000
E000
E000
E000
E000
7000
7080
7880
3F80
0F80
ENDCHAR
STARTCHAR 0107
ENCODING 263
SWIDTH 617 0
DWIDTH 12 0
BBX 9 17 2 0
BITMAP
0380
0700
0600
0C00
1800
0000
3E00
7F00
F100
E000
C000
C000
C000
E000
F100
7F00
3E00
ENDCHAR
STARTCHAR 0108
ENCODING 264
SWIDTH 617 0
DWIDTH 12 0
BBX 9 18 1 0
BITMAP
1E00
1B00
3180
0000
0F80
3F80
7880
7080
7000
E000
E000
E000
E000
7000
7080
7880
3F80
0F80
ENDCHAR
STARTCHAR 0109
ENCODING 265
SWIDTH 617 0
DWIDTH 12 0
BBX 9 15 1 0
BITMAP
0E00
1F00
3180
0000
1F00
3F80
7980
7000
E000
E000
E000
7000
7980
3F80
1F00
ENDCHAR
STARTCHAR 010A
ENCODING 266
SWIDTH 617 0
DWIDTH 12 0
BBX 9 18 1 0
BITMAP
0E00
0E00
0000
0000
0F80
3F80
7980
7080
7000
E000
E000
E000
E000
7000
7080
7880
3F80
0F80
ENDCHAR
STARTCHAR 010B
ENCODING 267
SWIDTH 617 0
DWIDTH 12 0
BBX 8 15 2 0
BITMAP
1C
1C
00
00
3E
7F
F1
E0
C0
C0
C0
E0
F1
7F
3E
ENDCHAR
STARTCHAR 010C
ENCODING 268
SWIDTH 617 0
DWIDTH 12 0
BBX 10 18 1 0
BITMAP
39C0
1F80
0F00
0000
0F80
3F80
7F80
7080
7000
E000
E000
E000
E000
7000
7040
7F80
3F80
0F80
ENDCHAR
STARTCHAR 010D
ENCODING 269
SWIDTH 617 0
DWIDTH 12 0
BBX 8 17 2 0
BITMAP
61
33
36
1E
0C
00
3E
7F
F1
E0
C0
C0
C0
E0
F1
7F
3E
ENDCHAR
STARTCHAR 010E
ENCODING 270
SWIDTH 617 0
DWIDTH 12 0
BBX 10 18 1 0
BITMAP
6300
3600
1C00
0000
FE00
FF00
FF80
E380
E1C0
E1C0
E1C0
E1C0
E1C0
E1C0
E380
FF80
FF00
FE00
ENDCHAR
STARTCHAR 010F
ENCODING 271
SWIDTH 617 0
DWIDTH 12 0
BBX 13 15 1 0
BITMAP
03B8
03B0
03B0
03E0
3B80
7F80
F780
E380
E380
E380
E380
E380
F780
7D80
3980
ENDCHAR
STARTCHAR 0110
ENCODING 272
SWIDTH 617 0
DWIDTH 12 0
BBX 11 14 0 0
BITMAP
7F00
7F80
73C0
71C0
70E0
70E0
FCE0
FCE0
70E0
70E0
71C0
73C0
7F80
7F00
ENDCHAR
STARTCHAR 0111
ENCODING 273
SWIDTH 617 0
DWIDTH 12 0
BBX 11 15 1 0
BITMAP
0380
0FE0
0FE0
0380
3B80
7F80
F780
E380
E380
E380
E380
E380
F780
7D80
3980
ENDCHAR
STARTCHAR 0112
ENCODING 274
SWIDTH 617 0
DWIDTH 12 0
BBX 8 18 2 0
BITMAP
7E
7E
00
00
FF
FF
C0
C0
C0
C0
FF
FF
C0
C0
C0
C0
FF
FF
ENDCHAR
STARTCHAR 0113
ENCODING 275
SWIDTH 617 0
DWIDTH 12 0
BBX 10 15 1 0
BITMAP
3F00
3F00
0000
0000
3E00
7F80
F380
E1C0
FFC0
FFC0
E000
E000
F180
7F80
1F80
ENDCHAR
STARTCHAR 0114
ENCODING 276
SWIDTH 617 0
DWIDTH 12 0
BBX 8 18 2 0
BITMAP
63
3E
00
00
FF
FF
C0
C0
C0
C0
FF
FF
C0
C0
C0
C0
FF
FF
ENDCHAR
STARTCHAR 0115
ENCODING 277
SWIDTH 617 0
DWIDTH 12 0
BBX 10 15 1 0
BITMAP
2300
3E00
0000
0000
3E00
7F80
F380
E1C0
FFC0
FFC0
E000
E000
F180
7F80
1F80
ENDCHAR
STARTCHAR 0116
ENCODING 278
SWIDTH 617 0
DWIDTH 12 0
BBX 8 18 2 0
BITMAP
18
18
00
00
FF
FF
C0
C0
C0
C0
FF
FF
C0
C0
C0
C0
FF
FF
ENDCHAR
STARTCHAR 0117
ENCODING 279
SWIDTH 617 0
DWIDTH 12 0
BBX 10 15 1 0
BITMAP
0C00
0C00
0000
0000
3E00
7F80
F380
E1C0
FFC0
FFC0
E000
E000
F180
7F80
1F80
ENDCHAR
STARTCHAR 0118
ENCODING 280
SWIDTH 617 0
DWIDTH 12 0
BBX 8 18 2 -4
BITMAP
FF
FF
C0
C0
C0
C0
FF
FF
C0
C0
C0
C0
FF
FF
04
0C
0C
07
ENDCHAR
STARTCHAR 0119
ENCODING 281
SWIDTH 617 0
DWIDTH 12 0
BBX 10 15 1 -4
BITMAP
3E00
7F00
F380
E1C0
E1C0
FFC0
FFC0
E000
F080
7F80
1F80
0200
0600
0640
0380
ENDCHAR
STARTCHAR 011A
ENCODING 282
SWIDTH 617 0
DWIDTH 12 0
BBX 8 18 2 0
BITMAP
63
36
1C
00
FF
FF
C0
C0
C0
C0
FF
FF
C0
C0
C0
C0
FF
FF
ENDCHAR
STARTCHAR 011B
ENCODING 283
SWIDTH 617 0
DWIDTH 12 0
BBX 10 17 1 0
BITMAP
6100
3300
1E00
1E00
0C00
0000
3E00
7F80
F380
E1C0
FFC0
FFC0
E000
E000
F180
7F80
1F80
ENDCHAR
STARTCHAR 011C
ENCODING 284
SWIDTH 617 0
DWIDTH 12 0
BBX 10 18 1 0
BITMAP
0E00
1B00
3180
0000
1F00
3F80
7880
7040
E000
E000
E7C0
E7C0
E1C0
E1C0
71C0
79C0
3FC0
1F00
ENDCHAR
STARTCHAR 011D
ENCODING 285
SWIDTH 617 0
DWIDTH 12 0
BBX 9 20 1 -4
BITMAP
0E00
1E00
3300
2180
0000
3D80
7F80
F780
E380
E180
E180
E180
E380
F780
7F80
3D80
0380
6380
7F80
7E00
ENDCHAR
STARTCHAR 011E
ENCODING 286
SWIDTH 617 0
DWIDTH 12 0
BBX 10 18 1 0
BITMAP
3180
1F00
0000
0000
1F00
3F80
7F80
7040
E000
E000
E7C0
E7C0
E1C0
E1C0
71C0
7FC0
3FC0
1F00
ENDCHAR
STARTCHAR 011F
ENCODING 287
SWIDTH 617 0
DWIDTH 12 0
BBX 9 19 1 -4
BITMAP
2300
3E00
0000
0000
3D80
7F80
F780
E380
E180
E180
E180
E380
F380
7F80
3D80
0180
4380
7F80
7E00
ENDCHAR
STARTCHAR 0120
ENCODING 288
SWIDTH 617 0
DWIDTH 12 0
BBX 10 18 1 0
BITMAP
0E00
0E00
0000
0000
1F80
3F80
7880
7040
E000
E000
E7C0
E7C0
E1C0
E1C0
71C0
79C0
3FC0
1F00
ENDCHAR
STARTCHAR 0121
ENCODING 289
SWIDTH 617 0
DWIDTH 12 0
BBX 9 19 1 -4
BITMAP
0C00
0C00
0000
0000
3D80
7F80
F780
E380
E180
E180
E180
E380
F380
7F80
3D80
0380
4380
7F80
7E00
ENDCHAR
STARTCHAR 0122
ENCODING 290
SWIDTH 617 0
DWIDTH 12 0
BBX 10 19 1 -5
BITMAP
1F80
3F80
7980
7040
E000
E000
E000
E7C0
E7C0
E1C0
71C0
79C0
3FC0
1F00
0000
0000
0700
0600
0C00
ENDCHAR
STARTCHAR 0123
ENCODING 291
SWIDTH 617 0
DWIDTH 12 0
BBX 9 19 1 -4
BITMAP
0600
0C00
1C00
0000
3D80
7F80
F780
E380
E180
E180
E180
E380
F380
7F80
3D80
0380
4380
7F80
7E00
ENDCHAR
STARTCHAR 0124
ENCODING 292
SWIDTH 617 0
DWIDTH 12 0
BBX 9 18 1 0
BITMAP
1E00
3E00
6300
0000
E180
E180
E180
E180
E180
FF80
FF80
E180
E180
E180
E180
E180
E180
E180
ENDCHAR
STARTCHAR 0125
ENCODING 293
SWIDTH 617 0
DWIDTH 12 0
BBX 8 18 2 0
BITMAP
1E
33
40
C0
C0
C0
C0
DE
DF
E7
E7
C7
C7
C7
C7
C7
C7
C7
ENDCHAR
STARTCHAR 0126
ENCODING 294
SWIDTH 617 0
DWIDTH 12 0
BBX 12 14 0 0
BITMAP
70C0
70C0
FFF0
FFF0
70C0
7FC0
7FC0
70C0
70C0
70C0
70C0
70C0
70C0
70C0
ENDCHAR
STARTCHAR 0127
ENCODING 295
SWIDTH 617 0
DWIDTH 12 0
BBX 10 15 0 0
BITMAP
3000
FE00
FE00
3000
3780
37C0
39C0
39C0
31C0
31C0
31C0
31C0
31C0
31C0
31C0
ENDCHAR
STARTCHAR 0128
ENCODING 296
SWIDTH 617 0
DWIDTH 12 0
BBX 8 18 2 0
BITMAP
72
5E
00
00
FF
FF
38
38
38
38
38
38
38
38
38
38
FF
FF
ENDCHAR
STARTCHAR 0129
ENCODING 297
SWIDTH 617 0
DWIDTH 12 0
BBX 9 15 2 0
BITMAP
6600
DC00
0000
0000
F800
F800
3800
3800
3800
3800
3800
3800
3C00
1F80
1F80
ENDCHAR
STARTCHAR 012A
ENCODING 298
SWIDTH 617 0
DWIDTH 12 0
BBX 8 18 2 0
BITMAP
7E
7E
00
00
FF
FF
38
38
38
38
38
38
38
38
38
38
FF
FF
ENDCHAR
STARTCHAR 012B
ENCODING 299
SWIDTH 617 0
DWIDTH 12 0
BBX 9 15 2 0
BITMAP
FC00
FC00
0000
0000
F800
F800
3800
3800
3800
3800
3800
3800
3C00
1F80
1F80
ENDCHAR
STARTCHAR 012C
ENCODING 300
SWIDTH 617 0
DWIDTH 12 0
BBX 8 18 2 0
BITMAP
46
7C
00
00
FF
FF
38
38
38
38
38
38
38
38
38
38
FF
FF
ENDCHAR
STARTCHAR 012D
ENCODING 301
SWIDTH 617 0
DWIDTH 12 0
BBX 9 15 2 0
BITMAP
C600
7C00
0000
0000
F800
F800
3800
3800
3800
3800
3800
3800
3C00
1F80
1F80
ENDCHAR
STARTCHAR 012E
ENCODING 302
SWIDTH 617 0
DWIDTH 12 0
BBX 8 18 2 -4
BITMAP
FF
FF
38
38
38
38
38
38
38
38
38
38
FF
FF
08
10
18
1E
ENDCHAR
STARTCHAR 012F
ENCODING 303
SWIDTH 617 0
DWIDTH 12 0
BBX 9 20 2 -4
BITMAP
3800
3800
3800
0000
0000
F800
F800
3800
3800
3800
3800
3800
3800
3C00
1F80
1F80
0600
0400
0480
0780
ENDCHAR
STARTCHAR 0130
ENCODING 304
SWIDTH 617 0
DWIDTH 12 0
BBX 8 18 2 0
BITMAP
18
18
00
00
FF
FF
38
38
38
38
38
38
38
38
38
38
FF
FF
ENDCHAR
STARTCHAR 0131
ENCODING 305
SWIDTH 617 0
DWIDTH 12 0
BBX 9 11 2 0
BITMAP
F800
F800
3800
3800
3800
3800
3800
3800
3C00
1F80
1F80
ENDCHAR
STARTCHAR 0132
ENCODING 306
SWIDTH 617 0
DWIDTH 12 0
BBX 9 14 1 0
BITMAP
E180
E180
E180
E180
E180
E180
E180
E180
E180
0180
0380
0780
FF00
FC00
ENDCHAR
STARTCHAR 0133
ENCODING 307
SWIDTH 617 0
DWIDTH 12 0
BBX 10 19 1 -4
BITMAP
E1C0
E1C0
E1C0
0000
E1C0
E1C0
E1C0
E1C0
E1C0
E1C0
E1C0
E1C0
E1C0
E1C0
E1C0
01C0
0380
1F80
1E00
ENDCHAR
STARTCHAR 0134
ENCODING 308
SWIDTH 617 0
DWIDTH 12 0
BBX 11 18 1 0
BITMAP
0780
07C0
0C60
0000
3F80
3F80
0380
0380
0380
0380
0380
0380
0380
0380
8300
C700
FF00
7E00
ENDCHAR
STARTCHAR 0135
ENCODING 309
SWIDTH 617 0
DWIDTH 12 0
BBX 9 20 2 -4
BITMAP
1C00
1E00
3300
6180
0000
7C00
7C00
0C00
0C00
0C00
0C00
0C00
0C00
0C00
0C00
0C00
1C00
1C00
FC00
F800
ENDCHAR
STARTCHAR 0136
ENCODING 310
SWIDTH 617 0
DWIDTH 12 0
BBX 11 19 1 -5
BITMAP
E1C0
E380
E700
E700
EE00
FC00
FC00
FE00
F700
E700
E380
E380
E1C0
E1E0
0000
0000
0E00
0C00
0C00
ENDCHAR
STARTCHAR 0137
ENCODING 311
SWIDTH 617 0
DWIDTH 12 0
BBX 9 20 2 -5
BITMAP
C000
C000
C000
C000
C780
CF00
CE00
DC00
F800
FC00
EE00
CE00
C700
C700
C380
0000
0000
1C00
1800
1800
ENDCHAR
STARTCHAR 0138
ENCODING 312
SWIDTH 617 0
DWIDTH 12 0
BBX 9 11 2 0
BITMAP
C780
CF00
CE00
DC00
F800
FC00
EE00
CE00
C700
C700
C380
ENDCHAR
STARTCHAR 0139
ENCODING 313
SWIDTH 617 0
DWIDTH 12 0
BBX 9 18 2 0
BITMAP
0E00
1C00
3800
0000
E000
E000
E000
E000
E000
E000
E000
E000
E000
E000
E000
E000
FF80
FF80
ENDCHAR
STARTCHAR 013A
ENCODING 314
SWIDTH 617 0
DWIDTH 12 0
BBX 9 18 1 0
BITMAP
0700
0C00
1000
F800
F800
1800
1800
1800
1800
1800
1800
1800
1800
1800
1C00
1C00
1F80
0F80
ENDCHAR
STARTCHAR 013B
ENCODING 315
SWIDTH 617 0
DWIDTH 12 0
BBX 9 19 2 -5
BITMAP
E000
E000
E000
E000
E000
E000
E000
E000
E000
E000
E000
E000
FF80
FF80
0000
0000
1C00
1800
1800
ENDCHAR
STARTCHAR 013C
ENCODING 316
SWIDTH 617 0
DWIDTH 12 0
BBX 9 20 1 -5
BITMAP
F800
F800
1800
1800
1800
1800
1800
1800
1800
1800
1800
1C00
1C00
1F80
0F80
0000
0000
1C00
1800
1800
ENDCHAR
STARTCHAR 013D
ENCODING 317
SWIDTH 617 0
DWIDTH 12 0
BBX 9 14 2 0
BITMAP
E380
E300
E300
E000
E000
E000
E000
E000
E000
E000
E000
E000
FF80
FF80
ENDCHAR
STARTCHAR 013E
ENCODING 318
SWIDTH 617 0
DWIDTH 12 0
BBX 10 15 1 0
BITMAP
F8C0
F9C0
1980
1980
1800
1800
1800
1800
1800
1800
1800
1C00
1C00
1F80
0F80
ENDCHAR
STARTCHAR 013F
ENCODING 319
SWIDTH 617 0
DWIDTH 12 0
BBX 9 14 2 0
BITMAP
E000
E000
E000
E000
E000
E000
E600
E600
E000
E000
E000
E000
FF80
FF80
ENDCHAR
STARTCHAR 0140
ENCODING 320
SWIDTH 617 0
DWIDTH 12 0
BBX 10 15 0 0
BITMAP
FC00
FC00
1C00
1C00
1C00
1C00
1DC0
1DC0
1C00
1C00
1C00
1C00
1E00
0FC0
07C0
ENDCHAR
STARTCHAR 0141
ENCODING 321
SWIDTH 617 0
DWIDTH 12 0
BBX 11 14 0 0
BITMAP
3800
3800
3800
3900
3B80
3E00
3C00
7800
F800
B800
3800
3800
3FE0
3FE0
ENDCHAR
STARTCHAR 0142
ENCODING 322
SWIDTH 617 0
DWIDTH 12 0
BBX 11 15 0 0
BITMAP
7E00
7E00
0E00
0E40
0FC0
0F80
0E00
1E00
7E00
EE00
4E00
0E00
0E00
0FE0
07E0
ENDCHAR
STARTCHAR 0143
ENCODING 323
SWIDTH 617 0
DWIDTH 12 0
BBX 10 18 1 0
BITMAP
0700
0600
0C00
0000
E1C0
F1C0
F1C0
F1C0
F9C0
F9C0
EDC0
EDC0
EDC0
E7C0
E7C0
E3C0
E3C0
E3C0
ENDCHAR
STARTCHAR 0144
ENCODING 324
SWIDTH 617 0
DWIDTH 12 0
BBX 8 16 2 0
BITMAP
07
0C
18
30
00
DE
DF
E7
E7
C7
C7
C7
C7
C7
C7
C7
ENDCHAR
STARTCHAR 0145
ENCODING 325
SWIDTH 617 0
DWIDTH 12 0
BBX 10 19 1 -5
BITMAP
E1C0
F1C0
F1C0
F1C0
F9C0
F9C0
EDC0
EDC0
EDC0
E7C0
E7C0
E3C0
E3C0
E3C0
0000
0000
0E00
0C00
1800
ENDCHAR
STARTCHAR 0146
ENCODING 326
SWIDTH 617 0
DWIDTH 12 0
BBX 8 16 2 -5
BITMAP
DE
DF
E7
E7
C7
C7
C7
C7
C7
C7
C7
00
00
1C
18
30
ENDCHAR
STARTCHAR 0147
ENCODING 327
SWIDTH 617 0
DWIDTH 12 0
BBX 10 18 1 0
BITMAP
3180
1B00
1E00
0000
E1C0
F1C0
F1C0
F1C0
F9C0
F9C0
EDC0
EDC0
EDC0
E7C0
E7C0
E3C0
E3C0
E3C0
ENDCHAR
STARTCHAR 0148
ENCODING 328
SWIDTH 617 0
DWIDTH 12 0
BBX 8 16 2 0
BITMAP
63
36
3C
18
00
DE
DF
E7
E7
C7
C7
C7
C7
C7
C7
C7
ENDCHAR
STARTCHAR 0149
ENCODING 329
SWIDTH 617 0
DWIDTH 12 0
BBX 12 15 0 0
BITMAP
E000
E000
E000
E000
DDC0
DFE0
1E70
1C70
1C70
1C70
1C70
1C70
1C70
1C70
1C70
ENDCHAR
STARTCHAR 014A
ENCODING 330
SWIDTH 617 0
DWIDTH 12 0
BBX 10 18 1 -4
BITMAP
EF00
FF80
F380
E1C0
E1C0
E1C0
E1C0
E1C0
E1C0
E1C0
E1C0
E1C0
E1C0
E1C0
01C0
0380
0780
0700
ENDCHAR
STARTCHAR 014B
ENCODING 331
SWIDTH 617 0
DWIDTH 12 0
BBX 8 15 2 -4
BITMAP
DE
DF
E7
E7
C7
C7
C7
C7
C7
C7
C7
07
07
1F
1E
ENDCHAR
STARTCHAR 014C
ENCODING 332
SWIDTH 617 0
DWIDTH 12 0
BBX 10 18 1 0
BITMAP
3F00
3F00
0000
0000
1E00
7F00
7380
E380
E1C0
E1C0
E1C0
E1C0
E1C0
E1C0
E380
7380
7F00
1E00
ENDCHAR
STARTCHAR 014D
ENCODING 333
SWIDTH 617 0
DWIDTH 12 0
BBX 10 15 1 0
BITMAP
3F00
3F00
0000
0000
1E00
7F00
7380
E1C0
E1C0
E1C0
E1C0
E1C0
7380
7F00
1E00
ENDCHAR
STARTCHAR 014E
ENCODING 334
SWIDTH 617 0
DWIDTH 12 0
BBX 10 18 1 0
BITMAP
2300
3E00
0000
0000
1E00
7F00
7380
E380
E1C0
E1C0
E1C0
E1C0
E1C0
E1C0
E380
7380
7F00
1E00
ENDCHAR
STARTCHAR 014F
ENCODING 335
SWIDTH 617 0
DWIDTH 12 0
BBX 10 15 1 0
BITMAP
2300
3E00
0000
0000
1E00
7F00
7380
E1C0
E1C0
E1C0
E1C0
E1C0
7380
7F00
1E00
ENDCHAR
STARTCHAR 0150
ENCODING 336
SWIDTH 617 0
DWIDTH 12 0
BBX 10 18 1 0
BITMAP
1DC0
3300
6600
0000
1E00
7F00
7F80
E380
E1C0
E1C0
E1C0
E1C0
E1C0
E1C0
E380
7F80
7F00
1E00
ENDCHAR
STARTCHAR 0151
ENCODING 337
SWIDTH 617 0
DWIDTH 12 0
BBX 10 16 1 0
BITMAP
1D80
1B00
1300
3600
0000
1E00
7F00
7380
E1C0
E1C0
E1C0
E1C0
E1C0
7380
7F00
1E00
ENDCHAR
STARTCHAR 0152
ENCODING 338
SWIDTH 617 0
DWIDTH 12 0
BBX 11 14 1 0
BITMAP
3FC0
7FC0
E600
E600
C600
C7C0
C7C0
C600
C600
C600
E600
E600
7FE0
3FE0
ENDCHAR
STARTCHAR 0153
ENCODING 339
SWIDTH 617 0
DWIDTH 12 0
BBX 11 11 0 0
BITMAP
39C0
7FE0
EF60
C660
C7E0
C7E0
C600
C600
EF20
7FE0
39E0
ENDCHAR
STARTCHAR 0154
ENCODING 340
SWIDTH 617 0
DWIDTH 12 0
BBX 11 18 1 0
BITMAP
0700
0E00
1C00
0000
FE00
FF80
E380
E380
E180
E380
FF00
FE00
E700
E300
E380
E380
E1C0
E1E0
ENDCHAR
STARTCHAR 0155
ENCODING 341
SWIDTH 617 0
DWIDTH 12 0
BBX 8 16 3 0
BITMAP
07
0C
18
10
00
CF
FF
F1
E0
E0
E0
E0
E0
E0
E0
E0
ENDCHAR
STARTCHAR 0156
ENCODING 342
SWIDTH 617 0
DWIDTH 12 0
BBX 11 19 1 -5
BITMAP
FE00
FF80
E380
E380
E180
E380
E380
FF00
FF00
E700
E380
E380
E1C0
E1E0
0000
0000
0E00
0C00
0C00
ENDCHAR
STARTCHAR 0157
ENCODING 343
SWIDTH 617 0
DWIDTH 12 0
BBX 9 16 2 -5
BITMAP
6780
7F80
7880
7000
7000
7000
7000
7000
7000
7000
7000
0000
0000
7000
6000
E000
ENDCHAR
STARTCHAR 0158
ENCODING 344
SWIDTH 617 0
DWIDTH 12 0
BBX 11 18 1 0
BITMAP
6300
3600
1C00
0000
FE00
FF80
E380
E380
E180
E380
FF00
FE00
E700
E300
E380
E380
E1C0
E1E0
ENDCHAR
STARTCHAR 0159
ENCODING 345
SWIDTH 617 0
DWIDTH 12 0
BBX 8 16 3 0
BITMAP
C6
6C
3C
18
00
CF
FF
F1
E0
E0
E0
E0
E0
E0
E0
E0
ENDCHAR
STARTCHAR 015A
ENCODING 346
SWIDTH 617 0
DWIDTH 12 0
BBX 10 18 1 0
BITMAP
0700
0600
0C00
0000
3F00
7F80
F180
E080
E000
7800
7E00
1F80
0380
01C0
81C0
E380
FF80
7E00
ENDCHAR
STARTCHAR 015B
ENCODING 347
SWIDTH 617 0
DWIDTH 12 0
BBX 8 17 2 0
BITMAP
07
0E
0C
18
30
00
7E
FE
E2
C0
F0
7E
0F
07
C7
FF
7E
ENDCHAR
STARTCHAR 015C
ENCODING 348
SWIDTH 617 0
DWIDTH 12 0
BBX 10 18 1 0
BITMAP
1E00
3E00
7300
0000
3F00
7F80
F180
E080
E000
7800
7E00
1F80
0380
01C0
81C0
E380
FF80
7E00
ENDCHAR
STARTCHAR 015D
ENCODING 349
SWIDTH 617 0
DWIDTH 12 0
BBX 8 15 2 0
BITMAP
38
7C
C2
00
7E
FE
E2
C0
F0
7E
0F
07
C7
FF
7E
ENDCHAR
STARTCHAR 015E
ENCODING 350
SWIDTH 617 0
DWIDTH 12 0
BBX 10 18 1 -4
BITMAP
3F00
7F80
F180
E080
E000
7800
7E00
1F80
0380
01C0
81C0
E380
FF80
7E00
0400
0600
2600
3C00
ENDCHAR
STARTCHAR 015F
ENCODING 351
SWIDTH 617 0
DWIDTH 12 0
BBX 8 15 2 -4
BITMAP
7E
FE
E2
C0
F0
7E
0F
07
C7
FF
FE
08
0C
4C
78
ENDCHAR
STARTCHAR 0160
ENCODING 352
SWIDTH 617 0
DWIDTH 12 0
BBX 10 18 1 0
BITMAP
6300
3600
1E00
0000
3F00
7F80
F180
E080
E000
7800
7F00
1F80
0380
01C0
81C0
E380
FF80
7E00
ENDCHAR
STARTCHAR 0161
ENCODING 353
SWIDTH 617 0
DWIDTH 12 0
BBX 8 17 2 0
BITMAP
C2
66
7C
3C
18
00
7E
FE
C2
C0
F8
7E
0F
07
87
FF
FE
ENDCHAR
STARTCHAR 0162
ENCODING 354
SWIDTH 617 0
DWIDTH 12 0
BBX 10 18 1 -4
BITMAP
FFC0
FFC0
1C00
1C00
1C00
1C00
1C00
1C00
1C00
1C00
1C00
1C00
1C00
1C00
0400
0600
2600
3C00
ENDCHAR
STARTCHAR 0163
ENCODING 355
SWIDTH 617 0
DWIDTH 12 0
BBX 9 19 1 -4
BITMAP
0C00
1C00
1C00
1C00
FF80
FF80
1C00
1C00
1C00
1C00
1C00
1C00
1C00
1F80
0F80
0300
0100
0900
0F00
ENDCHAR
STARTCHAR 0164
ENCODING 356
SWIDTH 617 0
DWIDTH 12 0
BBX 10 18 1 0
BITMAP
6300
3E00
1E00
0000
FFC0
FFC0
1C00
1C00
1C00
1C00
1C00
1C00
1C00
1C00
1C00
1C00
1C00
1C00
ENDCHAR
STARTCHAR 0165
ENCODING 357
SWIDTH 617 0
DWIDTH 12 0
BBX 10 16 1 0
BITMAP
00C0
05C0
1D80
1D80
1C00
FF80
FF80
1C00
1C00
1C00
1C00
1C00
1C00
1C00
1F80
0F80
ENDCHAR
STARTCHAR 0166
ENCODING 358
SWIDTH 617 0
DWIDTH 12 0
BBX 10 14 1 0
BITMAP
FFC0
FFC0
1C00
1C00
1C00
1C00
1C00
7F80
7F80
1C00
1C00
1C00
1C00
1C00
ENDCHAR
STARTCHAR 0167
ENCODING 359
SWIDTH 617 0
DWIDTH 12 0
BBX 9 15 1 0
BITMAP
0C00
1C00
1C00
1C00
FF80
FF80
1C00
1C00
7E00
7E00
1C00
1C00
1C00
1F80
0F80
ENDCHAR
STARTCHAR 0168
ENCODING 360
SWIDTH 617 0
DWIDTH 12 0
BBX 10 18 1 0
BITMAP
3900
2F00
0000
0000
E1C0
E1C0
E1C0
E1C0
E1C0
E1C0
E1C0
E1C0
E1C0
E1C0
E1C0
FF80
7F80
3E00
ENDCHAR
STARTCHAR 0169
ENCODING 361
SWIDTH 617 0
DWIDTH 12 0
BBX 8 15 2 0
BITMAP
72
5E
00
00
C7
C7
C7
C7
C7
C7
C7
C7
EF
FF
77
ENDCHAR
STARTCHAR 016A
ENCODING 362
SWIDTH 617 0
DWIDTH 12 0
BBX 10 18 1 0
BITMAP
3F00
3F00
0000
0000
E1C0
E1C0
E1C0
E1C0
E1C0
E1C0
E1C0
E1C0
E1C0
E1C0
E1C0
FF80
7F80
3E00
ENDCHAR
STARTCHAR 016B
ENCODING 363
SWIDTH 617 0
DWIDTH 12 0
BBX 8 14 2 0
BITMAP
7E
7E
00
C7
C7
C7
C7
C7
C7
C7
C7
EF
FF
77
ENDCHAR
STARTCHAR 016C
ENCODING 364
SWIDTH 617 0
DWIDTH 12 0
BBX 10 18 1 0
BITMAP
2300
3E00
0000
0000
E1C0
E1C0
E1C0
E1C0
E1C0
E1C0
E1C0
E1C0
E1C0
E1C0
E1C0
F380
7F80
3E00
ENDCHAR
STARTCHAR 016D
ENCODING 365
SWIDTH 617 0
DWIDTH 12 0
BBX 8 15 2 0
BITMAP
46
7C
00
00
C7
C7
C7
C7
C7
C7
C7
C7
EF
FF
7F
ENDCHAR
STARTCHAR 016E
ENCODING 366
SWIDTH 617 0
DWIDTH 12 0
BBX 10 18 1 0
BITMAP
1C00
1200
3300
3300
FFC0
EDC0
E1C0
E1C0
E1C0
E1C0
E1C0
E1C0
E1C0
E1C0
E1C0
FF80
7F80
3E00
ENDCHAR
STARTCHAR 016F
ENCODING 367
SWIDTH 617 0
DWIDTH 12 0
BBX 8 18 2 0
BITMAP
38
64
66
64
3C
00
00
C7
C7
C7
C7
C7
C7
C7
C7
EF
FF
77
ENDCHAR
STARTCHAR 0170
ENCODING 368
SWIDTH 617 0
DWIDTH 12 0
BBX 10 18 1 0
BITMAP
1DC0
3300
6600
0000
E1C0
E1C0
E1C0
E1C0
E1C0
E1C0
E1C0
E1C0
E1C0
E1C0
E1C0
FF80
7F80
3E00
ENDCHAR
STARTCHAR 0171
ENCODING 369
SWIDTH 617 0
DWIDTH 12 0
BBX 8 16 2 0
BITMAP
3B
36
26
6C
00
C7
C7
C7
C7
C7
C7
C7
C7
EF
FF
77
ENDCHAR
STARTCHAR 0172
ENCODING 370
SWIDTH 617 0
DWIDTH 12 0
BBX 10 18 1 -4
BITMAP
E1C0
E1C0
E1C0
E1C0
E1C0
E1C0
E1C0
E1C0
E1C0
E1C0
E1C0
F780
7F80
3F00
0800
1800
1800
0E00
ENDCHAR
STARTCHAR 0173
ENCODING 371
SWIDTH 617 0
DWIDTH 12 0
BBX 10 15 2 -4
BITMAP
C700
C700
C700
C700
C700
C700
C700
C700
EF00
FF00
7700
0300
0200
0240
03C0
ENDCHAR
STARTCHAR 0174
ENCODING 372
SWIDTH 617 0
DWIDTH 12 0
BBX 12 18 0 0
BITMAP
0F00
1B00
3180
0000
E070
E070
E060
E660
6E60
6F60
6F60
6F60
6B60
69E0
79C0
79C0
39C0
31C0
ENDCHAR
STARTCHAR 0175
ENCODING 373
SWIDTH 617 0
DWIDTH 12 0
BBX 12 16 0 0
BITMAP
0E00
0F00
1980
3180
0000
C070
E060
E060
6660
6E60
6F60
6FE0
6BC0
79C0
39C0
39C0
ENDCHAR
STARTCHAR 0176
ENCODING 374
SWIDTH 617 0
DWIDTH 12 0
BBX 12 18 0 0
BITMAP
0F00
1B00
3180
0000
E0F0
70E0
71C0
39C0
3B80
1F80
1F00
0F00
0E00
0E00
0E00
0E00
0E00
0E00
ENDCHAR
STARTCHAR 0177
ENCODING 375
SWIDTH 617 0
DWIDTH 12 0
BBX 10 20 1 -4
BITMAP
0C00
1E00
3300
6380
0000
E1C0
E1C0
6180
7380
7380
3300
3F00
1F00
1E00
1E00
0C00
1C00
1C00
F800
F000
ENDCHAR
STARTCHAR 0178
ENCODING 376
SWIDTH 617 0
DWIDTH 12 0
BBX 12 18 0 0
BITMAP
1980
1980
0000
0000
E0F0
70E0
71C0
39C0
3B80
1F80
1F00
0F00
0E00
0E00
0E00
0E00
0E00
0E00
ENDCHAR
STARTCHAR 0179
ENCODING 377
SWIDTH 617 0
DWIDTH 12 0
BBX 10 18 1 0
BITMAP
0700
0600
0C00
0000
FFC0
FFC0
03C0
0380
0700
0F00
0E00
1C00
3C00
3800
7000
E000
FFC0
FFC0
ENDCHAR
STARTCHAR 017A
ENCODING 378
SWIDTH 617 0
DWIDTH 12 0
BBX 8 16 2 0
BITMAP
07
0C
1C
38
00
FF
FF
07
0E
1C
3C
78
70
E0
FF
FF
ENDCHAR
STARTCHAR 017B
ENCODING 379
SWIDTH 617 0
DWIDTH 12 0
BBX 10 18 1 0
BITMAP
0E00
0E00
0000
0000
FFC0
FFC0
03C0
0380
0700
0F00
0E00
1C00
3C00
3800
7000
E000
FFC0
FFC0
ENDCHAR
STARTCHAR 017C
ENCODING 380
SWIDTH 617 0
DWIDTH 12 0
BBX 8 15 2 0
BITMAP
18
18
00
00
FF
FF
07
0E
1C
3C
78
70
E0
FF
FF
ENDCHAR
STARTCHAR 017D
ENCODING 381
SWIDTH 617 0
DWIDTH 12 0
BBX 10 18 1 0
BITMAP
6300
3E00
1E00
0000
FFC0
FFC0
03C0
0380
0700
0F00
0E00
1C00
3C00
3800
7000
E000
FFC0
FFC0
ENDCHAR
STARTCHAR 017E
ENCODING 382
SWIDTH 617 0
DWIDTH 12 0
BBX 8 16 2 0
BITMAP
C6
66
3C
38
00
FF
FF
07
0E
1C
3C
78
70
E0
FF
FF
ENDCHAR
STARTCHAR 017F
ENCODING 383
SWIDTH 617 0
DWIDTH 12 0
BBX 9 17 1 -2
BITMAP
0780
0F80
1C00
1C00
FC00
FC00
1C00
1C00
1C00
1C00
1C00
1C00
1C00
1C00
1C00
1C00
1C00
ENDCHAR
STARTCHAR 0192
ENCODING 402
SWIDTH 617 0
DWIDTH 12 0
BBX 11 19 0 -4
BITMAP
01E0
03E0
0720
0700
0600
0600
3FC0
3FC0
0E00
0E00
0E00
0C00
0C00
0C00
0C00
1C00
9C00
F800
F000
ENDCHAR
STARTCHAR 01A0
ENCODING 416
SWIDTH 617 0
DWIDTH 12 0
BBX 12 15 0 0
BITMAP
0030
1E30
7FB0
73E0
E1C0
E1C0
E1C0
E1C0
E1C0
E1C0
E1C0
E1C0
7380
7F00
1E00
ENDCHAR
STARTCHAR 01A1
ENCODING 417
SWIDTH 617 0
DWIDTH 12 0
BBX 12 11 0 0
BITMAP
1E20
7FB0
73F0
E1E0
E1C0
E1C0
E1C0
E1C0
7380
7F80
1E00
ENDCHAR
STARTCHAR 01A4
ENCODING 420
SWIDTH 617 0
DWIDTH 12 0
BBX 12 14 0 0
BITMAP
7F80
FFE0
F8E0
F870
3870
38E0
3FE0
3FC0
3800
3800
3800
3800
3800
3800
ENDCHAR
STARTCHAR 01AF
ENCODING 431
SWIDTH 617 0
DWIDTH 12 0
BBX 12 15 0 0
BITMAP
0030
E1F0
E1F0
E1E0
E1C0
E1C0
E1C0
E1C0
E1C0
E1C0
E1C0
E1C0
FF80
7F80
3F00
ENDCHAR
STARTCHAR 01B0
ENCODING 432
SWIDTH 617 0
DWIDTH 12 0
BBX 12 11 0 0
BITMAP
E3B0
E3B0
E3F0
E3E0
E380
E380
E380
E380
E780
7F80
7B80
ENDCHAR
STARTCHAR 01E6
ENCODING 486
SWIDTH 617 0
DWIDTH 12 0
BBX 10 18 1 0
BITMAP
3180
1B00
0F00
0000
1F80
3F80
7880
7040
E000
E000
E7C0
E7C0
E1C0
E1C0
71C0
79C0
3FC0
1F00
ENDCHAR
STARTCHAR 01E7
ENCODING 487
SWIDTH 617 0
DWIDTH 12 0
BBX 9 20 1 -4
BITMAP
6300
3600
1E00
0C00
0000
3D80
7F80
F780
E380
E180
E180
E180
E380
F380
7F80
3D80
0180
4380
7F80
7E00
ENDCHAR
STARTCHAR 01FE
ENCODING 510
SWIDTH 617 0
DWIDTH 12 0
BBX 12 18 0 0
BITMAP
0380
0700
0600
0800
0F70
3FE0
39C0
71C0
73E0
73E0
76E0
7EE0
7CE0
78E0
71C0
79C0
7F80
CF00
ENDCHAR
STARTCHAR 01FF
ENCODING 511
SWIDTH 617 0
DWIDTH 12 0
BBX 11 18 0 -1
BITMAP
01C0
0380
0300
0600
0C00
0020
0F60
3FC0
39C0
73E0
73E0
76E0
7CE0
78E0
39C0
7F80
EF00
4000
ENDCHAR
STARTCHAR 0218
ENCODING 536
SWIDTH 617 0
DWIDTH 12 0
BBX 10 19 1 -5
BITMAP
3F00
7F80
F180
E080
E000
7800
7E00
1F80
0380
01C0
81C0
E380
FF80
7E00
0000
0000
1C00
1800
1800
ENDCHAR
STARTCHAR 0219
ENCODING 537
SWIDTH 617 0
DWIDTH 12 0
BBX 8 16 2 -5
BITMAP
7E
FE
E2
C0
F0
7E
0F
07
C7
FF
7E
00
00
38
30
30
ENDCHAR
STARTCHAR 021A
ENCODING 538
SWIDTH 617 0
DWIDTH 12 0
BBX 10 18 1 -4
BITMAP
FFC0
FFC0
1C00
1C00
1C00
1C00
1C00
1C00
1C00
1C00
1C00
1C00
1C00
1C00
0400
0600
2600
3C00
ENDCHAR
STARTCHAR 021B
ENCODING 539
SWIDTH 617 0
DWIDTH 12 0
BBX 9 19 1 -4
BITMAP
0C00
1C00
1C00
1C00
FF80
FF80
1C00
1C00
1C00
1C00
1C00
1C00
1C00
1F80
0F80
0300
0100
0900
0F00
ENDCHAR
STARTCHAR 02B9
ENCODING 697
SWIDTH 617 0
DWIDTH 12 0
BBX 2 5 5 11
BITMAP
C0
C0
C0
C0
C0
ENDCHAR
STARTCHAR 02BB
ENCODING 699
SWIDTH 617 0
DWIDTH 12 0
BBX 4 6 4 9
BITMAP
30
70
60
E0
E0
E0
ENDCHAR
STARTCHAR 02BC
ENCODING 700
SWIDTH 617 0
DWIDTH 12 0
BBX 4 6 4 9
BITMAP
70
70
70
60
E0
C0
ENDCHAR
STARTCHAR 02BD
ENCODING 701
SWIDTH 617 0
DWIDTH 12 0
BBX 2 5 5 12
BITMAP
C0
C0
80
80
C0
ENDCHAR
STARTCHAR 02BE
ENCODING 702
SWIDTH 617 0
DWIDTH 12 0
BBX 2 5 5 10
BITMAP
80
C0
40
C0
80
ENDCHAR
STARTCHAR 02BF
ENCODING 703
SWIDTH 617 0
DWIDTH 12 0
BBX 2 5 5 10
BITMAP
40
80
80
80
C0
ENDCHAR
STARTCHAR 02C0
ENCODING 704
SWIDTH 617 0
DWIDTH 12 0
BBX 6 9 3 6
BITMAP
F0
F8
18
0C
18
78
60
60
60
ENDCHAR
STARTCHAR 02C1
ENCODING 705
SWIDTH 617 0
DWIDTH 12 0
BBX 6 9 3 6
BITMAP
38
7C
C0
C0
C0
78
18
18
18
ENDCHAR
STARTCHAR 02C6
ENCODING 710
SWIDTH 617 0
DWIDTH 12 0
BBX 7 4 2 12
BITMAP
18
3C
6C
C6
ENDCHAR
STARTCHAR 02C7
ENCODING 711
SWIDTH 617 0
DWIDTH 12 0
BBX 7 4 2 12
BITMAP
C2
66
3C
38
ENDCHAR
STARTCHAR 02C8
ENCODING 712
SWIDTH 617 0
DWIDTH 12 0
BBX 2 5 5 10
BITMAP
C0
C0
C0
C0
C0
ENDCHAR
STARTCHAR 02C9
ENCODING 713
SWIDTH 617 0
DWIDTH 12 0
BBX 6 2 3 13
BITMAP
FC
FC
ENDCHAR
STARTCHAR 02CC
ENCODING 716
SWIDTH 617 0
DWIDTH 12 0
BBX 2 5 5 -2
BITMAP
C0
C0
C0
C0
C0
ENDCHAR
STARTCHAR 02CD
ENCODING 717
SWIDTH 617 0
DWIDTH 12 0
BBX 6 2 3 -4
BITMAP
FC
FC
ENDCHAR
STARTCHAR 02CE
ENCODING 718
SWIDTH 617 0
DWIDTH 12 0
BBX 5 4 3 -6
BITMAP
E0
60
30
18
ENDCHAR
STARTCHAR 02CF
ENCODING 719
SWIDTH 617 0
DWIDTH 12 0
BBX 5 4 4 -6
BITMAP
38
70
60
C0
ENDCHAR
STARTCHAR 02D0
ENCODING 720
SWIDTH 617 0
DWIDTH 12 0
BBX 4 11 4 0
BITMAP
F0
60
60
40
00
00
00
40
40
60
F0
ENDCHAR
STARTCHAR 02D1
ENCODING 721
SWIDTH 617 0
DWIDTH 12 0
BBX 4 4 4 7
BITMAP
F0
60
40
40
ENDCHAR
STARTCHAR 02D8
ENCODING 728
SWIDTH 617 0
DWIDTH 12 0
BBX 6 3 3 13
BITMAP
84
CC
78
ENDCHAR
STARTCHAR 02D9
ENCODING 729
SWIDTH 617 0
DWIDTH 12 0
BBX 2 2 5 13
BITMAP
C0
C0
ENDCHAR
STARTCHAR 02DA
ENCODING 730
SWIDTH 617 0
DWIDTH 12 0
BBX 6 5 3 12
BITMAP
70
C8
CC
C8
78
ENDCHAR
STARTCHAR 02DB
ENCODING 731
SWIDTH 617 0
DWIDTH 12 0
BBX 4 4 4 -4
BITMAP
60
C0
C0
F0
ENDCHAR
STARTCHAR 02DC
ENCODING 732
SWIDTH 617 0
DWIDTH 12 0
BBX 6 2 3 13
BITMAP
E4
BC
ENDCHAR
STARTCHAR 02DD
ENCODING 733
SWIDTH 617 0
DWIDTH 12 0
BBX 7 4 3 12
BITMAP
76
6C
4C
D8
ENDCHAR
STARTCHAR 0300
ENCODING 768
SWIDTH 0 0
DWIDTH 0 0
BBX 6 4 -10 12
BITMAP
E0
70
30
1C
ENDCHAR
STARTCHAR 0301
ENCODING 769
SWIDTH 0 0
DWIDTH 0 0
BBX 5 4 -7 12
BITMAP
38
30
60
C0
ENDCHAR
STARTCHAR 0302
ENCODING 770
SWIDTH 0 0
DWIDTH 0 0
BBX 7 4 -9 12
BITMAP
30
78
6C
C6
ENDCHAR
STARTCHAR 0303
ENCODING 771
SWIDTH 0 0
DWIDTH 0 0
BBX 6 2 -9 13
BITMAP
F4
BC
ENDCHAR
STARTCHAR 0304
ENCODING 772
SWIDTH 0 0
DWIDTH 0 0
BBX 6 2 -9 13
BITMAP
FC
FC
ENDCHAR
STARTCHAR 0305
ENCODING 773
SWIDTH 0 0
DWIDTH 0 0
BBX 12 2 -12 13
BITMAP
FFF0
FFF0
ENDCHAR
STARTCHAR 0306
ENCODING 774
SWIDTH 0 0
DWIDTH 0 0
BBX 6 3 -9 13
BITMAP
84
CC
78
ENDCHAR
STARTCHAR 0307
ENCODING 775
SWIDTH 0 0
DWIDTH 0 0
BBX 2 2 -7 13
BITMAP
C0
C0
ENDCHAR
STARTCHAR 0308
ENCODING 776
SWIDTH 0 0
DWIDTH 0 0
BBX 6 2 -9 13
BITMAP
CC
CC
ENDCHAR
STARTCHAR 0309
ENCODING 777
SWIDTH 0 0
DWIDTH 0 0
BBX 4 4 -8 13
BITMAP
F0
10
10
60
ENDCHAR
STARTCHAR 030A
ENCODING 778
SWIDTH 0 0
DWIDTH 0 0
BBX 6 5 -9 12
BITMAP
38
4C
CC
4C
78
ENDCHAR
STARTCHAR 030B
ENCODING 779
SWIDTH 0 0
DWIDTH 0 0
BBX 8 4 -9 12
BITMAP
37
66
6C
D8
ENDCHAR
STARTCHAR 030C
ENCODING 780
SWIDTH 0 0
DWIDTH 0 0
BBX 7 4 -9 12
BITMAP
86
CC
78
38
ENDCHAR
STARTCHAR 030D
ENCODING 781
SWIDTH 0 0
DWIDTH 0 0
BBX 2 4 -7 12
BITMAP
C0
C0
C0
C0
ENDCHAR
STARTCHAR 030E
ENCODING 782
SWIDTH 0 0
DWIDTH 0 0
BBX 7 4 -9 12
BITMAP
86
86
86
86
ENDCHAR
STARTCHAR 030F
ENCODING 783
SWIDTH 0 0
DWIDTH 0 0
BBX 7 4 -10 12
BITMAP
DC
6C
64
36
ENDCHAR
STARTCHAR 0310
ENCODING 784
SWIDTH 0 0
DWIDTH 0 0
BBX 6 4 -9 13
BITMAP
30
30
C4
78
ENDCHAR
STARTCHAR 0311
ENCODING 785
SWIDTH 0 0
DWIDTH 0 0
BBX 6 3 -9 12
BITMAP
78
CC
84
ENDCHAR
STARTCHAR 0312
ENCODING 786
SWIDTH 0 0
DWIDTH 0 0
BBX 3 3 -7 9
BITMAP
60
E0
C0
ENDCHAR
STARTCHAR 0313
ENCODING 787
SWIDTH 0 0
DWIDTH 0 0
BBX 2 5 -7 12
BITMAP
C0
C0
40
40
C0
ENDCHAR
STARTCHAR 0314
ENCODING 788
SWIDTH 0 0
DWIDTH 0 0
BBX 2 5 -7 12
BITMAP
C0
C0
80
C0
40
ENDCHAR
STARTCHAR 0315
ENCODING 789
SWIDTH 0 0
DWIDTH 0 0
BBX 3 4 -7 12
BITMAP
E0
E0
C0
C0
ENDCHAR
STARTCHAR 0316
ENCODING 790
SWIDTH 0 0
DWIDTH 0 0
BBX 6 4 -9 -6
BITMAP
E0
70
38
1C
ENDCHAR
STARTCHAR 0317
ENCODING 791
SWIDTH 0 0
DWIDTH 0 0
BBX 6 4 -9 -6
BITMAP
1C
38
30
E0
ENDCHAR
STARTCHAR 0318
ENCODING 792
SWIDTH 0 0
DWIDTH 0 0
BBX 3 5 -8 -8
BITMAP
20
E0
E0
20
20
ENDCHAR
STARTCHAR 0319
ENCODING 793
SWIDTH 0 0
DWIDTH 0 0
BBX 3 5 -7 -8
BITMAP
C0
E0
E0
C0
C0
ENDCHAR
STARTCHAR 031A
ENCODING 794
SWIDTH 0 0
DWIDTH 0 0
BBX 5 5 -8 13
BITMAP
F8
F8
18
18
18
ENDCHAR
STARTCHAR 031B
ENCODING 795
SWIDTH 0 0
DWIDTH 0 0
BBX 4 4 -8 7
BITMAP
30
10
F0
70
ENDCHAR
STARTCHAR 031C
ENCODING 796
SWIDTH 0 0
DWIDTH 0 0
BBX 2 4 -7 -5
BITMAP
40
C0
80
40
ENDCHAR
STARTCHAR 031D
ENCODING 797
SWIDTH 0 0
DWIDTH 0 0
BBX 5 4 -8 -6
BITMAP
60
60
F8
F8
ENDCHAR
STARTCHAR 031E
ENCODING 798
SWIDTH 0 0
DWIDTH 0 0
BBX 6 3 -9 -7
BITMAP
FC
FC
30
ENDCHAR
STARTCHAR 031F
ENCODING 799
SWIDTH 0 0
DWIDTH 0 0
BBX 5 5 -8 -8
BITMAP
60
F8
F8
60
60
ENDCHAR
STARTCHAR 0320
ENCODING 800
SWIDTH 0 0
DWIDTH 0 0
BBX 5 2 -8 -4
BITMAP
F8
F8
ENDCHAR
STARTCHAR 0321
ENCODING 801
SWIDTH 0 0
DWIDTH 0 0
BBX 4 6 -6 -4
BITMAP
30
30
30
70
F0
E0
ENDCHAR
STARTCHAR 0322
ENCODING 802
SWIDTH 0 0
DWIDTH 0 0
BBX 5 6 -10 -4
BITMAP
E0
E0
E0
E0
F8
78
ENDCHAR
STARTCHAR 0323
ENCODING 803
SWIDTH 0 0
DWIDTH 0 0
BBX 2 2 -7 -4
BITMAP
C0
C0
ENDCHAR
STARTCHAR 0324
ENCODING 804
SWIDTH 0 0
DWIDTH 0 0
BBX 6 2 -9 -4
BITMAP
CC
CC
ENDCHAR
STARTCHAR 0325
ENCODING 805
SWIDTH 0 0
DWIDTH 0 0
BBX 4 4 -8 -5
BITMAP
70
D0
90
70
ENDCHAR
STARTCHAR 0326
ENCODING 806
SWIDTH 0 0
DWIDTH 0 0
BBX 3 3 -8 -5
BITMAP
60
E0
C0
ENDCHAR
STARTCHAR 0327
ENCODING 807
SWIDTH 0 0
DWIDTH 0 0
BBX 4 4 -8 -4
BITMAP
20
30
30
F0
ENDCHAR
STARTCHAR 0328
ENCODING 808
SWIDTH 0 0
DWIDTH 0 0
BBX 4 4 -8 -4
BITMAP
60
C0
C0
F0
ENDCHAR
STARTCHAR 0329
ENCODING 809
SWIDTH 0 0
DWIDTH 0 0
BBX 2 4 -7 -6
BITMAP
C0
C0
C0
C0
ENDCHAR
STARTCHAR 032A
ENCODING 810
SWIDTH 0 0
DWIDTH 0 0
BBX 6 4 -9 -6
BITMAP
FC
FC
CC
CC
ENDCHAR
STARTCHAR 032B
ENCODING 811
SWIDTH 0 0
DWIDTH 0 0
BBX 8 3 -10 -4
BITMAP
D9
DB
7E
ENDCHAR
STARTCHAR 032C
ENCODING 812
SWIDTH 0 0
DWIDTH 0 0
BBX 7 4 -9 -5
BITMAP
86
CC
78
38
ENDCHAR
STARTCHAR 032D
ENCODING 813
SWIDTH 0 0
DWIDTH 0 0
BBX 7 4 -9 -5
BITMAP
30
78
6C
C6
ENDCHAR
STARTCHAR 032E
ENCODING 814
SWIDTH 0 0
DWIDTH 0 0
BBX 6 3 -9 -4
BITMAP
84
CC
78
ENDCHAR
STARTCHAR 032F
ENCODING 815
SWIDTH 0 0
DWIDTH 0 0
BBX 6 3 -9 -5
BITMAP
78
CC
84
ENDCHAR
STARTCHAR 0330
ENCODING 816
SWIDTH 0 0
DWIDTH 0 0
BBX 6 2 -9 -4
BITMAP
E4
BC
ENDCHAR
STARTCHAR 0331
ENCODING 817
SWIDTH 0 0
DWIDTH 0 0
BBX 6 2 -9 -4
BITMAP
FC
FC
ENDCHAR
STARTCHAR 0332
ENCODING 818
SWIDTH 0 0
DWIDTH 0 0
BBX 12 2 -12 -5
BITMAP
FFF0
FFF0
ENDCHAR
STARTCHAR 0333
ENCODING 819
SWIDTH 0 0
DWIDTH 0 0
BBX 12 5 -12 -5
BITMAP
FFF0
FFF0
0000
FFF0
FFF0
ENDCHAR
STARTCHAR 0334
ENCODING 820
SWIDTH 0 0
DWIDTH 0 0
BBX 10 3 -11 4
BITMAP
FC40
FFC0
8780
ENDCHAR
STARTCHAR 0335
ENCODING 821
SWIDTH 0 0
DWIDTH 0 0
BBX 7 2 -10 4
BITMAP
FE
FE
ENDCHAR
STARTCHAR 0336
ENCODING 822
SWIDTH 0 0
DWIDTH 0 0
BBX 12 2 -12 4
BITMAP
FFF0
FFF0
ENDCHAR
STARTCHAR 0337
ENCODING 823
SWIDTH 0 0
DWIDTH 0 0
BBX 11 13 -11 -1
BITMAP
0040
00E0
00C0
0180
0300
0600
0C00
1C00
3800
3000
6000
C000
8000
ENDCHAR
STARTCHAR 0338
ENCODING 824
SWIDTH 0 0
DWIDTH 0 0
BBX 12 16 -12 -1
BITMAP
0020
0070
0060
00C0
01C0
0180
0300
0700
0E00
0C00
1800
3800
3000
6000
E000
4000
ENDCHAR
STARTCHAR 0339
ENCODING 825
SWIDTH 0 0
DWIDTH 0 0
BBX 2 4 -7 -5
BITMAP
80
40
40
C0
ENDCHAR
STARTCHAR 033A
ENCODING 826
SWIDTH 0 0
DWIDTH 0 0
BBX 6 4 -9 -5
BITMAP
CC
CC
FC
FC
ENDCHAR
STARTCHAR 033B
ENCODING 827
SWIDTH 0 0
DWIDTH 0 0
BBX 6 6 -9 -8
BITMAP
FC
FC
CC
CC
FC
FC
ENDCHAR
STARTCHAR 033C
ENCODING 828
SWIDTH 0 0
DWIDTH 0 0
BBX 8 3 -10 -5
BITMAP
7E
DB
D9
ENDCHAR
STARTCHAR 033D
ENCODING 829
SWIDTH 0 0
DWIDTH 0 0
BBX 5 5 -8 11
BITMAP
D8
F0
70
F8
90
ENDCHAR
STARTCHAR 033E
ENCODING 830
SWIDTH 0 0
DWIDTH 0 0
BBX 3 5 -7 12
BITMAP
C0
80
C0
60
C0
ENDCHAR
STARTCHAR 033F
ENCODING 831
SWIDTH 0 0
DWIDTH 0 0
BBX 12 2 -12 10
BITMAP
FFF0
FFF0
ENDCHAR
STARTCHAR 0358
ENCODING 856
SWIDTH 0 0
DWIDTH 0 0
BBX 3 2 -3 13
BITMAP
E0
E0
ENDCHAR
STARTCHAR 0361
ENCODING 865
SWIDTH 0 0
DWIDTH 0 0
BBX 16 3 -14 14
BITMAP
1FFC
F007
8001
ENDCHAR
STARTCHAR 0384
ENCODING 900
SWIDTH 617 0
DWIDTH 12 0
BBX 6 4 4 12
BITMAP
1C
38
30
E0
ENDCHAR
STARTCHAR 0385
ENCODING 901
SWIDTH 617 0
DWIDTH 12 0
BBX 8 6 2 13
BITMAP
07
0E
0C
18
E7
C7
ENDCHAR
STARTCHAR 0386
ENCODING 902
SWIDTH 617 0
DWIDTH 12 0
BBX 12 16 -1 0
BITMAP
1C00
3800
7780
E780
0F80
0FC0
0DC0
0CC0
1CC0
1CE0
1FE0
1FE0
3860
3870
3070
7070
ENDCHAR
STARTCHAR 0388
ENCODING 904
SWIDTH 617 0
DWIDTH 12 0
BBX 13 16 -3 0
BITMAP
3800
3000
67F8
C7F8
0600
0600
0600
0600
07F8
07F8
0600
0600
0600
0600
07F8
07F8
ENDCHAR
STARTCHAR 0389
ENCODING 905
SWIDTH 617 0
DWIDTH 12 0
BBX 14 16 -4 0
BITMAP
1C00
3800
770C
E70C
070C
070C
070C
07FC
07FC
070C
070C
070C
070C
070C
070C
070C
ENDCHAR
STARTCHAR 038A
ENCODING 906
SWIDTH 617 0
DWIDTH 12 0
BBX 13 16 -3 0
BITMAP
1800
3000
67F8
C7F8
01C0
01C0
01C0
01C0
01C0
01C0
01C0
01C0
01C0
01C0
07F8
07F8
ENDCHAR
STARTCHAR 038C
ENCODING 908
SWIDTH 617 0
DWIDTH 12 0
BBX 13 16 -2 0
BITMAP
1C00
33C0
6FE0
CFF0
1C70
1C38
1C38
1C38
1C38
1C38
1C38
1C38
1C70
0FF0
0FE0
03C0
ENDCHAR
STARTCHAR 038E
ENCODING 910
SWIDTH 617 0
DWIDTH 12 0
BBX 17 16 -5 0
BITMAP
180000
300000
778700
67CF80
C7DF80
00FF00
007800
007800
007000
007000
007000
007000
007000
007000
007000
007000
ENDCHAR
STARTCHAR 038F
ENCODING 911
SWIDTH 617 0
DWIDTH 12 0
BBX 12 16 -1 0
BITMAP
3800
3000
6780
DFC0
1CE0
38E0
3870
3870
3870
3870
3870
3860
1CE0
0DC0
3DF0
3DF0
ENDCHAR
STARTCHAR 0390
ENCODING 912
SWIDTH 617 0
DWIDTH 12 0
BBX 8 18 2 0
BITMAP
07
0C
18
E7
C7
00
00
78
78
38
38
38
38
38
38
1C
1E
0E
ENDCHAR
STARTCHAR 0391
ENCODING 913
SWIDTH 617 0
DWIDTH 12 0
BBX 11 14 0 0
BITMAP
0F00
0F00
1F00
1F80
1B80
1980
3980
39C0
3FC0
3FC0
70C0
70E0
60E0
E0E0
ENDCHAR
STARTCHAR 0392
ENCODING 914
SWIDTH 617 0
DWIDTH 12 0
BBX 10 14 1 0
BITMAP
FF00
FF80
E380
E1C0
E380
FF80
FF00
E380
E1C0
E1C0
E1C0
E3C0
FF80
FF00
ENDCHAR
STARTCHAR 0393
ENCODING 915
SWIDTH 617 0
DWIDTH 12 0
BBX 9 14 2 0
BITMAP
FF80
FF80
E000
E000
E000
E000
E000
E000
E000
E000
E000
E000
E000
E000
ENDCHAR
STARTCHAR 0394
ENCODING 916
SWIDTH 617 0
DWIDTH 12 0
BBX 11 14 0 0
BITMAP
0F00
0F00
1F00
1F80
1B80
1980
3980
39C0
31C0
30C0
70C0
70E0
7FE0
FFE0
ENDCHAR
STARTCHAR 0395
ENCODING 917
SWIDTH 617 0
DWIDTH 12 0
BBX 8 14 2 0
BITMAP
FF
FF
C0
C0
C0
C0
FF
FF
C0
C0
C0
C0
FF
FF
ENDCHAR
STARTCHAR 0396
ENCODING 918
SWIDTH 617 0
DWIDTH 12 0
BBX 10 14 1 0
BITMAP
FFC0
FFC0
03C0
0380
0700
0F00
0E00
1C00
3C00
3800
7000
E000
FFC0
FFC0
ENDCHAR
STARTCHAR 0397
ENCODING 919
SWIDTH 617 0
DWIDTH 12 0
BBX 9 14 1 0
BITMAP
E180
E180
E180
E180
E180
FF80
FF80
E180
E180
E180
E180
E180
E180
E180
ENDCHAR
STARTCHAR 0398
ENCODING 920
SWIDTH 617 0
DWIDTH 12 0
BBX 12 14 0 0
BITMAP
1F00
3FC0
79E0
70E0
E060
E070
EF70
EF70
E070
E060
60E0
79E0
3FC0
1F80
ENDCHAR
STARTCHAR 0399
ENCODING 921
SWIDTH 617 0
DWIDTH 12 0
BBX 8 14 2 0
BITMAP
FF
FF
38
38
38
38
38
38
38
38
38
38
FF
FF
ENDCHAR
STARTCHAR 039A
ENCODING 922
SWIDTH 617 0
DWIDTH 12 0
BBX 11 14 1 0
BITMAP
E1C0
E380
E700
E700
EE00
FC00
FC00
FE00
F700
E700
E380
E380
E1C0
E1E0
ENDCHAR
STARTCHAR 039B
ENCODING 923
SWIDTH 617 0
DWIDTH 12 0
BBX 11 14 0 0
BITMAP
0F00
0F00
1F00
1F80
1B80
1980
3980
39C0
31C0
30C0
70C0
70E0
60E0
E0E0
ENDCHAR
STARTCHAR 039C
ENCODING 924
SWIDTH 617 0
DWIDTH 12 0
BBX 10 14 1 0
BITMAP
E3C0
F3C0
F3C0
F3C0
D7C0
DFC0
DFC0
DDC0
CDC0
C1C0
C1C0
C1C0
C1C0
C1C0
ENDCHAR
STARTCHAR 039D
ENCODING 925
SWIDTH 617 0
DWIDTH 12 0
BBX 10 14 1 0
BITMAP
E1C0
F1C0
F1C0
F1C0
F9C0
F9C0
EDC0
EDC0
EDC0
E7C0
E7C0
E3C0
E3C0
E3C0
ENDCHAR
STARTCHAR 039E
ENCODING 926
SWIDTH 617 0
DWIDTH 12 0
BBX 9 14 1 0
BITMAP
FF80
FF80
0000
0000
0000
1E00
1E00
0000
0000
0000
0000
0000
FF80
FF80
ENDCHAR
STARTCHAR 039F
ENCODING 927
SWIDTH 617 0
DWIDTH 12 0
BBX 10 15 1 0
BITMAP
1E00
7F00
7380
E380
E1C0
E1C0
E1C0
E1C0
E1C0
E1C0
E1C0
E380
7380
7F00
1E00
ENDCHAR
STARTCHAR 03A0
ENCODING 928
SWIDTH 617 0
DWIDTH 12 0
BBX 9 14 1 0
BITMAP
FF80
FF80
E180
E180
E180
E180
E180
E180
E180
E180
E180
E180
E180
E180
ENDCHAR
STARTCHAR 03A1
ENCODING 929
SWIDTH 617 0
DWIDTH 12 0
BBX 9 14 2 0
BITMAP
FE00
FF00
C780
C380
C380
C380
FF00
FE00
C000
C000
C000
C000
C000
C000
ENDCHAR
STARTCHAR 03A3
ENCODING 931
SWIDTH 617 0
DWIDTH 12 0
BBX 10 14 1 0
BITMAP
FFC0
FFC0
E000
7000
3800
1C00
1E00
1E00
1C00
3800
7000
E000
FFC0
FFC0
ENDCHAR
STARTCHAR 03A4
ENCODING 932
SWIDTH 617 0
DWIDTH 12 0
BBX 10 14 1 0
BITMAP
FFC0
FFC0
1C00
1C00
1C00
1C00
1C00
1C00
1C00
1C00
1C00
1C00
1C00
1C00
ENDCHAR
STARTCHAR 03A5
ENCODING 933
SWIDTH 617 0
DWIDTH 12 0
BBX 12 14 0 0
BITMAP
E0E0
F9E0
FBF0
1F60
0F00
0F00
0E00
0E00
0E00
0E00
0E00
0E00
0E00
0E00
ENDCHAR
STARTCHAR 03A6
ENCODING 934
SWIDTH 617 0
DWIDTH 12 0
BBX 10 14 1 0
BITMAP
3E00
3E00
1C00
3F00
7F80
FDC0
DDC0
DDC0
FDC0
7F80
3F00
1C00
3E00
3E00
ENDCHAR
STARTCHAR 03A7
ENCODING 935
SWIDTH 617 0
DWIDTH 12 0
BBX 11 14 0 0
BITMAP
F0E0
70C0
39C0
3B80
1F80
0F00
0F00
0F00
1F00
1F80
3B80
39C0
70E0
E0E0
ENDCHAR
STARTCHAR 03A8
ENCODING 936
SWIDTH 617 0
DWIDTH 12 0
BBX 10 14 1 0
BITMAP
FDC0
FDC0
FDC0
FDC0
FDC0
FDC0
FDC0
FF80
7F80
3F00
1C00
1C00
3E00
3E00
ENDCHAR
STARTCHAR 03A9
ENCODING 937
SWIDTH 617 0
DWIDTH 12 0
BBX 10 14 1 0
BITMAP
1E00
7F00
7380
E380
E1C0
E1C0
E1C0
E1C0
E1C0
E380
7380
3700
F7C0
F7C0
ENDCHAR
STARTCHAR 03AA
ENCODING 938
SWIDTH 617 0
DWIDTH 12 0
BBX 8 18 2 0
BITMAP
66
66
00
00
FF
FF
38
38
38
38
38
38
38
38
38
38
FF
FF
ENDCHAR
STARTCHAR 03AB
ENCODING 939
SWIDTH 617 0
DWIDTH 12 0
BBX 12 18 0 0
BITMAP
1980
1980
0000
0000
E0E0
F9E0
FBF0
1F60
0F00
0F00
0E00
0E00
0E00
0E00
0E00
0E00
0E00
0E00
ENDCHAR
STARTCHAR 03AC
ENCODING 940
SWIDTH 617 0
DWIDTH 12 0
BBX 10 17 1 0
BITMAP
0380
0700
0600
0C00
1800
0000
3DC0
7F80
FF80
C780
C780
C300
C700
C700
E780
FFC0
3DC0
ENDCHAR
STARTCHAR 03AD
ENCODING 941
SWIDTH 617 0
DWIDTH 12 0
BBX 9 16 1 0
BITMAP
0380
0600
0C00
1800
0000
3F00
7F80
7180
6000
3E00
3E00
7000
E000
F080
7F80
3F80
ENDCHAR
STARTCHAR 03AE
ENCODING 942
SWIDTH 617 0
DWIDTH 12 0
BBX 8 20 2 -4
BITMAP
07
0C
18
30
00
DE
DF
E7
E7
C7
C7
C7
C7
C7
C7
C7
07
07
07
07
ENDCHAR
STARTCHAR 03AF
ENCODING 943
SWIDTH 617 0
DWIDTH 12 0
BBX 7 16 3 0
BITMAP
0E
18
30
60
00
F0
F0
70
70
70
70
70
70
38
3C
1C
ENDCHAR
STARTCHAR 03B0
ENCODING 944
SWIDTH 617 0
DWIDTH 12 0
BBX 10 18 1 0
BITMAP
0380
0600
0C00
7380
6380
0000
0000
F380
F180
71C0
71C0
71C0
71C0
71C0
71C0
7380
3F80
1E00
ENDCHAR
STARTCHAR 03B1
ENCODING 945
SWIDTH 617 0
DWIDTH 12 0
BBX 10 11 1 0
BITMAP
3DC0
7F80
FF80
C780
C780
C300
C700
C700
E780
FFC0
3DC0
ENDCHAR
STARTCHAR 03B2
ENCODING 946
SWIDTH 617 0
DWIDTH 12 0
BBX 10 19 1 -4
BITMAP
3E00
7F00
F780
E380
E380
E380
E700
EF00
EF80
E3C0
E1C0
E1C0
F3C0
FF80
FF00
E000
E000
E000
E000
ENDCHAR
STARTCHAR 03B3
ENCODING 947
SWIDTH 617 0
DWIDTH 12 0
BBX 10 15 1 -4
BITMAP
C1C0
E1C0
7380
7380
3380
3F00
3F00
1F00
1E00
1E00
1C00
0C00
0C00
0C00
0C00
ENDCHAR
STARTCHAR 03B4
ENCODING 948
SWIDTH 617 0
DWIDTH 12 0
BBX 10 15 1 0
BITMAP
3F00
7F80
7180
6000
3C00
7F00
7780
E180
E1C0
E1C0
E1C0
E1C0
7380
7F00
1E00
ENDCHAR
STARTCHAR 03B5
ENCODING 949
SWIDTH 617 0
DWIDTH 12 0
BBX 9 11 1 0
BITMAP
3F00
7F80
7180
6000
3E00
3E00
7000
E000
F080
7F80
3F80
ENDCHAR
STARTCHAR 03B6
ENCODING 950
SWIDTH 617 0
DWIDTH 12 0
BBX 8 19 2 -4
BITMAP
FF
FF
0F
1C
38
70
E0
E0
C0
C0
C0
E0
F0
7E
3F
03
03
07
06
ENDCHAR
STARTCHAR 03B7
ENCODING 951
SWIDTH 617 0
DWIDTH 12 0
BBX 8 15 2 -4
BITMAP
DE
DF
E7
E7
C7
C7
C7
C7
C7
C7
C7
07
07
07
07
ENDCHAR
STARTCHAR 03B8
ENCODING 952
SWIDTH 617 0
DWIDTH 12 0
BBX 10 15 1 0
BITMAP
1E00
3F00
7380
6380
E180
E1C0
FFC0
FFC0
E1C0
E1C0
E180
6380
7380
3F00
1E00
ENDCHAR
STARTCHAR 03B9
ENCODING 953
SWIDTH 617 0
DWIDTH 12 0
BBX 6 11 3 0
BITMAP
F0
F0
70
70
70
70
70
70
38
3C
1C
ENDCHAR
STARTCHAR 03BA
ENCODING 954
SWIDTH 617 0
DWIDTH 12 0
BBX 9 11 2 0
BITMAP
C780
CF00
CE00
DC00
F800
FC00
EE00
CE00
C700
C700
C380
ENDCHAR
STARTCHAR 03BB
ENCODING 955
SWIDTH 617 0
DWIDTH 12 0
BBX 10 15 1 0
BITMAP
F000
F800
1C00
1C00
0C00
1E00
1E00
1E00
3F00
3F00
3300
7380
7380
E180
E1C0
ENDCHAR
STARTCHAR 03BC
ENCODING 956
SWIDTH 617 0
DWIDTH 12 0
BBX 9 15 2 -4
BITMAP
C700
C700
C700
C700
C700
C700
C700
C700
E780
FF80
D980
C000
C000
C000
C000
ENDCHAR
STARTCHAR 03BD
ENCODING 957
SWIDTH 617 0
DWIDTH 12 0
BBX 11 11 0 0
BITMAP
E3C0
71C0
70E0
70E0
38E0
39E0
39C0
3BC0
1F80
1F00
1E00
ENDCHAR
STARTCHAR 03BE
ENCODING 958
SWIDTH 617 0
DWIDTH 12 0
BBX 9 19 1 -4
BITMAP
7F80
7F80
1C00
7000
7000
7000
7C00
1F00
3F00
7800
6000
E000
7000
7F00
1F80
0180
0180
0380
0300
ENDCHAR
STARTCHAR 03BF
ENCODING 959
SWIDTH 617 0
DWIDTH 12 0
BBX 10 11 1 0
BITMAP
1E00
7F00
7380
E1C0
E1C0
E1C0
E1C0
E1C0
7380
7F00
1E00
ENDCHAR
STARTCHAR 03C0
ENCODING 960
SWIDTH 617 0
DWIDTH 12 0
BBX 12 11 0 0
BITMAP
FFE0
FFE0
31C0
31C0
31C0
31C0
31C0
31C0
31C0
31F0
30F0
ENDCHAR
STARTCHAR 03C1
ENCODING 961
SWIDTH 617 0
DWIDTH 12 0
BBX 10 15 1 -4
BITMAP
1F00
3F80
7380
71C0
E1C0
E1C0
E1C0
F1C0
F380
FF80
EF00
E000
E000
E000
E000
ENDCHAR
STARTCHAR 03C2
ENCODING 962
SWIDTH 617 0
DWIDTH 12 0
BBX 8 15 2 -4
BITMAP
3E
7F
F1
E0
E0
C0
C0
E0
F0
7E
3F
03
03
07
06
ENDCHAR
STARTCHAR 03C3
ENCODING 963
SWIDTH 617 0
DWIDTH 12 0
BBX 10 11 1 0
BITMAP
3FC0
7FC0
FF00
E380
E180
E1C0
E1C0
E380
F380
7F00
3E00
ENDCHAR
STARTCHAR 03C4
ENCODING 964
SWIDTH 617 0
DWIDTH 12 0
BBX 9 11 1 0
BITMAP
FF80
FF80
1C00
1C00
1C00
1C00
1C00
1C00
0E00
0F00
0700
ENDCHAR
STARTCHAR 03C5
ENCODING 965
SWIDTH 617 0
DWIDTH 12 0
BBX 10 11 1 0
BITMAP
F380
F180
71C0
71C0
71C0
71C0
71C0
71C0
7380
3F80
1E00
ENDCHAR
STARTCHAR 03C6
ENCODING 966
SWIDTH 617 0
DWIDTH 12 0
BBX 10 15 1 -4
BITMAP
2700
6F80
EFC0
CDC0
DCC0
DCC0
DDC0
FDC0
FFC0
7F80
3F00
1C00
1C00
1C00
1C00
ENDCHAR
STARTCHAR 03C7
ENCODING 967
SWIDTH 617 0
DWIDTH 12 0
BBX 10 15 1 -4
BITMAP
C1C0
E380
7380
3700
3F00
1E00
1E00
1C00
1E00
3E00
3F00
3700
7380
63C0
E1C0
ENDCHAR
STARTCHAR 03C8
ENCODING 968
SWIDTH 617 0
DWIDTH 12 0
BBX 10 15 1 -4
BITMAP
DDC0
DDC0
DDC0
DDC0
DDC0
DDC0
DDC0
FDC0
FFC0
7F80
3F00
1C00
1C00
1C00
1C00
ENDCHAR
STARTCHAR 03C9
ENCODING 969
SWIDTH 617 0
DWIDTH 12 0
BBX 10 11 1 0
BITMAP
E180
E1C0
E1C0
C1C0
CDC0
CDC0
CDC0
DDC0
FDC0
FF80
7380
ENDCHAR
STARTCHAR 03CA
ENCODING 970
SWIDTH 617 0
DWIDTH 12 0
BBX 6 15 3 0
BITMAP
CC
CC
00
00
F0
F0
70
70
70
70
70
70
38
3C
1C
ENDCHAR
STARTCHAR 03CB
ENCODING 971
SWIDTH 617 0
DWIDTH 12 0
BBX 10 15 1 0
BITMAP
3300
3300
0000
0000
F380
F180
71C0
71C0
71C0
71C0
71C0
71C0
7380
3F80
1E00
ENDCHAR
STARTCHAR 03CC
ENCODING 972
SWIDTH 617 0
DWIDTH 12 0
BBX 10 17 1 0
BITMAP
0380
0700
0600
0C00
1800
0000
1E00
7F00
7380
E1C0
E1C0
E1C0
E1C0
E1C0
7380
7F00
1E00
ENDCHAR
STARTCHAR 03CD
ENCODING 973
SWIDTH 617 0
DWIDTH 12 0
BBX 10 16 1 0
BITMAP
0380
0700
0E00
1C00
0000
F380
F180
71C0
71C0
71C0
71C0
71C0
71C0
7380
3F80
1E00
ENDCHAR
STARTCHAR 03CE
ENCODING 974
SWIDTH 617 0
DWIDTH 12 0
BBX 10 16 1 0
BITMAP
0380
0600
0C00
1800
0000
E180
E1C0
E1C0
C1C0
CDC0
CDC0
CDC0
DDC0
FDC0
FF80
7380
ENDCHAR
STARTCHAR 03F4
ENCODING 1012
SWIDTH 617 0
DWIDTH 12 0
BBX 10 15 1 0
BITMAP
1E00
7F00
7380
E380
E1C0
E1C0
FFC0
FFC0
E1C0
E1C0
E1C0
E380
7380
7F00
1E00
ENDCHAR
STARTCHAR 0400
ENCODING 1024
SWIDTH 617 0
DWIDTH 12 0
BBX 8 18 2 0
BITMAP
70
30
18
00
FF
FF
C0
C0
C0
C0
FF
FF
C0
C0
C0
C0
FF
FF
ENDCHAR
STARTCHAR 0401
ENCODING 1025
SWIDTH 617 0
DWIDTH 12 0
BBX 8 18 2 0
BITMAP
66
66
00
00
FF
FF
C0
C0
C0
C0
FF
FF
C0
C0
C0
C0
FF
FF
ENDCHAR
STARTCHAR 0402
ENCODING 1026
SWIDTH 617 0
DWIDTH 12 0
BBX 11 19 0 -4
BITMAP
FF80
FF80
7000
7000
7000
7000
77C0
7FE0
78E0
70E0
70E0
70E0
70E0
70E0
70E0
00E0
00E0
07E0
07C0
ENDCHAR
STARTCHAR 0403
ENCODING 1027
SWIDTH 617 0
DWIDTH 12 0
BBX 9 18 2 0
BITMAP
0E00
0C00
1800
0000
FF80
FF80
E000
E000
E000
E000
E000
E000
E000
E000
E000
E000
E000
E000
ENDCHAR
STARTCHAR 0404
ENCODING 1028
SWIDTH 617 0
DWIDTH 12 0
BBX 9 14 1 0
BITMAP
1F80
3F80
7980
7080
E000
E000
FF80
FF80
E000
E000
7080
7980
3F80
1F80
ENDCHAR
STARTCHAR 0405
ENCODING 1029
SWIDTH 617 0
DWIDTH 12 0
BBX 10 14 1 0
BITMAP
3F00
7F80
F180
E080
E000
7800
7E00
1F80
0380
01C0
81C0
E380
FF80
7E00
ENDCHAR
STARTCHAR 0406
ENCODING 1030
SWIDTH 617 0
DWIDTH 12 0
BBX 8 14 2 0
BITMAP
FF
FF
38
38
38
38
38
38
38
38
38
38
FF
FF
ENDCHAR
STARTCHAR 0407
ENCODING 1031
SWIDTH 617 0
DWIDTH 12 0
BBX 8 18 2 0
BITMAP
66
66
00
00
FF
FF
38
38
38
38
38
38
38
38
38
38
FF
FF
ENDCHAR
STARTCHAR 0408
ENCODING 1032
SWIDTH 617 0
DWIDTH 12 0
BBX 9 14 1 0
BITMAP
3F80
3F80
0380
0380
0380
0380
0380
0380
0380
0380
8300
C700
FF00
7E00
ENDCHAR
STARTCHAR 0409
ENCODING 1033
SWIDTH 617 0
DWIDTH 12 0
BBX 12 14 0 0
BITMAP
3F00
3F00
3300
3300
3300
33C0
33E0
3360
3370
3370
3370
7360
E3E0
C3C0
ENDCHAR
STARTCHAR 040A
ENCODING 1034
SWIDTH 617 0
DWIDTH 12 0
BBX 12 14 0 0
BITMAP
E300
E300
E300
E300
E300
FFC0
FFE0
E360
E370
E370
E370
E360
E3E0
E3C0
ENDCHAR
STARTCHAR 040B
ENCODING 1035
SWIDTH 617 0
DWIDTH 12 0
BBX 11 15 0 0
BITMAP
FF80
FF80
7000
7000
7000
7000
77C0
7FE0
78E0
70E0
70E0
70E0
70E0
70E0
70E0
ENDCHAR
STARTCHAR 040C
ENCODING 1036
SWIDTH 617 0
DWIDTH 12 0
BBX 11 18 1 0
BITMAP
0300
0600
0C00
0000
E1C0
E380
E700
EF00
EE00
FC00
FC00
FE00
EF00
E700
E380
E380
E1C0
E1E0
ENDCHAR
STARTCHAR 040D
ENCODING 1037
SWIDTH 617 0
DWIDTH 12 0
BBX 10 18 1 0
BITMAP
3800
1800
0E00
0000
E3C0
E3C0
E3C0
E7C0
E7C0
EDC0
EDC0
EDC0
F9C0
F9C0
F9C0
F1C0
F1C0
E1C0
ENDCHAR
STARTCHAR 040E
ENCODING 1038
SWIDTH 617 0
DWIDTH 12 0
BBX 12 18 0 0
BITMAP
1080
1980
0F00
0000
F0F0
70E0
38E0
39C0
1DC0
1F80
0F80
0F00
0700
0700
0E00
1E00
3C00
3800
ENDCHAR
STARTCHAR 040F
ENCODING 1039
SWIDTH 617 0
DWIDTH 12 0
BBX 9 17 1 -3
BITMAP
E180
E180
E180
E180
E180
E180
E180
E180
E180
E180
E180
E180
FF80
FF80
0C00
0C00
0C00
ENDCHAR
STARTCHAR 0410
ENCODING 1040
SWIDTH 617 0
DWIDTH 12 0
BBX 11 14 0 0
BITMAP
0F00
0F00
1F00
1F80
1B80
1980
3980
39C0
3FC0
3FC0
70C0
70E0
60E0
E0E0
ENDCHAR
STARTCHAR 0411
ENCODING 1041
SWIDTH 617 0
DWIDTH 12 0
BBX 10 14 1 0
BITMAP
FF80
FF80
E000
E000
E000
FF00
FF80
E380
E1C0
E1C0
E1C0
E380
FF80
FF00
ENDCHAR
STARTCHAR 0412
ENCODING 1042
SWIDTH 617 0
DWIDTH 12 0
BBX 10 14 1 0
BITMAP
FF00
FF80
E380
E1C0
E380
FF80
FF00
E380
E1C0
E1C0
E1C0
E3C0
FF80
FF00
ENDCHAR
STARTCHAR 0413
ENCODING 1043
SWIDTH 617 0
DWIDTH 12 0
BBX 9 14 2 0
BITMAP
FF80
FF80
E000
E000
E000
E000
E000
E000
E000
E000
E000
E000
E000
E000
ENDCHAR
STARTCHAR 0414
ENCODING 1044
SWIDTH 617 0
DWIDTH 12 0
BBX 11 18 0 -4
BITMAP
3FC0
3FC0
39C0
39C0
39C0
39C0
39C0
39C0
39C0
39C0
39C0
39C0
FFE0
FFE0
E060
E060
E060
E060
ENDCHAR
STARTCHAR 0415
ENCODING 1045
SWIDTH 617 0
DWIDTH 12 0
BBX 8 14 2 0
BITMAP
FF
FF
C0
C0
C0
C0
FF
FF
C0
C0
C0
C0
FF
FF
ENDCHAR
STARTCHAR 0416
ENCODING 1046
SWIDTH 617 0
DWIDTH 12 0
BBX 12 14 0 0
BITMAP
E670
66E0
76E0
36C0
3FC0
3F80
3F80
3FC0
3FC0
7FC0
76E0
66E0
6660
E670
ENDCHAR
STARTCHAR 0417
ENCODING 1047
SWIDTH 617 0
DWIDTH 12 0
BBX 9 14 1 0
BITMAP
7E00
7F80
4380
0380
0380
1F00
1F00
0780
0180
0180
0180
C380
FF80
7E00
ENDCHAR
STARTCHAR 0418
ENCODING 1048
SWIDTH 617 0
DWIDTH 12 0
BBX 10 14 1 0
BITMAP
E3C0
E3C0
E3C0
E7C0
E7C0
EDC0
EDC0
EDC0
F9C0
F9C0
F9C0
F1C0
F1C0
E1C0
ENDCHAR
STARTCHAR 0419
ENCODING 1049
SWIDTH 617 0
DWIDTH 12 0
BBX 10 18 1 0
BITMAP
2100
3300
1E00
0000
E3C0
E3C0
E3C0
E7C0
E7C0
EDC0
EDC0
EDC0
F9C0
F9C0
F9C0
F1C0
F1C0
E1C0
ENDCHAR
STARTCHAR 041A
ENCODING 1050
SWIDTH 617 0
DWIDTH 12 0
BBX 11 14 1 0
BITMAP
E1C0
E380
E700
EF00
EE00
FC00
FC00
FE00
EF00
E700
E380
E380
E1C0
E1E0
ENDCHAR
STARTCHAR 041B
ENCODING 1051
SWIDTH 617 0
DWIDTH 12 0
BBX 11 14 0 0
BITMAP
3FE0
3FE0
38E0
38E0
38E0
38E0
38E0
38E0
38E0
38E0
38E0
78E0
F0E0
E0E0
ENDCHAR
STARTCHAR 041C
ENCODING 1052
SWIDTH 617 0
DWIDTH 12 0
BBX 10 14 1 0
BITMAP
E3C0
F3C0
F3C0
F3C0
D7C0
DFC0
DFC0
DDC0
CDC0
C1C0
C1C0
C1C0
C1C0
C1C0
ENDCHAR
STARTCHAR 041D
ENCODING 1053
SWIDTH 617 0
DWIDTH 12 0
BBX 9 14 1 0
BITMAP
E180
E180
E180
E180
E180
FF80
FF80
E180
E180
E180
E180
E180
E180
E180
ENDCHAR
STARTCHAR 041E
ENCODING 1054
SWIDTH 617 0
DWIDTH 12 0
BBX 10 14 1 0
BITMAP
1E00
7F00
7380
E380
E1C0
E1C0
E1C0
E1C0
E1C0
E1C0
E380
7380
7F00
1E00
ENDCHAR
STARTCHAR 041F
ENCODING 1055
SWIDTH 617 0
DWIDTH 12 0
BBX 9 14 1 0
BITMAP
FF80
FF80
E180
E180
E180
E180
E180
E180
E180
E180
E180
E180
E180
E180
ENDCHAR
STARTCHAR 0420
ENCODING 1056
SWIDTH 617 0
DWIDTH 12 0
BBX 9 14 2 0
BITMAP
FE00
FF00
C780
C380
C380
C380
FF00
FE00
C000
C000
C000
C000
C000
C000
ENDCHAR
STARTCHAR 0421
ENCODING 1057
SWIDTH 617 0
DWIDTH 12 0
BBX 9 14 1 0
BITMAP
0F80
3F80
7980
7080
7000
E000
E000
E000
E000
7000
7080
7880
3F80
0F80
ENDCHAR
STARTCHAR 0422
ENCODING 1058
SWIDTH 617 0
DWIDTH 12 0
BBX 10 14 1 0
BITMAP
FFC0
FFC0
1C00
1C00
1C00
1C00
1C00
1C00
1C00
1C00
1C00
1C00
1C00
1C00
ENDCHAR
STARTCHAR 0423
ENCODING 1059
SWIDTH 617 0
DWIDTH 12 0
BBX 12 14 0 0
BITMAP
F0F0
70E0
38E0
39C0
1DC0
1F80
0F80
0F00
0700
0700
0E00
1E00
3C00
3800
ENDCHAR
STARTCHAR 0424
ENCODING 1060
SWIDTH 617 0
DWIDTH 12 0
BBX 11 14 0 0
BITMAP
0600
1F80
3FC0
7FE0
66E0
E660
E660
E660
E660
66E0
7FC0
3FC0
1F00
0600
ENDCHAR
STARTCHAR 0425
ENCODING 1061
SWIDTH 617 0
DWIDTH 12 0
BBX 11 14 0 0
BITMAP
F0E0
70C0
39C0
3B80
1F80
0F00
0F00
0F00
1F00
1F80
3B80
39C0
70E0
E0E0
ENDCHAR
STARTCHAR 0426
ENCODING 1062
SWIDTH 617 0
DWIDTH 12 0
BBX 11 18 1 -4
BITMAP
E180
E180
E180
E180
E180
E180
E180
E180
E180
E180
E180
E180
FFE0
FFE0
00E0
00E0
00E0
00E0
ENDCHAR
STARTCHAR 0427
ENCODING 1063
SWIDTH 617 0
DWIDTH 12 0
BBX 10 15 1 0
BITMAP
E1C0
E1C0
E1C0
E1C0
E1C0
E1C0
FFC0
FFC0
7DC0
01C0
01C0
01C0
01C0
01C0
01C0
ENDCHAR
STARTCHAR 0428
ENCODING 1064
SWIDTH 617 0
DWIDTH 12 0
BBX 10 14 1 0
BITMAP
CCC0
CCC0
CCC0
CCC0
CCC0
CCC0
CCC0
CCC0
CCC0
CCC0
CCC0
CCC0
FFC0
FFC0
ENDCHAR
STARTCHAR 0429
ENCODING 1065
SWIDTH 617 0
DWIDTH 12 0
BBX 11 17 1 -3
BITMAP
CCC0
CCC0
CCC0
CCC0
CCC0
CCC0
CCC0
CCC0
CCC0
CCC0
CCC0
CCE0
FFE0
FFE0
00E0
00E0
00E0
ENDCHAR
STARTCHAR 042A
ENCODING 1066
SWIDTH 617 0
DWIDTH 12 0
BBX 11 14 0 0
BITMAP
F800
F800
1800
1800
1800
1F80
1FC0
19E0
18E0
18E0
18E0
19E0
1FC0
1F80
ENDCHAR
STARTCHAR 042B
ENCODING 1067
SWIDTH 617 0
DWIDTH 12 0
BBX 11 14 0 0
BITMAP
E060
E060
E060
E060
E060
FC60
FE60
E760
E760
E360
E760
E760
FE60
FC60
ENDCHAR
STARTCHAR 042C
ENCODING 1068
SWIDTH 617 0
DWIDTH 12 0
BBX 9 14 2 0
BITMAP
C000
C000
C000
C000
C000
FE00
FF00
C780
C380
C380
C380
C780
FF00
FE00
ENDCHAR
STARTCHAR 042D
ENCODING 1069
SWIDTH 617 0
DWIDTH 12 0
BBX 9 14 2 0
BITMAP
F800
FE00
8F00
8700
0700
0380
7F80
7F80
0380
0700
8700
8F00
FE00
F800
ENDCHAR
STARTCHAR 042E
ENCODING 1070
SWIDTH 617 0
DWIDTH 12 0
BBX 12 14 0 0
BITMAP
E3C0
E7E0
E6E0
EE60
EE70
FE70
FE70
EE70
EE70
EE60
EE60
E6E0
E7C0
E380
ENDCHAR
STARTCHAR 042F
ENCODING 1071
SWIDTH 617 0
DWIDTH 12 0
BBX 11 14 0 0
BITMAP
1FE0
3FE0
78E0
70E0
70E0
70E0
3FE0
1FE0
1CE0
1CE0
38E0
38E0
70E0
F0E0
ENDCHAR
STARTCHAR 0430
ENCODING 1072
SWIDTH 617 0
DWIDTH 12 0
BBX 10 11 1 0
BITMAP
3F00
7F80
6380
0180
7FC0
FFC0
E1C0
E180
E380
FFC0
3DC0
ENDCHAR
STARTCHAR 0431
ENCODING 1073
SWIDTH 617 0
DWIDTH 12 0
BBX 10 16 1 0
BITMAP
0100
3F80
7F80
F000
E000
DE00
FF80
F380
E1C0
E1C0
E1C0
E1C0
E1C0
7380
7F80
1E00
ENDCHAR
STARTCHAR 0432
ENCODING 1074
SWIDTH 617 0
DWIDTH 12 0
BBX 10 11 1 0
BITMAP
FF00
FF80
E380
E180
FF80
FF80
E3C0
E1C0
E3C0
FF80
FF00
ENDCHAR
STARTCHAR 0433
ENCODING 1075
SWIDTH 617 0
DWIDTH 12 0
BBX 8 11 2 0
BITMAP
FF
FF
E0
E0
E0
E0
E0
E0
E0
E0
E0
ENDCHAR
STARTCHAR 0434
ENCODING 1076
SWIDTH 617 0
DWIDTH 12 0
BBX 10 14 1 -3
BITMAP
7F80
7F80
7380
7380
7380
7380
7380
7380
7380
FFC0
FFC0
C0C0
C0C0
C0C0
ENDCHAR
STARTCHAR 0435
ENCODING 1077
SWIDTH 617 0
DWIDTH 12 0
BBX 10 11 1 0
BITMAP
1E00
7F80
7380
E1C0
FFC0
FFC0
E000
E000
F180
7F80
1F80
ENDCHAR
STARTCHAR 0436
ENCODING 1078
SWIDTH 617 0
DWIDTH 12 0
BBX 12 11 0 0
BITMAP
E670
76E0
36C0
3FC0
3F80
3FC0
3FC0
7EC0
66E0
6660
E670
ENDCHAR
STARTCHAR 0437
ENCODING 1079
SWIDTH 617 0
DWIDTH 12 0
BBX 8 11 2 0
BITMAP
FC
FF
87
07
3E
3E
07
03
87
FF
FC
ENDCHAR
STARTCHAR 0438
ENCODING 1080
SWIDTH 617 0
DWIDTH 12 0
BBX 9 11 1 0
BITMAP
E380
E380
E780
E780
ED80
ED80
F980
F980
F180
F180
E180
ENDCHAR
STARTCHAR 0439
ENCODING 1081
SWIDTH 617 0
DWIDTH 12 0
BBX 9 15 1 0
BITMAP
2100
3300
1E00
0000
E380
E380
E780
E780
ED80
ED80
F980
F980
F180
F180
E180
ENDCHAR
STARTCHAR 043A
ENCODING 1082
SWIDTH 617 0
DWIDTH 12 0
BBX 9 11 2 0
BITMAP
C780
CF00
CE00
DC00
F800
FC00
EE00
CE00
C700
C700
C380
ENDCHAR
STARTCHAR 043B
ENCODING 1083
SWIDTH 617 0
DWIDTH 12 0
BBX 10 11 0 0
BITMAP
3FC0
3FC0
38C0
38C0
38C0
38C0
38C0
38C0
38C0
F0C0
E0C0
ENDCHAR
STARTCHAR 043C
ENCODING 1084
SWIDTH 617 0
DWIDTH 12 0
BBX 10 11 1 0
BITMAP
E3C0
F3C0
F3C0
F2C0
F6C0
DEC0
DEC0
DCC0
CCC0
C0C0
C0C0
ENDCHAR
STARTCHAR 043D
ENCODING 1085
SWIDTH 617 0
DWIDTH 12 0
BBX 8 11 2 0
BITMAP
C7
C7
C7
C7
FF
FF
C7
C7
C7
C7
C7
ENDCHAR
STARTCHAR 043E
ENCODING 1086
SWIDTH 617 0
DWIDTH 12 0
BBX 10 11 1 0
BITMAP
1E00
7F00
7380
E1C0
E1C0
E1C0
E1C0
E1C0
7380
7F00
1E00
ENDCHAR
STARTCHAR 043F
ENCODING 1087
SWIDTH 617 0
DWIDTH 12 0
BBX 8 11 2 0
BITMAP
FF
FF
C7
C7
C7
C7
C7
C7
C7
C7
C7
ENDCHAR
STARTCHAR 0440
ENCODING 1088
SWIDTH 617 0
DWIDTH 12 0
BBX 10 15 1 -4
BITMAP
EF00
FF80
F380
F1C0
E1C0
E1C0
E1C0
F1C0
F380
FF80
EF00
E000
E000
E000
E000
ENDCHAR
STARTCHAR 0441
ENCODING 1089
SWIDTH 617 0
DWIDTH 12 0
BBX 9 11 1 0
BITMAP
1F00
3F80
7980
7000
E000
E000
E000
7000
7980
3F80
1F00
ENDCHAR
STARTCHAR 0442
ENCODING 1090
SWIDTH 617 0
DWIDTH 12 0
BBX 8 11 2 0
BITMAP
FF
FF
38
38
38
38
38
38
38
38
38
ENDCHAR
STARTCHAR 0443
ENCODING 1091
SWIDTH 617 0
DWIDTH 12 0
BBX 10 15 1 -4
BITMAP
E1C0
E1C0
6180
7380
7380
3300
3F00
1F00
1E00
1E00
0C00
1C00
1C00
F800
F000
ENDCHAR
STARTCHAR 0444
ENCODING 1092
SWIDTH 617 0
DWIDTH 12 0
BBX 10 19 1 -4
BITMAP
0C00
0C00
0C00
0C00
3E00
7F80
ED80
CDC0
CCC0
CCC0
CCC0
CDC0
ED80
7F80
3F00
0C00
0C00
0C00
0C00
ENDCHAR
STARTCHAR 0445
ENCODING 1093
SWIDTH 617 0
DWIDTH 12 0
BBX 10 11 1 0
BITMAP
E3C0
7380
3700
3F00
1E00
1C00
1E00
3F00
7300
7380
E1C0
ENDCHAR
STARTCHAR 0446
ENCODING 1094
SWIDTH 617 0
DWIDTH 12 0
BBX 10 14 2 -3
BITMAP
C700
C700
C700
C700
C700
C700
C700
C700
C700
FFC0
FFC0
01C0
01C0
01C0
ENDCHAR
STARTCHAR 0447
ENCODING 1095
SWIDTH 617 0
DWIDTH 12 0
BBX 9 11 1 0
BITMAP
E380
E380
E380
E380
F380
7F80
3F80
0380
0380
0380
0380
ENDCHAR
STARTCHAR 0448
ENCODING 1096
SWIDTH 617 0
DWIDTH 12 0
BBX 10 11 1 0
BITMAP
CCC0
CCC0
CCC0
CCC0
CCC0
CCC0
CCC0
CCC0
CCC0
FFC0
FFC0
ENDCHAR
STARTCHAR 0449
ENCODING 1097
SWIDTH 617 0
DWIDTH 12 0
BBX 11 14 1 -3
BITMAP
CCC0
CCC0
CCC0
CCC0
CCC0
CCC0
CCC0
CCC0
CCC0
FFE0
FFE0
0060
0060
0060
ENDCHAR
STARTCHAR 044A
ENCODING 1098
SWIDTH 617 0
DWIDTH 12 0
BBX 11 11 0 0
BITMAP
FC00
FC00
1C00
1C00
1F80
1FE0
1CE0
1CE0
1CE0
1FE0
1F80
ENDCHAR
STARTCHAR 044B
ENCODING 1099
SWIDTH 617 0
DWIDTH 12 0
BBX 11 11 0 0
BITMAP
E060
E060
E060
E060
FC60
FE60
EE60
E760
EE60
FE60
FC60
ENDCHAR
STARTCHAR 044C
ENCODING 1100
SWIDTH 617 0
DWIDTH 12 0
BBX 9 11 2 0
BITMAP
E000
E000
E000
E000
FE00
FF00
E380
E380
E380
FF00
FE00
ENDCHAR
STARTCHAR 044D
ENCODING 1101
SWIDTH 617 0
DWIDTH 12 0
BBX 8 11 2 0
BITMAP
FC
FE
8F
07
7F
7F
07
07
8F
FE
FC
ENDCHAR
STARTCHAR 044E
ENCODING 1102
SWIDTH 617 0
DWIDTH 12 0
BBX 10 11 1 0
BITMAP
C700
CF80
CDC0
DCC0
FCC0
FCC0
DCC0
DCC0
CDC0
CF80
C700
ENDCHAR
STARTCHAR 044F
ENCODING 1103
SWIDTH 617 0
DWIDTH 12 0
BBX 9 11 1 0
BITMAP
3F80
7F80
F380
E380
7380
7F80
3F80
3B80
7380
7380
E380
ENDCHAR
STARTCHAR 0450
ENCODING 1104
SWIDTH 617 0
DWIDTH 12 0
BBX 10 17 1 0
BITMAP
7000
3800
1800
0C00
0600
0000
1E00
7F80
7380
E1C0
FFC0
FFC0
E000
E000
F180
7F80
1F80
ENDCHAR
STARTCHAR 0451
ENCODING 1105
SWIDTH 617 0
DWIDTH 12 0
BBX 10 15 1 0
BITMAP
3300
3300
0000
0000
1E00
7F80
7380
E1C0
FFC0
FFC0
E000
E000
F180
7F80
1F80
ENDCHAR
STARTCHAR 0452
ENCODING 1106
SWIDTH 617 0
DWIDTH 12 0
BBX 11 19 0 -4
BITMAP
3800
3800
3800
3800
FF80
FF80
3800
3800
3FC0
3FE0
38E0
38E0
38E0
38E0
38E0
00E0
01C0
0780
0700
ENDCHAR
STARTCHAR 0453
ENCODING 1107
SWIDTH 617 0
DWIDTH 12 0
BBX 8 16 2 0
BITMAP
03
06
0C
18
00
FF
FF
E0
E0
E0
E0
E0
E0
E0
E0
E0
ENDCHAR
STARTCHAR 0454
ENCODING 1108
SWIDTH 617 0
DWIDTH 12 0
BBX 9 11 1 0
BITMAP
1F00
3F80
7980
6000
FE00
FE00
E000
7000
7980
3F80
1F00
ENDCHAR
STARTCHAR 0455
ENCODING 1109
SWIDTH 617 0
DWIDTH 12 0
BBX 8 11 2 0
BITMAP
7E
FE
E2
C0
F0
7E
0F
07
C7
FF
7E
ENDCHAR
STARTCHAR 0456
ENCODING 1110
SWIDTH 617 0
DWIDTH 12 0
BBX 9 16 2 0
BITMAP
3800
3800
3800
0000
0000
F800
F800
3800
3800
3800
3800
3800
3800
3800
3F80
1F80
ENDCHAR
STARTCHAR 0457
ENCODING 1111
SWIDTH 617 0
DWIDTH 12 0
BBX 9 15 2 0
BITMAP
EC00
EC00
0000
0000
F800
F800
3800
3800
3800
3800
3800
3800
3800
3F80
1F80
ENDCHAR
STARTCHAR 0458
ENCODING 1112
SWIDTH 617 0
DWIDTH 12 0
BBX 6 20 2 -4
BITMAP
0C
0C
0C
00
00
7C
7C
0C
0C
0C
0C
0C
0C
0C
0C
0C
1C
1C
FC
F8
ENDCHAR
STARTCHAR 0459
ENCODING 1113
SWIDTH 617 0
DWIDTH 12 0
BBX 12 11 0 0
BITMAP
3F00
3F00
3700
3700
37C0
37E0
3770
3770
7770
F7E0
E7C0
ENDCHAR
STARTCHAR 045A
ENCODING 1114
SWIDTH 617 0
DWIDTH 12 0
BBX 12 11 0 0
BITMAP
E700
E700
E700
E700
FFC0
FFE0
E770
E770
E770
E7E0
E7C0
ENDCHAR
STARTCHAR 045B
ENCODING 1115
SWIDTH 617 0
DWIDTH 12 0
BBX 11 15 0 0
BITMAP
3800
3800
3800
3800
FF80
FF80
3800
3800
3FC0
3FC0
39C0
38E0
38E0
38E0
38E0
ENDCHAR
STARTCHAR 045C
ENCODING 1116
SWIDTH 617 0
DWIDTH 12 0
BBX 9 16 2 0
BITMAP
0700
0E00
1C00
3800
0000
C780
CF00
CE00
DC00
F800
FC00
EE00
CE00
C700
C700
C380
ENDCHAR
STARTCHAR 045D
ENCODING 1117
SWIDTH 617 0
DWIDTH 12 0
BBX 9 16 1 0
BITMAP
7000
1800
1C00
0E00
0000
E380
E380
E780
E780
ED80
ED80
F980
F980
F180
F180
E180
ENDCHAR
STARTCHAR 045E
ENCODING 1118
SWIDTH 617 0
DWIDTH 12 0
BBX 10 19 1 -4
BITMAP
2100
3E00
0000
0000
E1C0
E1C0
6180
7380
7380
3300
3F00
1F00
1E00
1E00
0C00
1C00
1C00
F800
F000
ENDCHAR
STARTCHAR 045F
ENCODING 1119
SWIDTH 617 0
DWIDTH 12 0
BBX 8 13 2 -2
BITMAP
C7
C7
C7
C7
C7
C7
C7
C7
C7
FF
FF
18
18
ENDCHAR
STARTCHAR 0462
ENCODING 1122
SWIDTH 617 0
DWIDTH 12 0
BBX 11 14 0 0
BITMAP
1800
FF00
FF00
1800
1800
1F80
1FC0
19E0
18E0
18E0
18E0
19E0
1FC0
1F80
ENDCHAR
STARTCHAR 0463
ENCODING 1123
SWIDTH 617 0
DWIDTH 12 0
BBX 11 15 0 0
BITMAP
1800
1800
1800
1800
FF80
FF80
1800
1800
1F80
1FC0
18E0
18E0
18E0
1FC0
1F80
ENDCHAR
STARTCHAR 0472
ENCODING 1138
SWIDTH 617 0
DWIDTH 12 0
BBX 10 14 1 0
BITMAP
1E00
7F00
7380
E180
E1C0
FFC0
FFC0
E1C0
E1C0
E1C0
E380
7380
7F00
3E00
ENDCHAR
STARTCHAR 0473
ENCODING 1139
SWIDTH 617 0
DWIDTH 12 0
BBX 10 11 1 0
BITMAP
1E00
7F00
7380
E1C0
E1C0
FFC0
FFC0
E1C0
7380
7F00
1E00
ENDCHAR
STARTCHAR 0490
ENCODING 1168
SWIDTH 617 0
DWIDTH 12 0
BBX 9 17 2 0
BITMAP
0380
0380
0380
FF80
FF80
E000
E000
E000
E000
E000
E000
E000
E000
E000
E000
E000
E000
ENDCHAR
STARTCHAR 0491
ENCODING 1169
SWIDTH 617 0
DWIDTH 12 0
BBX 7 14 3 0
BITMAP
06
06
06
FE
FE
C0
C0
C0
C0
C0
C0
C0
C0
C0
ENDCHAR
STARTCHAR 0492
ENCODING 1170
SWIDTH 617 0
DWIDTH 12 0
BBX 10 14 1 0
BITMAP
7FC0
7FC0
7000
7000
7000
FF00
FF00
7000
7000
7000
7000
7000
7000
7000
ENDCHAR
STARTCHAR 0493
ENCODING 1171
SWIDTH 617 0
DWIDTH 12 0
BBX 8 11 2 0
BITMAP
7F
7F
70
70
70
FE
FE
70
70
70
70
ENDCHAR
STARTCHAR 0494
ENCODING 1172
SWIDTH 617 0
DWIDTH 12 0
BBX 9 18 2 -4
BITMAP
FF00
FF00
C000
C000
C000
FE00
FF00
C780
C380
C380
C380
C380
C380
C380
0380
0780
1F00
1E00
ENDCHAR
STARTCHAR 0495
ENCODING 1173
SWIDTH 617 0
DWIDTH 12 0
BBX 8 15 2 -4
BITMAP
FF
FF
E0
E0
E0
FE
FF
E7
E7
E7
E7
07
07
1F
1E
ENDCHAR
STARTCHAR 0496
ENCODING 1174
SWIDTH 617 0
DWIDTH 12 0
BBX 12 17 0 -3
BITMAP
E670
66E0
76C0
36C0
3FC0
1F80
3F80
3FC0
3FC0
7EC0
66E0
6670
6670
E670
0070
0070
0070
ENDCHAR
STARTCHAR 0497
ENCODING 1175
SWIDTH 617 0
DWIDTH 12 0
BBX 12 14 0 -3
BITMAP
E670
76E0
36C0
3FC0
3F80
3FC0
3FC0
7EC0
66E0
6670
E670
0030
0030
0030
ENDCHAR
STARTCHAR 0498
ENCODING 1176
SWIDTH 617 0
DWIDTH 12 0
BBX 9 18 1 -4
BITMAP
7E00
7F00
4780
0380
0380
0780
1E00
1F00
0380
0180
0180
C380
FF80
7E00
0C00
0400
2C00
3C00
ENDCHAR
STARTCHAR 0499
ENCODING 1177
SWIDTH 617 0
DWIDTH 12 0
BBX 9 15 1 -4
BITMAP
7E00
7F00
4780
0380
0780
1F00
1F00
0380
8380
FF80
7E00
0C00
0400
4C00
3C00
ENDCHAR
STARTCHAR 049A
ENCODING 1178
SWIDTH 617 0
DWIDTH 12 0
BBX 11 17 1 -3
BITMAP
E1C0
E380
E700
EF00
EE00
FC00
FE00
FE00
E700
E700
E380
E3E0
E1E0
E1E0
00E0
00E0
00E0
ENDCHAR
STARTCHAR 049B
ENCODING 1179
SWIDTH 617 0
DWIDTH 12 0
BBX 9 14 2 -3
BITMAP
C780
CF00
CE00
DC00
F800
FC00
EE00
CE00
C700
C780
C380
0180
0180
0180
ENDCHAR
STARTCHAR 04A2
ENCODING 1186
SWIDTH 617 0
DWIDTH 12 0
BBX 11 17 1 -3
BITMAP
E380
E380
E380
E380
E380
FF80
FF80
E380
E380
E380
E380
E3E0
E3E0
E3E0
00E0
00E0
00E0
ENDCHAR
STARTCHAR 04A3
ENCODING 1187
SWIDTH 617 0
DWIDTH 12 0
BBX 12 14 0 -3
BITMAP
E380
E380
E380
E380
FF80
FF80
E380
E380
E380
E3F0
E3F0
0070
0070
0070
ENDCHAR
STARTCHAR 04A4
ENCODING 1188
SWIDTH 617 0
DWIDTH 12 0
BBX 11 14 1 0
BITMAP
C7E0
C7E0
C600
C600
C600
FE00
FE00
C600
C600
C600
C600
C600
C600
C600
ENDCHAR
STARTCHAR 04A5
ENCODING 1189
SWIDTH 617 0
DWIDTH 12 0
BBX 11 11 1 0
BITMAP
C7E0
C7E0
C700
C700
FF00
FF00
C700
C700
C700
C700
C700
ENDCHAR
STARTCHAR 04AA
ENCODING 1194
SWIDTH 617 0
DWIDTH 12 0
BBX 9 18 1 -4
BITMAP
0F80
3F80
7980
7080
7000
E000
E000
E000
E000
7000
7000
7880
3F80
1F80
0200
0300
1300
1E00
ENDCHAR
STARTCHAR 04AB
ENCODING 1195
SWIDTH 617 0
DWIDTH 12 0
BBX 9 15 1 -4
BITMAP
1F00
3F80
7980
7000
6000
E000
E000
7000
7080
3F80
1F80
0600
0200
1600
1E00
ENDCHAR
STARTCHAR 04AC
ENCODING 1196
SWIDTH 617 0
DWIDTH 12 0
BBX 10 17 1 -3
BITMAP
FFC0
FFC0
1C00
1C00
1C00
1C00
1C00
1C00
1C00
1C00
1C00
1F80
1F80
1F80
0380
0380
0380
ENDCHAR
STARTCHAR 04AD
ENCODING 1197
SWIDTH 617 0
DWIDTH 12 0
BBX 8 14 2 -3
BITMAP
FF
FF
38
38
38
38
38
38
38
3F
3F
07
07
07
ENDCHAR
STARTCHAR 04AE
ENCODING 1198
SWIDTH 617 0
DWIDTH 12 0
BBX 12 14 0 0
BITMAP
E0F0
70E0
71C0
39C0
3B80
1F80
1F00
0F00
0E00
0E00
0E00
0E00
0E00
0E00
ENDCHAR
STARTCHAR 04AF
ENCODING 1199
SWIDTH 617 0
DWIDTH 12 0
BBX 10 15 1 -4
BITMAP
E1C0
E1C0
E380
7380
7300
3700
3F00
3E00
1E00
1E00
1C00
1C00
1C00
1C00
1C00
ENDCHAR
STARTCHAR 04B0
ENCODING 1200
SWIDTH 617 0
DWIDTH 12 0
BBX 12 14 0 0
BITMAP
E0F0
70E0
71C0
39C0
3B80
1F80
1F00
0F00
0E00
3FC0
3FC0
3E00
0E00
0E00
ENDCHAR
STARTCHAR 04B1
ENCODING 1201
SWIDTH 617 0
DWIDTH 12 0
BBX 10 15 1 -4
BITMAP
E1C0
E1C0
E380
7380
7300
3700
3F00
3E00
1E00
1E00
1C00
3F00
3F00
1C00
1C00
ENDCHAR
STARTCHAR 04B2
ENCODING 1202
SWIDTH 617 0
DWIDTH 12 0
BBX 11 17 0 -3
BITMAP
F0E0
70C0
39C0
1B80
1F80
0F00
0E00
0F00
1F00
1F80
39C0
31E0
70E0
E0E0
0060
0060
0060
ENDCHAR
STARTCHAR 04B3
ENCODING 1203
SWIDTH 617 0
DWIDTH 12 0
BBX 10 14 1 -3
BITMAP
E3C0
7380
3700
3F00
1E00
1C00
1E00
3F00
7300
73C0
E1C0
01C0
01C0
01C0
ENDCHAR
STARTCHAR 04BA
ENCODING 1210
SWIDTH 617 0
DWIDTH 12 0
BBX 10 15 1 0
BITMAP
E000
E000
E000
E000
E000
EF80
FF80
FBC0
E1C0
E1C0
E1C0
E1C0
E1C0
E1C0
E1C0
ENDCHAR
STARTCHAR 04BB
ENCODING 1211
SWIDTH 617 0
DWIDTH 12 0
BBX 8 15 2 0
BITMAP
C0
C0
C0
C0
DE
DF
E7
E7
C7
C7
C7
C7
C7
C7
C7
ENDCHAR
STARTCHAR 04C0
ENCODING 1216
SWIDTH 617 0
DWIDTH 12 0
BBX 8 14 2 0
BITMAP
FF
FF
38
38
38
38
38
38
38
38
38
38
FF
FF
ENDCHAR
STARTCHAR 04C1
ENCODING 1217
SWIDTH 617 0
DWIDTH 12 0
BBX 12 18 0 0
BITMAP
1080
1980
0F00
0000
E670
66E0
76E0
36C0
3FC0
3F80
3F80
3FC0
3FC0
7FC0
76E0
66E0
6660
E670
ENDCHAR
STARTCHAR 04C2
ENCODING 1218
SWIDTH 617 0
DWIDTH 12 0
BBX 12 15 0 0
BITMAP
1080
1980
0F00
0000
E670
76E0
36C0
3FC0
3F80
3FC0
3FC0
7EC0
66E0
6660
E670
ENDCHAR
STARTCHAR 04C3
ENCODING 1219
SWIDTH 617 0
DWIDTH 12 0
BBX 10 18 1 -4
BITMAP
E1C0
E380
E700
E700
EE00
FF00
FF80
FF80
F380
E180
E180
E180
E180
E180
0180
0380
0F80
0F00
ENDCHAR
STARTCHAR 04C4
ENCODING 1220
SWIDTH 617 0
DWIDTH 12 0
BBX 9 15 2 -4
BITMAP
C780
CF00
CE00
DC00
F800
FE00
FE00
C700
C700
C700
C700
0700
0F00
3E00
3C00
ENDCHAR
STARTCHAR 04C7
ENCODING 1223
SWIDTH 617 0
DWIDTH 12 0
BBX 9 18 1 -4
BITMAP
E180
E180
E180
E180
E180
FF80
FF80
E180
E180
E180
E180
E180
E180
E180
0180
0380
0F80
0F00
ENDCHAR
STARTCHAR 04C8
ENCODING 1224
SWIDTH 617 0
DWIDTH 12 0
BBX 8 15 2 -4
BITMAP
C7
C7
C7
C7
FF
FF
C7
C7
C7
C7
C7
07
07
1F
1E
ENDCHAR
STARTCHAR 04CB
ENCODING 1227
SWIDTH 617 0
DWIDTH 12 0
BBX 10 18 1 -3
BITMAP
E1C0
E1C0
E1C0
E1C0
E1C0
E1C0
E3C0
FFC0
7DC0
01C0
01C0
01C0
0FC0
0FC0
0FC0
0E00
0E00
0E00
ENDCHAR
STARTCHAR 04CC
ENCODING 1228
SWIDTH 617 0
DWIDTH 12 0
BBX 9 14 1 -3
BITMAP
E380
E380
E380
E380
F380
7F80
3F80
0380
0380
1F80
1F80
1C00
1C00
1C00
ENDCHAR
STARTCHAR 04CF
ENCODING 1231
SWIDTH 617 0
DWIDTH 12 0
BBX 2 15 4 0
BITMAP
C0
C0
C0
C0
C0
C0
C0
C0
C0
C0
C0
C0
C0
C0
C0
ENDCHAR
STARTCHAR 04D0
ENCODING 1232
SWIDTH 617 0
DWIDTH 12 0
BBX 11 18 0 0
BITMAP
1080
1980
0F00
0000
0F00
0F00
1F00
1F80
1B80
1980
3980
39C0
3FC0
3FC0
70C0
70E0
60E0
E0E0
ENDCHAR
STARTCHAR 04D1
ENCODING 1233
SWIDTH 617 0
DWIDTH 12 0
BBX 10 16 1 0
BITMAP
2100
2300
1E00
0000
0000
3F00
7F80
6380
0180
3FC0
FFC0
E1C0
E180
E380
FFC0
3DC0
ENDCHAR
STARTCHAR 04D2
ENCODING 1234
SWIDTH 617 0
DWIDTH 12 0
BBX 11 18 0 0
BITMAP
1980
1980
0000
0000
0F00
0F00
1F00
1F80
1B80
1980
3980
39C0
3FC0
3FC0
70C0
70E0
60E0
E0E0
ENDCHAR
STARTCHAR 04D3
ENCODING 1235
SWIDTH 617 0
DWIDTH 12 0
BBX 10 15 1 0
BITMAP
3300
3300
0000
0000
3F00
7F80
6380
0180
7FC0
FFC0
E1C0
E180
E380
FFC0
3DC0
ENDCHAR
STARTCHAR 04D4
ENCODING 1236
SWIDTH 617 0
DWIDTH 12 0
BBX 11 14 0 0
BITMAP
1FE0
1FE0
1B00
1B00
3B00
33E0
33E0
3300
7F00
7F00
6300
6300
E3E0
C3E0
ENDCHAR
STARTCHAR 04D5
ENCODING 1237
SWIDTH 617 0
DWIDTH 12 0
BBX 11 11 0 0
BITMAP
7BC0
7FE0
4E60
0660
3FE0
7FE0
E600
C600
EF20
7FE0
79E0
ENDCHAR
STARTCHAR 04D6
ENCODING 1238
SWIDTH 617 0
DWIDTH 12 0
BBX 8 18 2 0
BITMAP
42
66
3C
00
FF
FF
C0
C0
C0
C0
FF
FF
C0
C0
C0
C0
FF
FF
ENDCHAR
STARTCHAR 04D7
ENCODING 1239
SWIDTH 617 0
DWIDTH 12 0
BBX 10 16 1 0
BITMAP
2100
3300
1E00
0000
0000
1E00
7F80
7380
E1C0
FFC0
FFC0
E000
E000
F180
7F80
1F80
ENDCHAR
STARTCHAR 04D8
ENCODING 1240
SWIDTH 617 0
DWIDTH 12 0
BBX 10 14 1 0
BITMAP
3E00
3F00
2380
0180
01C0
01C0
FFC0
FFC0
E1C0
E1C0
E380
7380
7F00
1E00
ENDCHAR
STARTCHAR 04D9
ENCODING 1241
SWIDTH 617 0
DWIDTH 12 0
BBX 10 11 1 0
BITMAP
7E00
FF80
E380
01C0
01C0
FFC0
FFC0
E1C0
F380
7F80
3E00
ENDCHAR
STARTCHAR 04DA
ENCODING 1242
SWIDTH 617 0
DWIDTH 12 0
BBX 10 18 1 0
BITMAP
3300
3300
0000
0000
3E00
3F00
2380
0180
01C0
01C0
FFC0
FFC0
E1C0
E1C0
E380
7380
7F00
1E00
ENDCHAR
STARTCHAR 04DB
ENCODING 1243
SWIDTH 617 0
DWIDTH 12 0
BBX 10 15 1 0
BITMAP
3300
3300
0000
0000
7E00
FF80
E380
01C0
01C0
FFC0
FFC0
E1C0
F380
7F80
3E00
ENDCHAR
STARTCHAR 04DC
ENCODING 1244
SWIDTH 617 0
DWIDTH 12 0
BBX 12 18 0 0
BITMAP
1980
1980
0000
0000
E670
66E0
76E0
36C0
3FC0
3F80
3F80
3FC0
3FC0
7FC0
76E0
66E0
6660
E670
ENDCHAR
STARTCHAR 04DD
ENCODING 1245
SWIDTH 617 0
DWIDTH 12 0
BBX 12 15 0 0
BITMAP
1980
1980
0000
0000
E670
76E0
36C0
3FC0
3F80
3FC0
3FC0
7EC0
66E0
6660
E670
ENDCHAR
STARTCHAR 04DE
ENCODING 1246
SWIDTH 617 0
DWIDTH 12 0
BBX 9 18 1 0
BITMAP
3700
3700
0000
0000
7E00
7F80
4380
0380
0380
1F00
1F00
0780
0180
0180
0180
C380
FF80
7E00
ENDCHAR
STARTCHAR 04DF
ENCODING 1247
SWIDTH 617 0
DWIDTH 12 0
BBX 9 15 1 0
BITMAP
3700
3700
0000
0000
7E00
7F00
4380
0380
1F00
1F00
0380
0380
C380
FF80
7E00
ENDCHAR
STARTCHAR 04E0
ENCODING 1248
SWIDTH 617 0
DWIDTH 12 0
BBX 12 14 0 0
BITMAP
7FE0
7FE0
03C0
0780
0F00
1E00
1FC0
1FE0
00E0
00F0
E0F0
F1E0
7FE0
3F80
ENDCHAR
STARTCHAR 04E1
ENCODING 1249
SWIDTH 617 0
DWIDTH 12 0
BBX 10 15 1 -4
BITMAP
FF80
FF80
0780
0700
0E00
1C00
3800
3F00
3F80
03C0
03C0
03C0
C780
FF80
FE00
ENDCHAR
STARTCHAR 04E2
ENCODING 1250
SWIDTH 617 0
DWIDTH 12 0
BBX 10 18 1 0
BITMAP
3F00
3F00
0000
0000
E3C0
E3C0
E3C0
E7C0
E7C0
EDC0
EDC0
EDC0
F9C0
F9C0
F9C0
F1C0
F1C0
E1C0
ENDCHAR
STARTCHAR 04E3
ENCODING 1251
SWIDTH 617 0
DWIDTH 12 0
BBX 9 14 1 0
BITMAP
3F00
3F00
0000
E380
E380
E780
E780
ED80
ED80
F980
F980
F180
F180
E180
ENDCHAR
STARTCHAR 04E4
ENCODING 1252
SWIDTH 617 0
DWIDTH 12 0
BBX 10 18 1 0
BITMAP
3300
3300
0000
0000
E3C0
E3C0
E3C0
E7C0
E7C0
EDC0
EDC0
EDC0
F9C0
F9C0
F9C0
F1C0
F1C0
E1C0
ENDCHAR
STARTCHAR 04E5
ENCODING 1253
SWIDTH 617 0
DWIDTH 12 0
BBX 9 15 1 0
BITMAP
3300
3300
0000
0000
E380
E380
E780
E780
ED80
ED80
F980
F980
F180
F180
E180
ENDCHAR
STARTCHAR 04E6
ENCODING 1254
SWIDTH 617 0
DWIDTH 12 0
BBX 10 18 1 0
BITMAP
3300
3300
0000
0000
1E00
7F00
7380
E380
E1C0
E1C0
E1C0
E1C0
E1C0
E1C0
E380
7380
7F00
1E00
ENDCHAR
STARTCHAR 04E7
ENCODING 1255
SWIDTH 617 0
DWIDTH 12 0
BBX 10 15 1 0
BITMAP
3300
3300
0000
0000
1E00
7F00
7380
E1C0
E1C0
E1C0
E1C0
E1C0
7380
7F00
1E00
ENDCHAR
STARTCHAR 04E8
ENCODING 1256
SWIDTH 617 0
DWIDTH 12 0
BBX 10 14 1 0
BITMAP
1E00
7F00
7380
E180
E1C0
FFC0
FFC0
E1C0
E1C0
E1C0
E380
7380
7F00
1E00
ENDCHAR
STARTCHAR 04E9
ENCODING 1257
SWIDTH 617 0
DWIDTH 12 0
BBX 10 11 1 0
BITMAP
1E00
7F00
7380
E1C0
E1C0
FFC0
FFC0
E1C0
7380
7F00
1E00
ENDCHAR
STARTCHAR 04EA
ENCODING 1258
SWIDTH 617 0
DWIDTH 12 0
BBX 10 18 1 0
BITMAP
3300
3300
0000
0000
1E00
7F00
7380
E180
E1C0
FFC0
FFC0
E1C0
E1C0
E1C0
E380
7380
7F00
1E00
ENDCHAR
STARTCHAR 04EB
ENCODING 1259
SWIDTH 617 0
DWIDTH 12 0
BBX 10 15 1 0
BITMAP
3300
3300
0000
0000
1E00
7F00
7380
E1C0
E1C0
FFC0
FFC0
E1C0
7380
7F00
1E00
ENDCHAR
STARTCHAR 04EC
ENCODING 1260
SWIDTH 617 0
DWIDTH 12 0
BBX 9 18 2 0
BITMAP
EC00
EC00
0000
0000
F800
FE00
8E00
8700
0700
0700
FF00
FF80
0700
0700
8700
8E00
FE00
F800
ENDCHAR
STARTCHAR 04ED
ENCODING 1261
SWIDTH 617 0
DWIDTH 12 0
BBX 8 15 2 0
BITMAP
6E
6E
00
00
FC
FE
8F
07
7F
7F
07
07
8F
FE
FC
ENDCHAR
STARTCHAR 04EE
ENCODING 1262
SWIDTH 617 0
DWIDTH 12 0
BBX 11 18 0 0
BITMAP
1F80
1F80
0000
0000
E0E0
70E0
30C0
39C0
19C0
1F80
0F80
0F00
0700
0700
0E00
1E00
3C00
3800
ENDCHAR
STARTCHAR 04EF
ENCODING 1263
SWIDTH 617 0
DWIDTH 12 0
BBX 10 18 1 -4
BITMAP
3F00
3F00
0000
E1C0
E1C0
6380
7380
7380
3700
3F00
3E00
1E00
1E00
0C00
1C00
1C00
F800
F000
ENDCHAR
STARTCHAR 04F0
ENCODING 1264
SWIDTH 617 0
DWIDTH 12 0
BBX 11 18 0 0
BITMAP
1980
1980
0000
0000
E0E0
70E0
30C0
39C0
19C0
1F80
0F80
0F00
0700
0700
0E00
1E00
3C00
3800
ENDCHAR
STARTCHAR 04F1
ENCODING 1265
SWIDTH 617 0
DWIDTH 12 0
BBX 10 19 1 -4
BITMAP
3300
3300
0000
0000
E1C0
E1C0
6380
7380
7380
3700
3F00
3E00
1E00
1E00
0C00
1C00
1C00
F800
F000
ENDCHAR
STARTCHAR 04F2
ENCODING 1266
SWIDTH 617 0
DWIDTH 12 0
BBX 11 18 0 0
BITMAP
0EE0
1980
2200
0000
E0E0
70E0
30C0
39C0
19C0
1F80
0F80
0F00
0700
0700
0E00
1E00
3C00
3800
ENDCHAR
STARTCHAR 04F3
ENCODING 1267
SWIDTH 617 0
DWIDTH 12 0
BBX 10 20 1 -4
BITMAP
1D80
1B00
1300
3600
0000
E1C0
E1C0
6380
7380
7380
3700
3F00
3E00
1E00
1E00
0C00
1C00
1C00
F800
F000
ENDCHAR
STARTCHAR 04F4
ENCODING 1268
SWIDTH 617 0
DWIDTH 12 0
BBX 10 18 1 0
BITMAP
3300
3300
0000
E1C0
E1C0
E1C0
E1C0
E1C0
E1C0
FFC0
FFC0
7DC0
01C0
01C0
01C0
01C0
01C0
01C0
ENDCHAR
STARTCHAR 04F5
ENCODING 1269
SWIDTH 617 0
DWIDTH 12 0
BBX 9 15 1 0
BITMAP
3700
3700
0000
0000
E380
E380
E380
E380
F380
7F80
3F80
0380
0380
0380
0380
ENDCHAR
STARTCHAR 04F6
ENCODING 1270
SWIDTH 617 0
DWIDTH 12 0
BBX 9 17 2 -3
BITMAP
FF80
FF80
E000
E000
E000
E000
E000
E000
E000
E000
E000
F800
F800
F800
1800
1800
1800
ENDCHAR
STARTCHAR 04F7
ENCODING 1271
SWIDTH 617 0
DWIDTH 12 0
BBX 8 14 2 -3
BITMAP
FF
FF
E0
E0
E0
E0
E0
E0
E0
FC
FC
1C
1C
1C
ENDCHAR
STARTCHAR 04F8
ENCODING 1272
SWIDTH 617 0
DWIDTH 12 0
BBX 11 18 0 0
BITMAP
1980
1980
0000
0000
E060
E060
E060
E060
E060
FC60
FE60
E760
E760
E360
E760
E760
FE60
FC60
ENDCHAR
STARTCHAR 04F9
ENCODING 1273
SWIDTH 617 0
DWIDTH 12 0
BBX 11 15 0 0
BITMAP
1980
1980
0000
0000
E060
E060
E060
E060
FC60
FE60
EE60
E760
EE60
FE60
FC60
ENDCHAR
STARTCHAR 0510
ENCODING 1296
SWIDTH 617 0
DWIDTH 12 0
BBX 9 14 1 0
BITMAP
3F80
7F80
7180
6000
7000
3E00
3E00
7000
E000
E000
E000
F180
7F80
3F80
ENDCHAR
STARTCHAR 0511
ENCODING 1297
SWIDTH 617 0
DWIDTH 12 0
BBX 9 11 1 0
BITMAP
3F00
7F80
7180
6000
3E00
3E00
7000
E000
F080
7F80
3F80
ENDCHAR
STARTCHAR 051A
ENCODING 1306
SWIDTH 617 0
DWIDTH 12 0
BBX 11 17 1 -3
BITMAP
1E00
7F00
7380
E380
E1C0
E1C0
E1C0
E1C0
E1C0
E1C0
E380
7380
7F00
1F00
0380
0380
01E0
ENDCHAR
STARTCHAR 051B
ENCODING 1307
SWIDTH 617 0
DWIDTH 12 0
BBX 9 15 1 -4
BITMAP
3980
7D80
F780
E380
E380
E380
E380
E380
F780
7F80
3B80
0380
0380
0380
0380
ENDCHAR
STARTCHAR 051C
ENCODING 1308
SWIDTH 617 0
DWIDTH 12 0
BBX 12 14 0 0
BITMAP
E070
E070
E060
E660
6E60
6F60
6F60
6F60
6B60
69E0
79C0
79C0
39C0
31C0
ENDCHAR
STARTCHAR 051D
ENCODING 1309
SWIDTH 617 0
DWIDTH 12 0
BBX 12 11 0 0
BITMAP
C070
E060
E060
6660
6E60
6F60
6FE0
6BC0
79C0
39C0
39C0
ENDCHAR
STARTCHAR 0531
ENCODING 1329
SWIDTH 617 0
DWIDTH 12 0
BBX 10 14 1 0
BITMAP
C180
C180
C180
C180
C180
C180
C180
C180
C180
C580
EF80
FF80
7FC0
3F80
ENDCHAR
STARTCHAR 0532
ENCODING 1330
SWIDTH 617 0
DWIDTH 12 0
BBX 10 14 1 0
BITMAP
3E00
7F80
F380
E180
E1C0
E1C0
E000
FFC0
FFC0
FFC0
E000
E000
E000
E000
ENDCHAR
STARTCHAR 0533
ENCODING 1331
SWIDTH 617 0
DWIDTH 12 0
BBX 11 14 0 0
BITMAP
3F00
7F80
73C0
E1C0
E1C0
E1C0
E1C0
79E0
7FE0
3FE0
01C0
01C0
01C0
01C0
ENDCHAR
STARTCHAR 0534
ENCODING 1332
SWIDTH 617 0
DWIDTH 12 0
BBX 11 14 0 0
BITMAP
3F00
7F80
73C0
E1C0
E1C0
E1C0
01C0
01C0
01E0
01E0
01C0
01C0
01C0
01C0
ENDCHAR
STARTCHAR 0535
ENCODING 1333
SWIDTH 617 0
DWIDTH 12 0
BBX 10 14 1 0
BITMAP
E000
E000
E000
FFC0
FFC0
E000
E000
E000
E1C0
E1C0
E380
FF80
7F80
3E00
ENDCHAR
STARTCHAR 0536
ENCODING 1334
SWIDTH 617 0
DWIDTH 12 0
BBX 10 14 1 0
BITMAP
3E00
7F80
F380
E1C0
E1C0
E1C0
01C0
01C0
0180
0380
0700
EE00
FF80
FF80
ENDCHAR
STARTCHAR 0537
ENCODING 1335
SWIDTH 617 0
DWIDTH 12 0
BBX 10 14 1 0
BITMAP
E000
E000
E000
FFC0
FFC0
E000
E000
E000
E000
E000
E000
FF00
FF00
FF00
ENDCHAR
STARTCHAR 0538
ENCODING 1336
SWIDTH 617 0
DWIDTH 12 0
BBX 10 14 1 0
BITMAP
3E00
7F80
F380
E180
E1C0
E1C0
E000
E000
E000
E000
E000
E000
FFC0
FFC0
ENDCHAR
STARTCHAR 0539
ENCODING 1337
SWIDTH 617 0
DWIDTH 12 0
BBX 11 14 0 0
BITMAP
1F00
7FC0
71C0
60C0
E0C0
E7E0
EFE0
ECC0
ECC0
ECC0
ECC0
EEC0
EFC0
E780
ENDCHAR
STARTCHAR 053A
ENCODING 1338
SWIDTH 617 0
DWIDTH 12 0
BBX 11 14 0 0
BITMAP
01C0
01C0
01C0
1FE0
7FE0
71C0
61C0
E1C0
E1C0
E1C0
F1C0
7F80
7F80
1F00
ENDCHAR
STARTCHAR 053B
ENCODING 1339
SWIDTH 617 0
DWIDTH 12 0
BBX 10 14 1 0
BITMAP
E000
E000
E000
FE00
FF80
F380
E1C0
E1C0
E1C0
E000
E000
E000
E000
E000
ENDCHAR
STARTCHAR 053C
ENCODING 1340
SWIDTH 617 0
DWIDTH 12 0
BBX 9 14 1 0
BITMAP
E000
E000
E000
E000
E000
E000
E000
E000
E000
E000
E000
E000
FF80
FF80
ENDCHAR
STARTCHAR 053D
ENCODING 1341
SWIDTH 617 0
DWIDTH 12 0
BBX 10 14 1 0
BITMAP
C000
C000
C000
FCC0
FCC0
DCC0
DCC0
DCC0
DCC0
DCC0
DCC0
CDC0
CFC0
C780
ENDCHAR
STARTCHAR 053E
ENCODING 1342
SWIDTH 617 0
DWIDTH 12 0
BBX 11 14 0 0
BITMAP
E3E0
EFE0
FE20
FF80
71C0
70E0
70E0
70E0
70E0
70E0
70E0
79E0
3FC0
1F80
ENDCHAR
STARTCHAR 053F
ENCODING 1343
SWIDTH 617 0
DWIDTH 12 0
BBX 10 14 1 0
BITMAP
E000
E000
E000
E1C0
E1C0
E1C0
E1C0
E3C0
7FC0
7FC0
0DC0
01C0
01C0
01C0
ENDCHAR
STARTCHAR 0540
ENCODING 1344
SWIDTH 617 0
DWIDTH 12 0
BBX 10 15 1 -1
BITMAP
0700
0780
0380
03C0
0F80
1E00
7C00
F000
E000
F000
FC00
7F80
0FC0
03C0
0040
ENDCHAR
STARTCHAR 0541
ENCODING 1345
SWIDTH 617 0
DWIDTH 12 0
BBX 10 14 1 0
BITMAP
3E00
7F80
F380
E1C0
E1C0
C1C0
01C0
01C0
7980
FF80
EF80
EF80
FFC0
7D80
ENDCHAR
STARTCHAR 0542
ENCODING 1346
SWIDTH 617 0
DWIDTH 12 0
BBX 11 14 0 0
BITMAP
3F00
7F80
73C0
E1C0
E1C0
E1C0
01C0
01C0
01C0
01C0
01C0
01C0
01E0
01E0
ENDCHAR
STARTCHAR 0543
ENCODING 1347
SWIDTH 617 0
DWIDTH 12 0
BBX 10 14 1 0
BITMAP
E0C0
73C0
7780
3E00
3C00
3C00
3E00
7E00
7700
E780
E380
FFC0
FFC0
7FC0
ENDCHAR
STARTCHAR 0544
ENCODING 1348
SWIDTH 617 0
DWIDTH 12 0
BBX 11 14 0 0
BITMAP
E1E0
E1E0
E1E0
E1C0
E1C0
E1C0
E1C0
E1C0
E1C0
E1C0
E1C0
7FC0
7F80
3F00
ENDCHAR
STARTCHAR 0545
ENCODING 1349
SWIDTH 617 0
DWIDTH 12 0
BBX 11 14 0 0
BITMAP
0F80
3FC0
39E0
38E0
00E0
FFC0
FFC0
03E0
00E0
00E0
70E0
39E0
3FC0
0F80
ENDCHAR
STARTCHAR 0546
ENCODING 1350
SWIDTH 617 0
DWIDTH 12 0
BBX 11 14 0 0
BITMAP
F800
F800
F800
3800
3800
3800
3800
3800
3860
3860
38E0
3FE0
1FC0
0F80
ENDCHAR
STARTCHAR 0547
ENCODING 1351
SWIDTH 617 0
DWIDTH 12 0
BBX 10 14 1 0
BITMAP
F000
FE00
3F80
3F80
7180
E000
E000
E000
E1C0
E1C0
E1C0
F380
7F80
3E00
ENDCHAR
STARTCHAR 0548
ENCODING 1352
SWIDTH 617 0
DWIDTH 12 0
BBX 10 14 1 0
BITMAP
3E00
7F80
F380
E1C0
E1C0
E1C0
E1C0
E1C0
E1C0
E1C0
E1C0
E1C0
E1C0
E1C0
ENDCHAR
STARTCHAR 0549
ENCODING 1353
SWIDTH 617 0
DWIDTH 12 0
BBX 10 15 1 -1
BITMAP
3E00
7F80
F380
E1C0
E1C0
E1C0
01C0
01C0
0180
4380
7F00
7E00
3F00
0700
0100
ENDCHAR
STARTCHAR 054A
ENCODING 1354
SWIDTH 617 0
DWIDTH 12 0
BBX 10 14 1 0
BITMAP
3F00
7F80
EDC0
CCC0
CCC0
CCC0
CCC0
0CC0
0CC0
0CC0
00C0
00C0
00C0
00C0
ENDCHAR
STARTCHAR 054B
ENCODING 1355
SWIDTH 617 0
DWIDTH 12 0
BBX 10 14 1 0
BITMAP
3E00
7F80
F380
E1C0
C1C0
E1C0
F9C0
FDC0
0D80
0780
0700
EE00
FF80
FF80
ENDCHAR
STARTCHAR 054C
ENCODING 1356
SWIDTH 617 0
DWIDTH 12 0
BBX 11 14 0 0
BITMAP
3F00
7F80
73C0
E1C0
E1C0
E1C0
E1C0
E1C0
E1E0
E1E0
E1C0
E1C0
E1C0
E1C0
ENDCHAR
STARTCHAR 054D
ENCODING 1357
SWIDTH 617 0
DWIDTH 12 0
BBX 10 14 1 0
BITMAP
E1C0
E1C0
E1C0
E1C0
E1C0
E1C0
E1C0
E1C0
E1C0
E1C0
E1C0
FF80
7F80
3E00
ENDCHAR
STARTCHAR 054E
ENCODING 1358
SWIDTH 617 0
DWIDTH 12 0
BBX 11 14 0 0
BITMAP
01C0
01C0
01C0
01C0
E1C0
E1C0
E1C0
71C0
7FC0
3FC0
0DC0
01C0
01E0
01E0
ENDCHAR
STARTCHAR 054F
ENCODING 1359
SWIDTH 617 0
DWIDTH 12 0
BBX 10 14 1 0
BITMAP
3E00
7F80
7380
E1C0
E000
7800
3F00
1F80
0380
01C0
E1C0
F380
7F80
3E00
ENDCHAR
STARTCHAR 0550
ENCODING 1360
SWIDTH 617 0
DWIDTH 12 0
BBX 10 14 1 0
BITMAP
3F00
7F80
F380
E1C0
E1C0
E1C0
E000
E000
E000
E000
E000
E000
E000
E000
ENDCHAR
STARTCHAR 0551
ENCODING 1361
SWIDTH 617 0
DWIDTH 12 0
BBX 11 14 0 0
BITMAP
0F80
3FC0
39E0
38E0
38E0
FFC0
FFC0
03E0
00E0
00E0
70E0
39E0
3FC0
0F80
ENDCHAR
STARTCHAR 0552
ENCODING 1362
SWIDTH 617 0
DWIDTH 12 0
BBX 10 14 1 0
BITMAP
E000
E000
E000
FFC0
FFC0
E000
E000
E000
E000
E000
E000
E000
E000
E000
ENDCHAR
STARTCHAR 0553
ENCODING 1363
SWIDTH 617 0
DWIDTH 12 0
BBX 11 14 0 0
BITMAP
0600
3F80
7FC0
66E0
E660
E660
E660
E660
E660
6660
66E0
7FC0
3F80
0600
ENDCHAR
STARTCHAR 0554
ENCODING 1364
SWIDTH 617 0
DWIDTH 12 0
BBX 11 14 0 0
BITMAP
0F80
1FC0
38E0
38E0
38E0
38E0
3FE0
3FC0
3800
3800
FFE0
FFE0
3800
3800
ENDCHAR
STARTCHAR 0555
ENCODING 1365
SWIDTH 617 0
DWIDTH 12 0
BBX 10 14 1 0
BITMAP
1E00
7F00
7380
E380
E1C0
E1C0
E1C0
E1C0
E1C0
E1C0
E380
7380
7F00
1E00
ENDCHAR
STARTCHAR 0556
ENCODING 1366
SWIDTH 617 0
DWIDTH 12 0
BBX 11 14 0 0
BITMAP
3E00
7E00
7600
7F80
7FE0
3FE0
0660
0660
0660
E660
E660
66E0
7FC0
1F80
ENDCHAR
STARTCHAR 0559
ENCODING 1369
SWIDTH 617 0
DWIDTH 12 0
BBX 2 5 5 9
BITMAP
40
C0
80
C0
40
ENDCHAR
STARTCHAR 055A
ENCODING 1370
SWIDTH 617 0
DWIDTH 12 0
BBX 4 6 4 8
BITMAP
70
70
70
60
E0
C0
ENDCHAR
STARTCHAR 055B
ENCODING 1371
SWIDTH 617 0
DWIDTH 12 0
BBX 6 4 3 12
BITMAP
3C
78
70
E0
ENDCHAR
STARTCHAR 055C
ENCODING 1372
SWIDTH 617 0
DWIDTH 12 0
BBX 9 6 1 12
BITMAP
0180
0380
1F80
7F00
7C00
E000
ENDCHAR
STARTCHAR 055D
ENCODING 1373
SWIDTH 617 0
DWIDTH 12 0
BBX 6 4 3 12
BITMAP
F0
70
38
1C
ENDCHAR
STARTCHAR 055E
ENCODING 1374
SWIDTH 617 0
DWIDTH 12 0
BBX 10 6 1 12
BITMAP
1F80
7FC0
61C0
CDC0
CFC0
0780
ENDCHAR
STARTCHAR 055F
ENCODING 1375
SWIDTH 617 0
DWIDTH 12 0
BBX 8 3 2 12
BITMAP
80
80
FF
ENDCHAR
STARTCHAR 0561
ENCODING 1377
SWIDTH 617 0
DWIDTH 12 0
BBX 10 11 1 0
BITMAP
CCC0
CCC0
CCC0
CCC0
CCC0
CCC0
CCC0
CCC0
CCC0
FFC0
76C0
ENDCHAR
STARTCHAR 0562
ENCODING 1378
SWIDTH 617 0
DWIDTH 12 0
BBX 9 15 1 -4
BITMAP
EF00
FF00
F380
E380
E380
E380
E380
E000
E000
FF80
FF80
E000
E000
E000
E000
ENDCHAR
STARTCHAR 0563
ENCODING 1379
SWIDTH 617 0
DWIDTH 12 0
BBX 10 15 1 -4
BITMAP
3B80
7F80
E780
E380
C380
C380
C380
E380
F780
7FC0
3BC0
0380
0380
0380
0380
ENDCHAR
STARTCHAR 0564
ENCODING 1380
SWIDTH 617 0
DWIDTH 12 0
BBX 10 15 1 -4
BITMAP
EE00
FF00
E700
E380
E380
E380
E380
E380
E380
E3C0
E3C0
0380
0380
0380
0380
ENDCHAR
STARTCHAR 0565
ENCODING 1381
SWIDTH 617 0
DWIDTH 12 0
BBX 9 15 1 0
BITMAP
E000
E000
E000
E000
FF80
FF80
E000
E000
E380
E380
E380
E380
E380
7F80
3B80
ENDCHAR
STARTCHAR 0566
ENCODING 1382
SWIDTH 617 0
DWIDTH 12 0
BBX 10 15 1 -4
BITMAP
3B80
7F80
E780
E380
C380
C380
C380
E380
F780
7F80
3B80
0380
0380
03C0
03C0
ENDCHAR
STARTCHAR 0567
ENCODING 1383
SWIDTH 617 0
DWIDTH 12 0
BBX 8 15 2 0
BITMAP
C0
C0
C0
C0
FF
FF
C0
C0
C0
C0
C0
C0
C0
FE
FE
ENDCHAR
STARTCHAR 0568
ENCODING 1384
SWIDTH 617 0
DWIDTH 12 0
BBX 9 15 1 -4
BITMAP
EF00
FF00
F380
E380
E380
E380
E380
E380
E380
E380
E380
E000
E000
FF80
FF80
ENDCHAR
STARTCHAR 0569
ENCODING 1385
SWIDTH 617 0
DWIDTH 12 0
BBX 10 15 1 -4
BITMAP
DE00
FF00
F780
E380
C180
C1C0
CFC0
D980
D180
DB80
CF00
C000
C000
C000
C000
ENDCHAR
STARTCHAR 056A
ENCODING 1386
SWIDTH 617 0
DWIDTH 12 0
BBX 10 15 1 0
BITMAP
0380
0380
0380
0380
3FC0
7FC0
E380
E380
C380
C380
C380
E380
E700
7F00
3E00
ENDCHAR
STARTCHAR 056B
ENCODING 1387
SWIDTH 617 0
DWIDTH 12 0
BBX 8 19 2 -4
BITMAP
C0
C0
C0
C0
DE
FF
E7
E7
C7
C7
C7
C7
C7
C7
C7
C0
C0
C0
C0
ENDCHAR
STARTCHAR 056C
ENCODING 1388
SWIDTH 617 0
DWIDTH 12 0
BBX 6 15 3 -4
BITMAP
E0
E0
E0
E0
E0
E0
E0
E0
E0
E0
E0
E0
E0
FC
FC
ENDCHAR
STARTCHAR 056D
ENCODING 1389
SWIDTH 617 0
DWIDTH 12 0
BBX 10 19 1 -4
BITMAP
C000
C000
C000
C000
F8C0
FCC0
DCC0
CCC0
CCC0
CCC0
CCC0
CCC0
CDC0
CFC0
C6C0
C000
C000
C000
C000
ENDCHAR
STARTCHAR 056E
ENCODING 1390
SWIDTH 617 0
DWIDTH 12 0
BBX 10 15 1 0
BITMAP
1000
3800
7000
7C00
1FC0
7FC0
7380
E180
E1C0
E1C0
E1C0
E1C0
7380
7F00
1E00
ENDCHAR
STARTCHAR 056F
ENCODING 1391
SWIDTH 617 0
DWIDTH 12 0
BBX 8 19 2 -4
BITMAP
C0
C0
C0
C0
C7
C7
C7
C7
C7
C7
C7
C7
E7
FF
77
07
07
07
07
ENDCHAR
STARTCHAR 0570
ENCODING 1392
SWIDTH 617 0
DWIDTH 12 0
BBX 8 15 2 0
BITMAP
C0
C0
C0
C0
DE
DF
E7
E7
C7
C7
C7
C7
C7
C7
C7
ENDCHAR
STARTCHAR 0571
ENCODING 1393
SWIDTH 617 0
DWIDTH 12 0
BBX 9 15 1 0
BITMAP
3800
3000
3A00
3E00
1C00
3F00
3300
7380
7380
6380
E380
E380
7380
7F80
3F80
ENDCHAR
STARTCHAR 0572
ENCODING 1394
SWIDTH 617 0
DWIDTH 12 0
BBX 10 15 1 -4
BITMAP
EE00
FF00
E700
E380
E380
E380
E380
E380
E380
E380
E380
0380
0380
03C0
03C0
ENDCHAR
STARTCHAR 0573
ENCODING 1395
SWIDTH 617 0
DWIDTH 12 0
BBX 9 14 1 0
BITMAP
0780
0F80
1C00
FC00
FF00
7780
7380
7180
6180
6180
7380
7380
7D80
3D80
ENDCHAR
STARTCHAR 0574
ENCODING 1396
SWIDTH 617 0
DWIDTH 12 0
BBX 9 15 2 0
BITMAP
0780
0780
0700
0700
C700
C700
C700
C700
C700
C700
C700
C700
E700
FF00
7700
ENDCHAR
STARTCHAR 0575
ENCODING 1397
SWIDTH 617 0
DWIDTH 12 0
BBX 6 15 3 -4
BITMAP
1C
1C
1C
1C
1C
1C
1C
1C
1C
1C
1C
1C
1C
FC
F8
ENDCHAR
STARTCHAR 0576
ENCODING 1398
SWIDTH 617 0
DWIDTH 12 0
BBX 10 15 1 0
BITMAP
F000
F000
7000
7000
71C0
71C0
71C0
71C0
71C0
71C0
71C0
71C0
73C0
3FC0
3DC0
ENDCHAR
STARTCHAR 0577
ENCODING 1399
SWIDTH 617 0
DWIDTH 12 0
BBX 8 15 2 -4
BITMAP
3C
FE
EF
47
07
07
06
0E
1C
38
70
E0
C0
FF
FF
ENDCHAR
STARTCHAR 0578
ENCODING 1400
SWIDTH 617 0
DWIDTH 12 0
BBX 8 11 2 0
BITMAP
DE
FF
E7
C7
C7
C7
C7
C7
C7
C7
C7
ENDCHAR
STARTCHAR 0579
ENCODING 1401
SWIDTH 617 0
DWIDTH 12 0
BBX 8 16 2 -4
BITMAP
10
38
38
70
72
3E
0E
1C
38
30
70
60
E0
E0
FF
7F
ENDCHAR
STARTCHAR 057A
ENCODING 1402
SWIDTH 617 0
DWIDTH 12 0
BBX 10 15 1 -4
BITMAP
CCC0
CCC0
CCC0
CCC0
CCC0
CCC0
CCC0
CCC0
CDC0
FFC0
76C0
00C0
00C0
00C0
00C0
ENDCHAR
STARTCHAR 057B
ENCODING 1403
SWIDTH 617 0
DWIDTH 12 0
BBX 9 15 1 -4
BITMAP
1E00
7F80
7380
E180
E180
7380
3380
1F00
1E00
1C00
3800
7000
7000
7F80
7F80
ENDCHAR
STARTCHAR 057C
ENCODING 1404
SWIDTH 617 0
DWIDTH 12 0
BBX 10 11 1 0
BITMAP
EE00
FF00
F380
E380
E380
E380
E380
E300
E600
E7C0
E7C0
ENDCHAR
STARTCHAR 057D
ENCODING 1405
SWIDTH 617 0
DWIDTH 12 0
BBX 8 11 2 0
BITMAP
C7
C7
C7
C7
C7
C7
C7
C7
E7
FF
73
ENDCHAR
STARTCHAR 057E
ENCODING 1406
SWIDTH 617 0
DWIDTH 12 0
BBX 10 19 1 -4
BITMAP
0300
0300
0300
0300
E300
E300
E300
E300
E300
E300
E300
E300
E700
FF00
7B00
0300
0300
03C0
03C0
ENDCHAR
STARTCHAR 057F
ENCODING 1407
SWIDTH 617 0
DWIDTH 12 0
BBX 10 11 1 0
BITMAP
CF80
CFC0
CCC0
CCC0
CCC0
CCC0
CCC0
CCC0
CCC0
FCC0
6CC0
ENDCHAR
STARTCHAR 0580
ENCODING 1408
SWIDTH 617 0
DWIDTH 12 0
BBX 8 15 2 -4
BITMAP
DE
FF
E7
C7
C7
C7
C7
C7
C7
C7
C7
C0
C0
C0
C0
ENDCHAR
STARTCHAR 0581
ENCODING 1409
SWIDTH 617 0
DWIDTH 12 0
BBX 10 15 1 -4
BITMAP
3DC0
7FC0
73C0
E3C0
E1C0
E1C0
E1C0
E3C0
73C0
7FC0
3DC0
0180
6380
7F80
7E00
ENDCHAR
STARTCHAR 0582
ENCODING 1410
SWIDTH 617 0
DWIDTH 12 0
BBX 8 11 2 0
BITMAP
E0
E0
E0
E0
E0
E0
E0
E0
E0
FF
FF
ENDCHAR
STARTCHAR 0583
ENCODING 1411
SWIDTH 617 0
DWIDTH 12 0
BBX 10 19 1 -4
BITMAP
0C00
0C00
0C00
0C00
CF80
CFC0
CCC0
CCC0
CCC0
CCC0
CCC0
CCC0
CCC0
FCC0
6CC0
0C00
0C00
0C00
0C00
ENDCHAR
STARTCHAR 0584
ENCODING 1412
SWIDTH 617 0
DWIDTH 12 0
BBX 10 15 1 -4
BITMAP
6F00
6F80
73C0
71C0
61C0
61C0
71C0
71C0
7BC0
6F80
6700
6000
FFC0
FFC0
6000
ENDCHAR
STARTCHAR 0585
ENCODING 1413
SWIDTH 617 0
DWIDTH 12 0
BBX 10 11 1 0
BITMAP
1E00
7F00
7380
E1C0
E1C0
E1C0
E1C0
E1C0
7380
7F00
1E00
ENDCHAR
STARTCHAR 0586
ENCODING 1414
SWIDTH 617 0
DWIDTH 12 0
BBX 11 19 0 -4
BITMAP
1E00
3E00
6600
6600
7F80
3FC0
1FE0
06E0
0660
0660
0660
2660
F6E0
7FC0
1F80
0600
0600
0600
0600
ENDCHAR
STARTCHAR 0587
ENCODING 1415
SWIDTH 617 0
DWIDTH 12 0
BBX 11 15 0 0
BITMAP
E000
E000
E000
E000
E380
E380
E380
E380
E380
E380
E380
E380
7380
7FE0
3BE0
ENDCHAR
STARTCHAR 0589
ENCODING 1417
SWIDTH 617 0
DWIDTH 12 0
BBX 3 10 4 0
BITMAP
E0
E0
E0
E0
00
00
00
E0
E0
E0
ENDCHAR
STARTCHAR 058A
ENCODING 1418
SWIDTH 617 0
DWIDTH 12 0
BBX 6 3 3 3
BITMAP
8C
FC
FC
ENDCHAR
STARTCHAR 0E3F
ENCODING 3647
SWIDTH 617 0
DWIDTH 12 0
BBX 10 18 1 -3
BITMAP
0800
0800
0800
FF00
FF80
E980
E980
FF00
FF00
EB80
E9C0
E9C0
EBC0
FF80
FF00
0800
0800
0800
ENDCHAR
STARTCHAR 10D0
ENCODING 4304
SWIDTH 617 0
DWIDTH 12 0
BBX 10 11 1 0
BITMAP
3800
1800
1E00
0F80
0380
E1C0
E1C0
E1C0
E380
7F80
3F00
ENDCHAR
STARTCHAR 10D1
ENCODING 4305
SWIDTH 617 0
DWIDTH 12 0
BBX 10 14 1 0
BITMAP
7000
7800
3C00
0C00
1C00
7F00
7380
E1C0
E1C0
E1C0
E1C0
E380
7F80
3E00
ENDCHAR
STARTCHAR 10D2
ENCODING 4306
SWIDTH 617 0
DWIDTH 12 0
BBX 10 14 1 -4
BITMAP
3E00
7F00
6300
6300
4300
3F00
7F80
E3C0
E1C0
C1C0
E1C0
E3C0
7F80
3F00
ENDCHAR
STARTCHAR 10D3
ENCODING 4307
SWIDTH 617 0
DWIDTH 12 0
BBX 11 14 0 -4
BITMAP
3BC0
7FE0
6EE0
EE60
EE60
EE60
EE60
6660
67E0
73C0
3800
3E00
7F80
0380
ENDCHAR
STARTCHAR 10D4
ENCODING 4308
SWIDTH 617 0
DWIDTH 12 0
BBX 10 14 1 -4
BITMAP
1E00
7F80
7180
61C0
61C0
71C0
01C0
41C0
E1C0
E1C0
E1C0
E1C0
7F80
3F00
ENDCHAR
STARTCHAR 10D5
ENCODING 4309
SWIDTH 617 0
DWIDTH 12 0
BBX 10 14 1 -4
BITMAP
3F00
7F80
E3C0
E1C0
61C0
4180
0780
0780
E1C0
E1C0
E1C0
E1C0
7F80
3F00
ENDCHAR
STARTCHAR 10D6
ENCODING 4310
SWIDTH 617 0
DWIDTH 12 0
BBX 10 14 1 0
BITMAP
7C00
FE00
E700
E600
7E00
7F80
F380
E1C0
E1C0
E1C0
E1C0
F380
7F80
3E00
ENDCHAR
STARTCHAR 10D7
ENCODING 4311
SWIDTH 617 0
DWIDTH 12 0
BBX 11 10 0 0
BITMAP
3FC0
7FE0
6660
E660
E660
E660
E660
6660
7EE0
3DC0
ENDCHAR
STARTCHAR 10D8
ENCODING 4312
SWIDTH 617 0
DWIDTH 12 0
BBX 10 10 1 0
BITMAP
3E00
7F80
F380
E1C0
E1C0
E1C0
E1C0
E180
6380
7300
ENDCHAR
STARTCHAR 10D9
ENCODING 4313
SWIDTH 617 0
DWIDTH 12 0
BBX 10 14 1 -4
BITMAP
1E00
1F00
0380
01C0
01C0
0180
0F80
0F80
41C0
E1C0
E1C0
E1C0
7F80
3F00
ENDCHAR
STARTCHAR 10DA
ENCODING 4314
SWIDTH 617 0
DWIDTH 12 0
BBX 10 14 1 -4
BITMAP
3E00
7F80
E380
E1C0
E1C0
E1C0
E380
E380
7180
7800
7C00
FE00
4700
0380
ENDCHAR
STARTCHAR 10DB
ENCODING 4315
SWIDTH 617 0
DWIDTH 12 0
BBX 10 14 1 0
BITMAP
3F00
FF80
E1C0
01C0
3FC0
7FC0
E3C0
E1C0
E1C0
E1C0
E1C0
F380
7F80
3F00
ENDCHAR
STARTCHAR 10DC
ENCODING 4316
SWIDTH 617 0
DWIDTH 12 0
BBX 10 14 1 0
BITMAP
7F80
FF80
E000
E000
FE00
FF80
E380
E1C0
E1C0
E1C0
E1C0
E380
7F80
3E00
ENDCHAR
STARTCHAR 10DD
ENCODING 4317
SWIDTH 617 0
DWIDTH 12 0
BBX 11 10 0 0
BITMAP
3FC0
7FE0
6660
E660
E660
E660
E060
6060
70E0
39C0
ENDCHAR
STARTCHAR 10DE
ENCODING 4318
SWIDTH 617 0
DWIDTH 12 0
BBX 10 14 1 0
BITMAP
7000
3F00
0F80
0180
0380
0F80
0F00
0380
E1C0
E1C0
E1C0
E380
7F80
3F00
ENDCHAR
STARTCHAR 10DF
ENCODING 4319
SWIDTH 617 0
DWIDTH 12 0
BBX 10 14 1 -4
BITMAP
01C0
FFC0
F9C0
79C0
19C0
1DC0
1DC0
F9C0
F1C0
01C0
E1C0
E1C0
7F80
3F00
ENDCHAR
STARTCHAR 10E0
ENCODING 4320
SWIDTH 617 0
DWIDTH 12 0
BBX 11 15 0 0
BITMAP
0100
0700
0F80
1C00
3000
7FC0
7FE0
6660
E660
E660
E660
E060
6060
60E0
39C0
ENDCHAR
STARTCHAR 10E1
ENCODING 4321
SWIDTH 617 0
DWIDTH 12 0
BBX 10 14 1 0
BITMAP
E000
E000
E200
E700
E600
EE00
E780
E380
E1C0
E1C0
E1C0
F380
7F80
3F00
ENDCHAR
STARTCHAR 10E2
ENCODING 4322
SWIDTH 617 0
DWIDTH 12 0
BBX 12 16 0 -4
BITMAP
0600
0600
0600
1F80
3FC0
76E0
66E0
E660
E660
E070
E060
E060
70E0
71E0
3FC0
1F80
ENDCHAR
STARTCHAR 10E3
ENCODING 4323
SWIDTH 617 0
DWIDTH 12 0
BBX 11 14 0 -4
BITMAP
9B80
FFC0
6CE0
04E0
04E0
04E0
00E0
30E0
30E0
70E0
70E0
38E0
3FC0
1F80
ENDCHAR
STARTCHAR 10E4
ENCODING 4324
SWIDTH 617 0
DWIDTH 12 0
BBX 11 14 0 -4
BITMAP
3FC0
7FE0
6660
E660
E660
E660
E660
66C0
7EE0
3C60
0060
3860
3FE0
0FC0
ENDCHAR
STARTCHAR 10E5
ENCODING 4325
SWIDTH 617 0
DWIDTH 12 0
BBX 10 18 1 -4
BITMAP
01C0
01C0
01C0
01C0
3FC0
7FC0
73C0
61C0
71C0
41C0
01C0
41C0
E1C0
E1C0
E1C0
E380
7F80
3F00
ENDCHAR
STARTCHAR 10E6
ENCODING 4326
SWIDTH 617 0
DWIDTH 12 0
BBX 11 14 0 -4
BITMAP
3FC0
7FE0
6660
E660
E660
E660
E060
6060
70E0
3900
1E00
3F00
3380
01C0
ENDCHAR
STARTCHAR 10E7
ENCODING 4327
SWIDTH 617 0
DWIDTH 12 0
BBX 10 14 1 -4
BITMAP
39C0
71C0
E1C0
E1C0
E1C0
E1C0
E3C0
7FC0
3DC0
01C0
E1C0
E1C0
7F80
3F00
ENDCHAR
STARTCHAR 10E8
ENCODING 4328
SWIDTH 617 0
DWIDTH 12 0
BBX 11 14 0 0
BITMAP
73C0
FFE0
ECE0
00E0
1EE0
3FE0
71E0
70E0
70E0
70E0
70E0
39E0
3FC0
0F80
ENDCHAR
STARTCHAR 10E9
ENCODING 4329
SWIDTH 617 0
DWIDTH 12 0
BBX 10 14 1 0
BITMAP
7E00
FF00
E300
E300
FE00
FF80
E380
E1C0
E1C0
E1C0
E1C0
E380
E380
EF00
ENDCHAR
STARTCHAR 10EA
ENCODING 4330
SWIDTH 617 0
DWIDTH 12 0
BBX 10 15 1 -4
BITMAP
4000
7E00
6700
E380
E1C0
C1C0
CF80
CF80
C1C0
C1C0
E1C0
E1C0
F1C0
7F80
3F00
ENDCHAR
STARTCHAR 10EB
ENCODING 4331
SWIDTH 617 0
DWIDTH 12 0
BBX 10 14 1 0
BITMAP
01C0
01C0
01C0
01C0
3FC0
7FC0
F3C0
E1C0
E1C0
E1C0
E1C0
F380
7F80
3F00
ENDCHAR
STARTCHAR 10EC
ENCODING 4332
SWIDTH 617 0
DWIDTH 12 0
BBX 11 14 1 0
BITMAP
7BC0
FFC0
E4E0
E000
FF00
FF80
E380
E1C0
E1C0
E1C0
E1C0
E380
7F80
3E00
ENDCHAR
STARTCHAR 10ED
ENCODING 4333
SWIDTH 617 0
DWIDTH 12 0
BBX 10 18 1 -4
BITMAP
0E00
0E00
0E00
0E00
3E00
7E00
E780
E380
E600
7E00
3E00
0F00
4780
E1C0
E1C0
E3C0
7F80
3F00
ENDCHAR
STARTCHAR 10EE
ENCODING 4334
SWIDTH 617 0
DWIDTH 12 0
BBX 10 14 1 0
BITMAP
E000
E000
E000
E000
FE00
FF80
F380
E1C0
E1C0
E1C0
E1C0
F380
7F80
3E00
ENDCHAR
STARTCHAR 10EF
ENCODING 4335
SWIDTH 617 0
DWIDTH 12 0
BBX 10 16 1 -4
BITMAP
1C00
0C00
8C00
FC00
FF80
0F80
0C80
1C00
0F00
4780
E3C0
E1C0
E1C0
E3C0
7F80
3F00
ENDCHAR
STARTCHAR 10F0
ENCODING 4336
SWIDTH 617 0
DWIDTH 12 0
BBX 10 14 1 0
BITMAP
3800
3F80
0F80
01C0
0F80
0F80
01C0
0F80
EF80
E1C0
E1C0
E1C0
7F80
3F00
ENDCHAR
STARTCHAR 10F1
ENCODING 4337
SWIDTH 617 0
DWIDTH 12 0
BBX 10 18 1 -4
BITMAP
0C00
0F80
03C0
E1C0
E780
6780
61C0
61C0
6780
E780
E1C0
E1C0
E780
E780
E1C0
E1C0
7F80
3F00
ENDCHAR
STARTCHAR 10F2
ENCODING 4338
SWIDTH 617 0
DWIDTH 12 0
BBX 10 13 1 -3
BITMAP
3E00
7F80
E380
E1C0
E1C0
E1C0
E1C0
F380
7F80
3E00
FF80
E380
8080
ENDCHAR
STARTCHAR 10F3
ENCODING 4339
SWIDTH 617 0
DWIDTH 12 0
BBX 10 14 1 -4
BITMAP
FFC0
FFC0
E380
E380
0380
1F00
1F80
0380
E1C0
E1C0
E1C0
FF80
7F00
0C00
ENDCHAR
STARTCHAR 10F4
ENCODING 4340
SWIDTH 617 0
DWIDTH 12 0
BBX 10 18 1 -4
BITMAP
3800
7800
E000
C040
E1C0
7FC0
3FC0
01C0
0180
0380
1F00
1F80
03C0
01C0
E1C0
E1C0
7F80
3F00
ENDCHAR
STARTCHAR 10F5
ENCODING 4341
SWIDTH 617 0
DWIDTH 12 0
BBX 10 14 1 0
BITMAP
3F00
FF80
E380
E180
FFC0
3FC0
0180
3FC0
7FC0
E180
E180
E380
7F80
3E00
ENDCHAR
STARTCHAR 10F6
ENCODING 4342
SWIDTH 617 0
DWIDTH 12 0
BBX 11 14 0 -4
BITMAP
3BC0
7FE0
E660
E660
E660
E660
E660
E660
77E0
37C0
0600
0E00
1E00
1800
ENDCHAR
STARTCHAR 10F7
ENCODING 4343
SWIDTH 617 0
DWIDTH 12 0
BBX 10 14 1 -4
BITMAP
3E00
7F00
6700
6300
0F00
3E00
7C00
F080
E1C0
E1C0
E1C0
E3C0
7F80
3F00
ENDCHAR
STARTCHAR 10F8
ENCODING 4344
SWIDTH 617 0
DWIDTH 12 0
BBX 10 14 1 -4
BITMAP
EF00
E380
E380
E1C0
E1C0
E1C0
E380
FF80
FF00
E000
E1C0
E380
7F80
3F00
ENDCHAR
STARTCHAR 10F9
ENCODING 4345
SWIDTH 617 0
DWIDTH 12 0
BBX 10 14 1 -4
BITMAP
3F00
7F80
E1C0
E1C0
E1C0
E1C0
F780
3F00
3E00
3800
7380
7380
3F80
1E00
ENDCHAR
STARTCHAR 10FA
ENCODING 4346
SWIDTH 617 0
DWIDTH 12 0
BBX 10 12 1 -2
BITMAP
3E00
7F80
F380
E1C0
E180
E380
6380
7300
3C00
7F00
6600
0400
ENDCHAR
STARTCHAR 10FB
ENCODING 4347
SWIDTH 617 0
DWIDTH 12 0
BBX 6 9 3 0
BITMAP
C0
C0
00
0C
0C
00
00
C0
C0
ENDCHAR
STARTCHAR 10FC
ENCODING 4348
SWIDTH 617 0
DWIDTH 12 0
BBX 4 8 4 6
BITMAP
F0
80
E0
B0
90
90
B0
E0
ENDCHAR
STARTCHAR 1E80
ENCODING 7808
SWIDTH 617 0
DWIDTH 12 0
BBX 12 18 0 0
BITMAP
1C00
0C00
0600
0000
E070
E070
E060
E660
6E60
6F60
6F60
6F60
6B60
69E0
79C0
79C0
39C0
31C0
ENDCHAR
STARTCHAR 1E81
ENCODING 7809
SWIDTH 617 0
DWIDTH 12 0
BBX 12 16 0 0
BITMAP
7000
1800
0C00
0E00
0000
C070
E060
E060
6660
6E60
6F60
6FE0
6BC0
79C0
39C0
39C0
ENDCHAR
STARTCHAR 1E82
ENCODING 7810
SWIDTH 617 0
DWIDTH 12 0
BBX 12 18 0 0
BITMAP
0380
0700
0E00
0000
E070
E070
E060
E660
6E60
6F60
6F60
6F60
6B60
69E0
79C0
79C0
39C0
31C0
ENDCHAR
STARTCHAR 1E83
ENCODING 7811
SWIDTH 617 0
DWIDTH 12 0
BBX 12 16 0 0
BITMAP
01C0
0180
0300
0600
0000
C070
E060
E060
6660
6E60
6F60
6FE0
6BC0
79C0
39C0
39C0
ENDCHAR
STARTCHAR 1E84
ENCODING 7812
SWIDTH 617 0
DWIDTH 12 0
BBX 12 17 0 0
BITMAP
1980
1980
0000
E070
E070
E060
E660
6E60
6F60
6F60
6F60
6B60
69E0
79C0
79C0
39C0
31C0
ENDCHAR
STARTCHAR 1E85
ENCODING 7813
SWIDTH 617 0
DWIDTH 12 0
BBX 12 15 0 0
BITMAP
1980
1980
0000
0000
C070
E060
E060
6660
6E60
6F60
6FE0
6BC0
79C0
39C0
39C0
ENDCHAR
STARTCHAR 1EBC
ENCODING 7868
SWIDTH 617 0
DWIDTH 12 0
BBX 8 18 2 0
BITMAP
72
4E
00
00
FF
FF
C0
C0
C0
C0
FF
FF
C0
C0
C0
C0
FF
FF
ENDCHAR
STARTCHAR 1EBD
ENCODING 7869
SWIDTH 617 0
DWIDTH 12 0
BBX 10 15 1 0
BITMAP
3900
2F00
0000
0000
3E00
7F80
F380
E1C0
FFC0
FFC0
E000
E000
F180
7F80
1F80
ENDCHAR
STARTCHAR 1EF2
ENCODING 7922
SWIDTH 617 0
DWIDTH 12 0
BBX 12 18 0 0
BITMAP
1C00
0C00
0600
0000
E0F0
70E0
71C0
39C0
3B80
1F80
1F00
0F00
0E00
0E00
0E00
0E00
0E00
0E00
ENDCHAR
STARTCHAR 1EF3
ENCODING 7923
SWIDTH 617 0
DWIDTH 12 0
BBX 10 20 1 -4
BITMAP
7000
3000
1800
0C00
0000
E1C0
E1C0
6180
7380
7380
3300
3F00
1F00
1E00
1E00
0C00
1C00
1C00
F800
F000
ENDCHAR
STARTCHAR 1EF8
ENCODING 7928
SWIDTH 617 0
DWIDTH 12 0
BBX 12 18 0 0
BITMAP
1C80
1380
0000
0000
E0F0
70E0
71C0
39C0
3B80
1F80
1F00
0F00
0E00
0E00
0E00
0E00
0E00
0E00
ENDCHAR
STARTCHAR 1EF9
ENCODING 7929
SWIDTH 617 0
DWIDTH 12 0
BBX 10 19 1 -4
BITMAP
3900
2700
0000
0000
E1C0
E1C0
6180
7380
7380
3300
3F00
1F00
1E00
1E00
0C00
1C00
1C00
F800
F000
ENDCHAR
STARTCHAR 2000
ENCODING 8192
SWIDTH 617 0
DWIDTH 12 0
BBX 0 0 0 0
BITMAP
ENDCHAR
STARTCHAR 2001
ENCODING 8193
SWIDTH 617 0
DWIDTH 12 0
BBX 0 0 0 0
BITMAP
ENDCHAR
STARTCHAR 2002
ENCODING 8194
SWIDTH 617 0
DWIDTH 12 0
BBX 0 0 0 0
BITMAP
ENDCHAR
STARTCHAR 2003
ENCODING 8195
SWIDTH 617 0
DWIDTH 12 0
BBX 0 0 0 0
BITMAP
ENDCHAR
STARTCHAR 2004
ENCODING 8196
SWIDTH 617 0
DWIDTH 12 0
BBX 0 0 0 0
BITMAP
ENDCHAR
STARTCHAR 2005
ENCODING 8197
SWIDTH 617 0
DWIDTH 12 0
BBX 0 0 0 0
BITMAP
ENDCHAR
STARTCHAR 2006
ENCODING 8198
SWIDTH 617 0
DWIDTH 12 0
BBX 0 0 0 0
BITMAP
ENDCHAR
STARTCHAR 2007
ENCODING 8199
SWIDTH 617 0
DWIDTH 12 0
BBX 0 0 0 0
BITMAP
ENDCHAR
STARTCHAR 2008
ENCODING 8200
SWIDTH 617 0
DWIDTH 12 0
BBX 0 0 0 0
BITMAP
ENDCHAR
STARTCHAR 2009
ENCODING 8201
SWIDTH 617 0
DWIDTH 12 0
BBX 0 0 0 0
BITMAP
ENDCHAR
STARTCHAR 200A
ENCODING 8202
SWIDTH 617 0
DWIDTH 12 0
BBX 0 0 0 0
BITMAP
ENDCHAR
STARTCHAR 2010
ENCODING 8208
SWIDTH 617 0
DWIDTH 12 0
BBX 6 2 3 4
BITMAP
FC
FC
ENDCHAR
STARTCHAR 2011
ENCODING 8209
SWIDTH 617 0
DWIDTH 12 0
BBX 6 2 3 4
BITMAP
FC
FC
ENDCHAR
STARTCHAR 2012
ENCODING 8210
SWIDTH 617 0
DWIDTH 12 0
BBX 9 2 1 4
BITMAP
FF80
FF80
ENDCHAR
STARTCHAR 2013
ENCODING 8211
SWIDTH 617 0
DWIDTH 12 0
BBX 6 2 3 4
BITMAP
FC
FC
ENDCHAR
STARTCHAR 2014
ENCODING 8212
SWIDTH 617 0
DWIDTH 12 0
BBX 12 2 0 4
BITMAP
FFF0
FFF0
ENDCHAR
STARTCHAR 2015
ENCODING 8213
SWIDTH 617 0
DWIDTH 12 0
BBX 12 2 0 4
BITMAP
FFF0
FFF0
ENDCHAR
STARTCHAR 2016
ENCODING 8214
SWIDTH 617 0
DWIDTH 12 0
BBX 7 20 2 -5
BITMAP
E6
E6
E6
E6
E6
E6
E6
E6
E6
E6
E6
E6
E6
E6
E6
E6
E6
E6
E6
E6
ENDCHAR
STARTCHAR 2017
ENCODING 8215
SWIDTH 617 0
DWIDTH 12 0
BBX 12 5 0 -5
BITMAP
FFF0
FFF0
0000
FFF0
FFF0
ENDCHAR
STARTCHAR 2018
ENCODING 8216
SWIDTH 617 0
DWIDTH 12 0
BBX 4 6 4 9
BITMAP
30
70
60
E0
E0
E0
ENDCHAR
STARTCHAR 2019
ENCODING 8217
SWIDTH 617 0
DWIDTH 12 0
BBX 4 6 4 9
BITMAP
70
70
70
60
E0
C0
ENDCHAR
STARTCHAR 201A
ENCODING 8218
SWIDTH 617 0
DWIDTH 12 0
BBX 4 6 3 -3
BITMAP
70
70
70
70
60
E0
ENDCHAR
STARTCHAR 201B
ENCODING 8219
SWIDTH 617 0
DWIDTH 12 0
BBX 4 6 4 9
BITMAP
E0
E0
E0
60
70
30
ENDCHAR
STARTCHAR 201C
ENCODING 8220
SWIDTH 617 0
DWIDTH 12 0
BBX 9 6 1 9
BITMAP
3180
3380
7380
E700
E700
E700
ENDCHAR
STARTCHAR 201D
ENCODING 8221
SWIDTH 617 0
DWIDTH 12 0
BBX 9 6 1 9
BITMAP
7380
7380
7380
7380
6300
E700
ENDCHAR
STARTCHAR 201E
ENCODING 8222
SWIDTH 617 0
DWIDTH 12 0
BBX 9 6 1 -3
BITMAP
7380
7380
7380
7380
6300
E700
ENDCHAR
STARTCHAR 201F
ENCODING 8223
SWIDTH 617 0
DWIDTH 12 0
BBX 9 6 1 9
BITMAP
E700
E700
E700
7380
7380
3180
ENDCHAR
STARTCHAR 2020
ENCODING 8224
SWIDTH 617 0
DWIDTH 12 0
BBX 9 16 1 -2
BITMAP
0C00
0C00
0C00
FF80
FF80
0C00
0C00
0C00
0C00
0C00
0C00
0C00
0C00
0C00
0C00
0C00
ENDCHAR
STARTCHAR 2021
ENCODING 8225
SWIDTH 617 0
DWIDTH 12 0
BBX 9 16 1 -2
BITMAP
0C00
0C00
0C00
FF80
FF80
0C00
0C00
0C00
0C00
0C00
FF80
FF80
0C00
0C00
0C00
0C00
ENDCHAR
STARTCHAR 2022
ENCODING 8226
SWIDTH 617 0
DWIDTH 12 0
BBX 7 7 2 4
BITMAP
3C
7E
7E
FE
7E
7E
3C
ENDCHAR
STARTCHAR 2023
ENCODING 8227
SWIDTH 617 0
DWIDTH 12 0
BBX 8 8 2 3
BITMAP
C0
F0
FC
FF
FE
F8
E0
80
ENDCHAR
STARTCHAR 2024
ENCODING 8228
SWIDTH 617 0
DWIDTH 12 0
BBX 3 4 4 0
BITMAP
E0
E0
E0
E0
ENDCHAR
STARTCHAR 2025
ENCODING 8229
SWIDTH 617 0
DWIDTH 12 0
BBX 7 4 2 0
BITMAP
E6
E6
E6
E6
ENDCHAR
STARTCHAR 2026
ENCODING 8230
SWIDTH 617 0
DWIDTH 12 0
BBX 10 4 1 0
BITMAP
DDC0
DDC0
DDC0
DDC0
ENDCHAR
STARTCHAR 2027
ENCODING 8231
SWIDTH 617 0
DWIDTH 12 0
BBX 3 3 4 6
BITMAP
60
E0
60
ENDCHAR
STARTCHAR 202F
ENCODING 8239
SWIDTH 617 0
DWIDTH 12 0
BBX 0 0 0 0
BITMAP
ENDCHAR
STARTCHAR 2030
ENCODING 8240
SWIDTH 617 0
DWIDTH 12 0
BBX 12 14 0 0
BITMAP
7000
F800
C800
C800
F8E0
7700
1800
E000
30C0
79E0
CF30
CF30
7DE0
39E0
ENDCHAR
STARTCHAR 2031
ENCODING 8241
SWIDTH 617 0
DWIDTH 12 0
BBX 12 14 0 0
BITMAP
7000
F800
C800
C800
F8E0
7700
1800
E000
66C0
FFE0
D930
9930
FFE0
76E0
ENDCHAR
STARTCHAR 2032
ENCODING 8242
SWIDTH 617 0
DWIDTH 12 0
BBX 4 3 4 11
BITMAP
70
60
C0
ENDCHAR
STARTCHAR 2033
ENCODING 8243
SWIDTH 617 0
DWIDTH 12 0
BBX 8 3 2 11
BITMAP
77
6C
D8
ENDCHAR
STARTCHAR 2034
ENCODING 8244
SWIDTH 617 0
DWIDTH 12 0
BBX 12 3 0 11
BITMAP
3770
66C0
CD80
ENDCHAR
STARTCHAR 2035
ENCODING 8245
SWIDTH 617 0
DWIDTH 12 0
BBX 4 3 4 11
BITMAP
E0
60
30
ENDCHAR
STARTCHAR 2036
ENCODING 8246
SWIDTH 617 0
DWIDTH 12 0
BBX 8 3 2 11
BITMAP
EC
66
33
ENDCHAR
STARTCHAR 2037
ENCODING 8247
SWIDTH 617 0
DWIDTH 12 0
BBX 12 3 0 11
BITMAP
EFC0
3660
3330
ENDCHAR
STARTCHAR 2039
ENCODING 8249
SWIDTH 617 0
DWIDTH 12 0
BBX 5 9 2 1
BITMAP
08
18
38
60
C0
70
38
08
08
ENDCHAR
STARTCHAR 203A
ENCODING 8250
SWIDTH 617 0
DWIDTH 12 0
BBX 4 9 5 1
BITMAP
80
C0
E0
70
30
70
C0
80
80
ENDCHAR
STARTCHAR 203C
ENCODING 8252
SWIDTH 617 0
DWIDTH 12 0
BBX 9 14 1 0
BITMAP
6380
6380
6380
6380
6380
6380
6380
6180
6180
6180
0000
6180
F380
6180
ENDCHAR
STARTCHAR 203D
ENCODING 8253
SWIDTH 617 0
DWIDTH 12 0
BBX 8 14 2 0
BITMAP
7C
FF
FF
3F
3F
3E
3C
38
38
38
00
38
38
38
ENDCHAR
STARTCHAR 203E
ENCODING 8254
SWIDTH 617 0
DWIDTH 12 0
BBX 12 2 0 13
BITMAP
FFF0
FFF0
ENDCHAR
STARTCHAR 203F
ENCODING 8255
SWIDTH 617 0
DWIDTH 12 0
BBX 13 4 -1 -5
BITMAP
8008
F078
7FF0
0FC0
ENDCHAR
STARTCHAR 2044
ENCODING 8260
SWIDTH 617 0
DWIDTH 12 0
BBX 10 16 1 -2
BITMAP
01C0
0180
0300
0300
0700
0600
0600
0C00
0C00
1800
1800
3000
3000
6000
6000
C000
ENDCHAR
STARTCHAR 2045
ENCODING 8261
SWIDTH 617 0
DWIDTH 12 0
BBX 5 18 4 -3
BITMAP
F8
F8
E0
E0
E0
E0
E0
E0
F8
F8
E0
E0
E0
E0
E0
E0
F8
F8
ENDCHAR
STARTCHAR 2046
ENCODING 8262
SWIDTH 617 0
DWIDTH 12 0
BBX 5 18 3 -3
BITMAP
F8
F8
38
38
38
38
38
38
F8
F8
38
38
38
38
38
38
F8
F8
ENDCHAR
STARTCHAR 2047
ENCODING 8263
SWIDTH 617 0
DWIDTH 12 0
BBX 11 14 0 0
BITMAP
71C0
FBE0
FBE0
9E60
1860
38E0
31C0
71C0
71C0
71C0
0000
71C0
71C0
71C0
ENDCHAR
STARTCHAR 2048
ENCODING 8264
SWIDTH 617 0
DWIDTH 12 0
BBX 11 14 0 0
BITMAP
70C0
F8C0
F8C0
9CC0
18C0
38C0
30C0
70C0
70C0
70C0
0000
70C0
71E0
70C0
ENDCHAR
STARTCHAR 2049
ENCODING 8265
SWIDTH 617 0
DWIDTH 12 0
BBX 10 14 1 0
BITMAP
6380
67C0
67C0
64C0
60C0
61C0
6180
6380
6380
6380
0000
6380
E380
6380
ENDCHAR
STARTCHAR 204B
ENCODING 8267
SWIDTH 617 0
DWIDTH 12 0
BBX 9 16 2 -2
BITMAP
FE00
9F00
9F80
9F80
9F80
9F80
9F00
9E00
9800
9800
9800
9800
9800
9800
9800
9800
ENDCHAR
STARTCHAR 205F
ENCODING 8287
SWIDTH 617 0
DWIDTH 12 0
BBX 0 0 0 0
BITMAP
ENDCHAR
STARTCHAR 2070
ENCODING 8304
SWIDTH 617 0
DWIDTH 12 0
BBX 6 8 3 11
BITMAP
78
DC
CC
FC
CC
CC
DC
78
ENDCHAR
STARTCHAR 2074
ENCODING 8308
SWIDTH 617 0
DWIDTH 12 0
BBX 7 8 2 11
BITMAP
0C
1C
3C
6C
4C
FE
0C
0C
ENDCHAR
STARTCHAR 2075
ENCODING 8309
SWIDTH 617 0
DWIDTH 12 0
BBX 6 8 3 11
BITMAP
F8
C0
C0
F8
9C
0C
9C
F8
ENDCHAR
STARTCHAR 2076
ENCODING 8310
SWIDTH 617 0
DWIDTH 12 0
BBX 6 8 3 11
BITMAP
7C
E4
C0
F8
CC
CC
CC
78
ENDCHAR
STARTCHAR 2077
ENCODING 8311
SWIDTH 617 0
DWIDTH 12 0
BBX 6 8 3 11
BITMAP
FC
0C
18
18
30
30
60
60
ENDCHAR
STARTCHAR 2078
ENCODING 8312
SWIDTH 617 0
DWIDTH 12 0
BBX 6 8 3 11
BITMAP
78
CC
CC
70
CC
8C
CC
78
ENDCHAR
STARTCHAR 2079
ENCODING 8313
SWIDTH 617 0
DWIDTH 12 0
BBX 6 8 3 11
BITMAP
78
DC
8C
CC
FC
0C
98
F0
ENDCHAR
STARTCHAR 207A
ENCODING 8314
SWIDTH 617 0
DWIDTH 12 0
BBX 6 6 3 7
BITMAP
30
30
FC
30
30
30
ENDCHAR
STARTCHAR 207B
ENCODING 8315
SWIDTH 617 0
DWIDTH 12 0
BBX 6 1 3 9
BITMAP
FC
ENDCHAR
STARTCHAR 207C
ENCODING 8316
SWIDTH 617 0
DWIDTH 12 0
BBX 6 3 3 9
BITMAP
FC
00
FC
ENDCHAR
STARTCHAR 207D
ENCODING 8317
SWIDTH 617 0
DWIDTH 12 0
BBX 3 10 4 5
BITMAP
20
60
40
C0
C0
C0
C0
40
60
20
ENDCHAR
STARTCHAR 207E
ENCODING 8318
SWIDTH 617 0
DWIDTH 12 0
BBX 3 10 4 5
BITMAP
C0
60
60
20
20
20
20
60
60
C0
ENDCHAR
STARTCHAR 208A
ENCODING 8330
SWIDTH 617 0
DWIDTH 12 0
BBX 6 6 3 1
BITMAP
30
30
FC
30
30
30
ENDCHAR
STARTCHAR 208B
ENCODING 8331
SWIDTH 617 0
DWIDTH 12 0
BBX 6 1 3 3
BITMAP
FC
ENDCHAR
STARTCHAR 208C
ENCODING 8332
SWIDTH 617 0
DWIDTH 12 0
BBX 6 4 3 2
BITMAP
FC
00
00
FC
ENDCHAR
STARTCHAR 208D
ENCODING 8333
SWIDTH 617 0
DWIDTH 12 0
BBX 3 10 4 -1
BITMAP
20
60
40
C0
C0
C0
C0
40
60
20
ENDCHAR
STARTCHAR 208E
ENCODING 8334
SWIDTH 617 0
DWIDTH 12 0
BBX 3 10 4 -1
BITMAP
C0
60
60
20
20
20
20
60
60
C0
ENDCHAR
STARTCHAR 20A0
ENCODING 8352
SWIDTH 617 0
DWIDTH 12 0
BBX 12 14 0 0
BITMAP
3C00
7C00
6400
C3E0
C3E0
C300
C300
C3E0
67E0
7F00
3F00
0300
03F0
03F0
ENDCHAR
STARTCHAR 20A1
ENCODING 8353
SWIDTH 617 0
DWIDTH 12 0
BBX 10 16 1 -1
BITMAP
02C0
1F80
3FC0
7DC0
F580
E500
ED00
EB00
EB00
EA00
FA00
F640
7EC0
3FC0
3F80
2C00
ENDCHAR
STARTCHAR 20A2
ENCODING 8354
SWIDTH 617 0
DWIDTH 12 0
BBX 10 14 1 0
BITMAP
1F00
3F80
7980
E000
EFC0
EFC0
EF40
EE00
EE00
EE00
FE80
7F80
3F80
1F00
ENDCHAR
STARTCHAR 20A3
ENCODING 8355
SWIDTH 617 0
DWIDTH 12 0
BBX 11 14 0 0
BITMAP
3FE0
3FE0
3800
3800
3800
3800
3FC0
3FC0
3800
3800
FE00
3800
3800
3800
ENDCHAR
STARTCHAR 20A4
ENCODING 8356
SWIDTH 617 0
DWIDTH 12 0
BBX 10 14 1 0
BITMAP
0F80
1F80
3C80
3800
FF00
FF00
3800
3800
FF00
FF00
3800
3800
FFC0
FFC0
ENDCHAR
STARTCHAR 20A5
ENCODING 8357
SWIDTH 617 0
DWIDTH 12 0
BBX 11 15 0 -2
BITMAP
0080
0100
FDC0
FFE0
EF60
E660
E660
E660
E660
E660
E660
EE60
EE60
0800
1000
ENDCHAR
STARTCHAR 20A6
ENCODING 8358
SWIDTH 617 0
DWIDTH 12 0
BBX 12 14 0 0
BITMAP
78E0
78E0
7CE0
7CE0
FFF0
FFF0
7EE0
76E0
FFF0
FFF0
73E0
73E0
71E0
71E0
ENDCHAR
STARTCHAR 20A7
ENCODING 8359
SWIDTH 617 0
DWIDTH 12 0
BBX 12 14 0 0
BITMAP
F600
FE00
DE00
DFE0
DFE0
DFA0
FF80
F6C0
C6E0
C670
C630
C2B0
C3E0
C3E0
ENDCHAR
STARTCHAR 20A8
ENCODING 8360
SWIDTH 617 0
DWIDTH 12 0
BBX 12 14 0 0
BITMAP
F800
FC00
CC00
CDE0
CDE0
CF20
FB00
FBC0
DDE0
CCF0
CC30
CF70
C7E0
C7E0
ENDCHAR
STARTCHAR 20A9
ENCODING 8361
SWIDTH 617 0
DWIDTH 12 0
BBX 12 14 0 0
BITMAP
C630
C660
FFF0
6E60
6E60
FFF0
6B60
6B60
69C0
69C0
39C0
39C0
39C0
31C0
ENDCHAR
STARTCHAR 20AA
ENCODING 8362
SWIDTH 617 0
DWIDTH 12 0
BBX 12 14 0 0
BITMAP
FC70
FE70
FF70
C370
C370
DB70
DB70
DB70
CB70
C870
CC70
CFF0
CFF0
C3F0
ENDCHAR
STARTCHAR 20AB
ENCODING 8363
SWIDTH 617 0
DWIDTH 12 0
BBX 11 19 2 -4
BITMAP
01C0
0FE0
0FE0
01C0
3DC0
7FC0
73C0
E1C0
E1C0
E1C0
E1C0
E1C0
73C0
7FC0
3DC0
0000
0000
1F80
1F80
ENDCHAR
STARTCHAR 20AC
ENCODING 8364
SWIDTH 617 0
DWIDTH 12 0
BBX 10 14 0 0
BITMAP
07C0
1FC0
3C40
3800
7F80
FF00
3800
7F00
FE00
3800
3840
1C40
1FC0
07C0
ENDCHAR
STARTCHAR 20AD
ENCODING 8365
SWIDTH 617 0
DWIDTH 12 0
BBX 11 14 0 0
BITMAP
71E0
71C0
7380
7700
7E00
7E00
FF80
7E00
7E00
7700
7780
73C0
71C0
70E0
ENDCHAR
STARTCHAR 20AE
ENCODING 8366
SWIDTH 617 0
DWIDTH 12 0
BBX 12 14 0 0
BITMAP
FFF0
FFF0
0E00
0E00
0E80
0F00
0E00
0F80
1E00
0E00
1E00
0E00
0E00
0E00
ENDCHAR
STARTCHAR 20AF
ENCODING 8367
SWIDTH 617 0
DWIDTH 12 0
BBX 12 18 0 -4
BITMAP
3800
3C00
5600
1200
1200
3300
3360
3360
22E0
E290
E2A0
B6A0
FCE0
4CE0
0080
0180
0100
0100
ENDCHAR
STARTCHAR 20B0
ENCODING 8368
SWIDTH 617 0
DWIDTH 12 0
BBX 11 14 0 0
BITMAP
03C0
07E0
06E0
0660
0660
32C0
7BC0
EFE0
4F60
0060
0060
00E0
01E0
0180
ENDCHAR
STARTCHAR 20B1
ENCODING 8369
SWIDTH 617 0
DWIDTH 12 0
BBX 11 14 1 0
BITMAP
7F00
7F80
63C0
FFE0
61C0
FFE0
7FC0
7F80
6000
6000
6000
6000
6000
6000
ENDCHAR
STARTCHAR 20B2
ENCODING 8370
SWIDTH 617 0
DWIDTH 12 0
BBX 11 17 0 -1
BITMAP
0200
0200
0FC0
3FE0
3E60
7200
6200
6200
E2E0
E2E0
6260
6260
7260
3AE0
3FE0
0FC0
0200
ENDCHAR
STARTCHAR 20B3
ENCODING 8371
SWIDTH 617 0
DWIDTH 12 0
BBX 11 14 0 0
BITMAP
0F00
0F00
0F00
1F80
1F80
7FE0
7FE0
39C0
39C0
7FE0
7FE0
70E0
60E0
E060
ENDCHAR
STARTCHAR 20B4
ENCODING 8372
SWIDTH 617 0
DWIDTH 12 0
BBX 12 14 0 0
BITMAP
1F00
3FC0
31C0
00E0
FFF0
FFF0
0FC0
3E00
FFF0
FFF0
7020
78C0
3FC0
1F80
ENDCHAR
STARTCHAR 20B5
ENCODING 8373
SWIDTH 617 0
DWIDTH 12 0
BBX 11 18 0 -3
BITMAP
0100
0100
0FC0
1FE0
3FE0
7920
7900
F100
F100
F100
7100
7920
3F60
1FE0
0FC0
0100
0100
0100
ENDCHAR
STARTCHAR 20B7
ENCODING 8375
SWIDTH 617 0
DWIDTH 12 0
BBX 12 16 0 -2
BITMAP
07E0
0FF0
1C60
1810
3800
1E00
1F80
07C0
01E0
00E0
7EE0
57C0
7FC0
FF80
B400
BC00
ENDCHAR
STARTCHAR 20B8
ENCODING 8376
SWIDTH 617 0
DWIDTH 12 0
BBX 10 14 1 0
BITMAP
FFC0
FFC0
0000
FFC0
FFC0
1C00
1C00
1C00
1C00
1C00
1C00
1C00
1C00
1C00
ENDCHAR
STARTCHAR 20B9
ENCODING 8377
SWIDTH 617 0
DWIDTH 12 0
BBX 10 14 1 0
BITMAP
7FC0
FF80
0E00
7FC0
FF80
0E00
FE00
F800
1C00
1C00
0E00
0E00
0700
0780
ENDCHAR
STARTCHAR 2116
ENCODING 8470
SWIDTH 617 0
DWIDTH 12 0
BBX 11 14 0 0
BITMAP
CCC0
EDE0
EDA0
ED20
ED20
ED20
FDE0
FCC0
FC00
DDE0
DDE0
DC00
DC00
CC00
ENDCHAR
STARTCHAR 2122
ENCODING 8482
SWIDTH 617 0
DWIDTH 12 0
BBX 11 5 0 9
BITMAP
F660
65E0
65E0
6460
6460
ENDCHAR
STARTCHAR 2126
ENCODING 8486
SWIDTH 617 0
DWIDTH 12 0
BBX 10 14 1 0
BITMAP
1E00
7F00
7380
E380
E1C0
E1C0
E1C0
E1C0
E1C0
E380
7380
3700
F7C0
F7C0
ENDCHAR
STARTCHAR 2150
ENCODING 8528
SWIDTH 617 0
DWIDTH 12 0
BBX 11 19 0 -3
BITMAP
7800
7800
1800
1800
1800
1800
1800
7E00
00E0
0F80
F800
87E0
00C0
00C0
0080
0180
0180
0300
0700
ENDCHAR
STARTCHAR 2151
ENCODING 8529
SWIDTH 617 0
DWIDTH 12 0
BBX 11 19 0 -3
BITMAP
7800
7800
1800
1800
1800
1800
1800
7E00
00E0
0F80
F800
47C0
0440
0C60
0660
07E0
0060
04C0
07C0
ENDCHAR
STARTCHAR 2153
ENCODING 8531
SWIDTH 617 0
DWIDTH 12 0
BBX 11 18 0 -2
BITMAP
7800
1800
1800
1800
1800
1800
7E00
00E0
0F80
F800
47C0
0460
0060
0380
0060
0060
0860
07C0
ENDCHAR
STARTCHAR 2154
ENCODING 8532
SWIDTH 617 0
DWIDTH 12 0
BBX 11 19 0 -2
BITMAP
F800
8C00
0C00
0C00
1800
3000
6000
FC00
00E0
0F80
F800
47C0
0460
0060
0380
0060
0060
0860
07C0
ENDCHAR
STARTCHAR 2155
ENCODING 8533
SWIDTH 617 0
DWIDTH 12 0
BBX 11 18 0 -2
BITMAP
7800
1800
1800
1800
1800
1800
7E00
00E0
0F80
F800
87C0
0600
0600
07C0
04E0
0060
0060
07C0
ENDCHAR
STARTCHAR 2156
ENCODING 8534
SWIDTH 617 0
DWIDTH 12 0
BBX 11 19 0 -2
BITMAP
F800
8C00
0C00
0C00
1800
3000
6000
FC00
00E0
0F80
F800
87C0
0600
0600
07C0
04E0
0060
0060
07C0
ENDCHAR
STARTCHAR 2157
ENCODING 8535
SWIDTH 617 0
DWIDTH 12 0
BBX 11 19 0 -2
BITMAP
7800
8C00
0400
0C00
3800
0C00
0600
FC00
01E0
1F00
F800
87C0
0600
0600
07C0
04E0
0060
0060
07C0
ENDCHAR
STARTCHAR 2158
ENCODING 8536
SWIDTH 617 0
DWIDTH 12 0
BBX 11 18 0 -2
BITMAP
1800
3800
6800
4800
C800
FC00
0800
0860
07C0
7800
87C0
0600
0600
07C0
04E0
0060
0060
07C0
ENDCHAR
STARTCHAR 2159
ENCODING 8537
SWIDTH 617 0
DWIDTH 12 0
BBX 11 18 0 -2
BITMAP
7800
1800
1800
1800
1800
1800
7E00
00E0
0F80
F800
43C0
0620
0600
05C0
0660
0660
0660
03C0
ENDCHAR
STARTCHAR 215A
ENCODING 8538
SWIDTH 617 0
DWIDTH 12 0
BBX 11 18 0 -2
BITMAP
7C00
4000
7800
8C00
0600
0C00
FC00
01E0
0F80
F800
43C0
0620
0600
05C0
0660
0660
0660
03C0
ENDCHAR
STARTCHAR 215B
ENCODING 8539
SWIDTH 617 0
DWIDTH 12 0
BBX 11 18 0 -2
BITMAP
7800
1800
1800
1800
1800
1800
7E00
00E0
0F80
F800
43C0
0660
0660
0380
0660
0460
0660
07C0
ENDCHAR
STARTCHAR 215C
ENCODING 8540
SWIDTH 617 0
DWIDTH 12 0
BBX 11 19 0 -2
BITMAP
7800
8C00
0400
0C00
3800
0C00
0600
FC00
01E0
0F80
F800
43C0
0660
0660
0380
0660
0460
0660
07C0
ENDCHAR
STARTCHAR 215D
ENCODING 8541
SWIDTH 617 0
DWIDTH 12 0
BBX 11 18 0 -2
BITMAP
7C00
4000
7800
8C00
0600
0C00
FC00
01E0
0F80
F800
43C0
0660
0660
0380
0660
0460
0660
07C0
ENDCHAR
STARTCHAR 215E
ENCODING 8542
SWIDTH 617 0
DWIDTH 12 0
BBX 11 18 0 -2
BITMAP
FC00
0C00
0C00
1800
1800
3000
3000
6060
07C0
FC00
43C0
0660
0660
0380
0660
0460
0660
07C0
ENDCHAR
STARTCHAR 215F
ENCODING 8543
SWIDTH 617 0
DWIDTH 12 0
BBX 11 11 0 5
BITMAP
3800
7800
1800
1800
1800
1800
1800
7E00
00E0
0F00
F000
ENDCHAR
STARTCHAR 2189
ENCODING 8585
SWIDTH 617 0
DWIDTH 12 0
BBX 11 19 0 -2
BITMAP
3800
6C00
C400
C600
D600
C400
6C00
7800
01E0
0F80
F800
47C0
0460
0060
0380
0060
0060
0860
07C0
ENDCHAR
STARTCHAR 2190
ENCODING 8592
SWIDTH 617 0
DWIDTH 12 0
BBX 10 7 1 2
BITMAP
2000
7000
E000
FFC0
FFC0
6000
3000
ENDCHAR
STARTCHAR 2191
ENCODING 8593
SWIDTH 617 0
DWIDTH 12 0
BBX 7 11 2 0
BITMAP
18
3C
FE
5E
18
18
18
18
18
18
18
ENDCHAR
STARTCHAR 2192
ENCODING 8594
SWIDTH 617 0
DWIDTH 12 0
BBX 10 7 1 2
BITMAP
0100
0300
0180
FFC0
FFC0
0180
0300
ENDCHAR
STARTCHAR 2193
ENCODING 8595
SWIDTH 617 0
DWIDTH 12 0
BBX 7 11 2 0
BITMAP
18
18
18
18
18
18
18
5A
FE
3C
18
ENDCHAR
STARTCHAR 2194
ENCODING 8596
SWIDTH 617 0
DWIDTH 12 0
BBX 10 7 1 2
BITMAP
2100
7300
E180
FFC0
FFC0
6180
3300
ENDCHAR
STARTCHAR 2195
ENCODING 8597
SWIDTH 617 0
DWIDTH 12 0
BBX 7 11 2 0
BITMAP
18
3C
FE
5E
18
18
18
5A
FE
3C
18
ENDCHAR
STARTCHAR 2196
ENCODING 8598
SWIDTH 617 0
DWIDTH 12 0
BBX 9 9 1 0
BITMAP
7800
F800
F000
F800
DC00
0E00
0700
0380
0100
ENDCHAR
STARTCHAR 2197
ENCODING 8599
SWIDTH 617 0
DWIDTH 12 0
BBX 8 9 2 0
BITMAP
1F
1F
07
0F
1F
38
70
E0
C0
ENDCHAR
STARTCHAR 2198
ENCODING 8600
SWIDTH 617 0
DWIDTH 12 0
BBX 8 9 2 0
BITMAP
40
C0
E0
70
3B
1F
0F
1F
1F
ENDCHAR
STARTCHAR 2199
ENCODING 8601
SWIDTH 617 0
DWIDTH 12 0
BBX 9 9 1 0
BITMAP
0100
0380
0300
0600
CC00
D800
F000
F800
7800
ENDCHAR
STARTCHAR 219A
ENCODING 8602
SWIDTH 617 0
DWIDTH 12 0
BBX 10 7 1 2
BITMAP
2100
7180
E380
FFC0
FFC0
6600
3E00
ENDCHAR
STARTCHAR 219B
ENCODING 8603
SWIDTH 617 0
DWIDTH 12 0
BBX 10 7 1 2
BITMAP
1100
1F00
3980
FFC0
FFC0
6180
E300
ENDCHAR
STARTCHAR 219C
ENCODING 8604
SWIDTH 617 0
DWIDTH 12 0
BBX 10 5 1 4
BITMAP
FB80
FFC0
EEC0
BC00
9800
ENDCHAR
STARTCHAR 219D
ENCODING 8605
SWIDTH 617 0
DWIDTH 12 0
BBX 10 5 1 4
BITMAP
7780
FFC0
99C0
0FC0
0EC0
ENDCHAR
STARTCHAR 219E
ENCODING 8606
SWIDTH 617 0
DWIDTH 12 0
BBX 10 7 1 2
BITMAP
2400
7E00
FC00
FFC0
FFC0
6C00
3600
ENDCHAR
STARTCHAR 219F
ENCODING 8607
SWIDTH 617 0
DWIDTH 12 0
BBX 7 11 2 0
BITMAP
18
3C
FE
5E
3C
7E
DE
18
18
18
18
ENDCHAR
STARTCHAR 21A0
ENCODING 8608
SWIDTH 617 0
DWIDTH 12 0
BBX 10 7 1 2
BITMAP
0900
1B00
0D80
FFC0
FFC0
0D80
1B00
ENDCHAR
STARTCHAR 21A1
ENCODING 8609
SWIDTH 617 0
DWIDTH 12 0
BBX 7 11 2 0
BITMAP
18
18
18
18
DE
7E
3C
5A
FE
3C
18
ENDCHAR
STARTCHAR 21A2
ENCODING 8610
SWIDTH 617 0
DWIDTH 12 0
BBX 10 7 1 2
BITMAP
2080
70C0
E180
FF00
FF00
6180
30C0
ENDCHAR
STARTCHAR 21A3
ENCODING 8611
SWIDTH 617 0
DWIDTH 12 0
BBX 10 7 1 2
BITMAP
8100
C300
6180
3FC0
7FC0
E180
C300
ENDCHAR
STARTCHAR 21A4
ENCODING 8612
SWIDTH 617 0
DWIDTH 12 0
BBX 10 7 1 2
BITMAP
20C0
70C0
C0C0
FFC0
FFC0
60C0
30C0
ENDCHAR
STARTCHAR 21A5
ENCODING 8613
SWIDTH 617 0
DWIDTH 12 0
BBX 7 11 2 0
BITMAP
18
3C
FE
5A
18
18
18
18
18
FE
FE
ENDCHAR
STARTCHAR 21A6
ENCODING 8614
SWIDTH 617 0
DWIDTH 12 0
BBX 10 7 1 2
BITMAP
8100
8380
8180
FFC0
FFC0
8180
8300
ENDCHAR
STARTCHAR 21A7
ENCODING 8615
SWIDTH 617 0
DWIDTH 12 0
BBX 7 11 2 0
BITMAP
FE
FE
18
18
18
18
18
5A
FE
3C
18
ENDCHAR
STARTCHAR 21A8
ENCODING 8616
SWIDTH 617 0
DWIDTH 12 0
BBX 7 11 2 0
BITMAP
18
3C
FE
5A
18
5A
FE
3C
18
FE
FE
ENDCHAR
STARTCHAR 21A9
ENCODING 8617
SWIDTH 617 0
DWIDTH 12 0
BBX 10 8 1 2
BITMAP
0180
21C0
70C0
E0C0
FFC0
FF80
6000
3000
ENDCHAR
STARTCHAR 21AA
ENCODING 8618
SWIDTH 617 0
DWIDTH 12 0
BBX 10 8 1 2
BITMAP
4000
C100
C380
C180
FFC0
7FC0
0180
0300
ENDCHAR
STARTCHAR 21AB
ENCODING 8619
SWIDTH 617 0
DWIDTH 12 0
BBX 10 8 1 2
BITMAP
0380
27C0
7EC0
EEC0
FFC0
FF80
6E00
3E00
ENDCHAR
STARTCHAR 21AC
ENCODING 8620
SWIDTH 617 0
DWIDTH 12 0
BBX 10 8 1 2
BITMAP
7000
F900
DB80
D980
FFC0
7FC0
1980
1B00
ENDCHAR
STARTCHAR 21AD
ENCODING 8621
SWIDTH 617 0
DWIDTH 12 0
BBX 10 7 1 2
BITMAP
2100
7B80
DDC0
F7C0
F3C0
6180
3300
ENDCHAR
STARTCHAR 21AE
ENCODING 8622
SWIDTH 617 0
DWIDTH 12 0
BBX 10 8 1 1
BITMAP
2500
7F00
ED80
FFC0
FFC0
6980
3B00
1800
ENDCHAR
STARTCHAR 21AF
ENCODING 8623
SWIDTH 617 0
DWIDTH 12 0
BBX 10 14 1 0
BITMAP
4000
6040
6180
6380
EF80
FF80
F300
E300
8300
0300
1B80
0FC0
0F80
0600
ENDCHAR
STARTCHAR 21B0
ENCODING 8624
SWIDTH 617 0
DWIDTH 12 0
BBX 8 13 2 0
BITMAP
30
60
FF
FF
E3
73
23
03
03
03
03
03
03
ENDCHAR
STARTCHAR 21B1
ENCODING 8625
SWIDTH 617 0
DWIDTH 12 0
BBX 9 13 1 0
BITMAP
0600
0300
FF80
FF80
E300
E600
E200
E000
E000
E000
E000
E000
E000
ENDCHAR
STARTCHAR 21B2
ENCODING 8626
SWIDTH 617 0
DWIDTH 12 0
BBX 8 13 2 0
BITMAP
03
03
03
03
03
03
23
73
E3
FF
FF
60
30
ENDCHAR
STARTCHAR 21B3
ENCODING 8627
SWIDTH 617 0
DWIDTH 12 0
BBX 9 13 1 0
BITMAP
E000
E000
E000
E000
E000
E000
E200
E600
E300
FF80
FF80
0300
0600
ENDCHAR
STARTCHAR 21B4
ENCODING 8628
SWIDTH 617 0
DWIDTH 12 0
BBX 8 11 2 0
BITMAP
FC
FC
0C
0C
0C
0C
0C
2D
7F
1E
0C
ENDCHAR
STARTCHAR 21B5
ENCODING 8629
SWIDTH 617 0
DWIDTH 12 0
BBX 10 8 1 0
BITMAP
00C0
00C0
70C0
E0C0
FFC0
FFC0
E000
7000
ENDCHAR
STARTCHAR 21B6
ENCODING 8630
SWIDTH 617 0
DWIDTH 12 0
BBX 11 6 0 4
BITMAP
0780
0FC0
1CE0
DE60
7E00
3C00
ENDCHAR
STARTCHAR 21B7
ENCODING 8631
SWIDTH 617 0
DWIDTH 12 0
BBX 11 7 0 3
BITMAP
0800
3E00
7700
65A0
EFE0
03C0
0180
ENDCHAR
STARTCHAR 21B8
ENCODING 8632
SWIDTH 617 0
DWIDTH 12 0
BBX 11 11 0 0
BITMAP
FFE0
0000
3C00
7C00
7800
7C00
6E00
0700
0380
01C0
0080
ENDCHAR
STARTCHAR 21B9
ENCODING 8633
SWIDTH 617 0
DWIDTH 12 0
BBX 10 13 1 0
BITMAP
9000
9800
B000
FFC0
FFC0
B000
9CC0
06C0
03C0
FFC0
FFC0
07C0
04C0
ENDCHAR
STARTCHAR 21BA
ENCODING 8634
SWIDTH 617 0
DWIDTH 12 0
BBX 10 10 1 0
BITMAP
03C0
07C0
4780
E780
C6C0
C0C0
C1C0
E380
7F00
3E00
ENDCHAR
STARTCHAR 21BB
ENCODING 8635
SWIDTH 617 0
DWIDTH 12 0
BBX 10 10 1 0
BITMAP
F000
F800
7880
F9C0
D8C0
C0C0
E1C0
73C0
7F80
1E00
ENDCHAR
STARTCHAR 21BC
ENCODING 8636
SWIDTH 617 0
DWIDTH 12 0
BBX 10 5 1 4
BITMAP
2000
7000
E000
FFC0
FFC0
ENDCHAR
STARTCHAR 21BD
ENCODING 8637
SWIDTH 617 0
DWIDTH 12 0
BBX 10 4 1 2
BITMAP
FFC0
FFC0
6000
3000
ENDCHAR
STARTCHAR 21BE
ENCODING 8638
SWIDTH 617 0
DWIDTH 12 0
BBX 4 11 5 0
BITMAP
C0
E0
F0
F0
C0
C0
C0
C0
C0
C0
C0
ENDCHAR
STARTCHAR 21BF
ENCODING 8639
SWIDTH 617 0
DWIDTH 12 0
BBX 5 11 2 0
BITMAP
18
38
F8
58
18
18
18
18
18
18
18
ENDCHAR
STARTCHAR 21C0
ENCODING 8640
SWIDTH 617 0
DWIDTH 12 0
BBX 10 5 1 4
BITMAP
0100
0300
0180
FFC0
FFC0
ENDCHAR
STARTCHAR 21C1
ENCODING 8641
SWIDTH 617 0
DWIDTH 12 0
BBX 10 4 1 2
BITMAP
FFC0
FFC0
0180
0300
ENDCHAR
STARTCHAR 21C2
ENCODING 8642
SWIDTH 617 0
DWIDTH 12 0
BBX 4 11 5 0
BITMAP
C0
C0
C0
C0
C0
C0
C0
D0
F0
E0
C0
ENDCHAR
STARTCHAR 21C3
ENCODING 8643
SWIDTH 617 0
DWIDTH 12 0
BBX 5 11 2 0
BITMAP
18
18
18
18
18
18
18
58
F8
38
18
ENDCHAR
STARTCHAR 21C4
ENCODING 8644
SWIDTH 617 0
DWIDTH 12 0
BBX 10 11 1 0
BITMAP
0300
0180
FFC0
FFC0
2180
7300
E100
FFC0
FFC0
6000
3000
ENDCHAR
STARTCHAR 21C5
ENCODING 8645
SWIDTH 617 0
DWIDTH 12 0
BBX 12 11 0 0
BITMAP
3980
7D80
FF80
7F80
3980
3980
3980
3DA0
3FF0
3BC0
3980
ENDCHAR
STARTCHAR 21C6
ENCODING 8646
SWIDTH 617 0
DWIDTH 12 0
BBX 10 11 1 0
BITMAP
3000
6000
FFC0
FFC0
E100
7300
2180
FFC0
FFC0
0180
0300
ENDCHAR
STARTCHAR 21C7
ENCODING 8647
SWIDTH 617 0
DWIDTH 12 0
BBX 10 11 1 0
BITMAP
3000
6000
FFC0
FFC0
E000
7000
E000
FFC0
FFC0
6000
3000
ENDCHAR
STARTCHAR 21C8
ENCODING 8648
SWIDTH 617 0
DWIDTH 12 0
BBX 12 11 0 0
BITMAP
3980
7FC0
FFF0
7DA0
3980
3980
3980
3980
3980
3980
3980
ENDCHAR
STARTCHAR 21C9
ENCODING 8649
SWIDTH 617 0
DWIDTH 12 0
BBX 10 11 1 0
BITMAP
0300
0180
FFC0
FFC0
0180
0300
0180
FFC0
FFC0
0180
0300
ENDCHAR
STARTCHAR 21CA
ENCODING 8650
SWIDTH 617 0
DWIDTH 12 0
BBX 12 11 0 0
BITMAP
3980
3980
3980
3980
3980
3980
3980
7DA0
FFF0
7FC0
3980
ENDCHAR
STARTCHAR 21CB
ENCODING 8651
SWIDTH 617 0
DWIDTH 12 0
BBX 10 11 1 0
BITMAP
3000
6000
FFC0
FFC0
0000
0000
0000
FFC0
FFC0
0180
0300
ENDCHAR
STARTCHAR 21CC
ENCODING 8652
SWIDTH 617 0
DWIDTH 12 0
BBX 10 11 1 0
BITMAP
0300
0180
FFC0
FFC0
0000
0000
0000
FFC0
FFC0
6000
3000
ENDCHAR
STARTCHAR 21CD
ENCODING 8653
SWIDTH 617 0
DWIDTH 12 0
BBX 10 7 1 2
BITMAP
2100
7100
FFC0
8200
FFC0
7C00
2000
ENDCHAR
STARTCHAR 21CE
ENCODING 8654
SWIDTH 617 0
DWIDTH 12 0
BBX 10 7 1 2
BITMAP
2D00
7F80
FFC0
8CC0
FFC0
7F80
2D00
ENDCHAR
STARTCHAR 21CF
ENCODING 8655
SWIDTH 617 0
DWIDTH 12 0
BBX 10 7 1 2
BITMAP
0100
0F80
FFC0
10C0
FFC0
6380
2100
ENDCHAR
STARTCHAR 21D0
ENCODING 8656
SWIDTH 617 0
DWIDTH 12 0
BBX 10 7 1 2
BITMAP
2000
7000
FFC0
8000
FFC0
7000
2000
ENDCHAR
STARTCHAR 21D1
ENCODING 8657
SWIDTH 617 0
DWIDTH 12 0
BBX 7 11 2 0
BITMAP
18
3C
E6
66
24
24
24
24
24
24
24
ENDCHAR
STARTCHAR 21D2
ENCODING 8658
SWIDTH 617 0
DWIDTH 12 0
BBX 10 7 1 2
BITMAP
0100
0380
FFC0
00C0
FFC0
0380
0100
ENDCHAR
STARTCHAR 21D3
ENCODING 8659
SWIDTH 617 0
DWIDTH 12 0
BBX 7 11 2 0
BITMAP
24
24
24
24
24
24
24
66
E6
3C
18
ENDCHAR
STARTCHAR 21D4
ENCODING 8660
SWIDTH 617 0
DWIDTH 12 0
BBX 10 7 1 2
BITMAP
2100
7380
FFC0
80C0
FFC0
7380
2100
ENDCHAR
STARTCHAR 21D5
ENCODING 8661
SWIDTH 617 0
DWIDTH 12 0
BBX 7 11 2 0
BITMAP
18
3C
E6
66
24
24
24
66
E6
3C
18
ENDCHAR
STARTCHAR 21D6
ENCODING 8662
SWIDTH 617 0
DWIDTH 12 0
BBX 9 10 1 -1
BITMAP
7800
F800
D800
EC00
F600
1300
0900
0480
0200
0100
ENDCHAR
STARTCHAR 21D7
ENCODING 8663
SWIDTH 617 0
DWIDTH 12 0
BBX 10 10 1 -1
BITMAP
0F80
0FC0
04C0
09C0
1BC0
3600
6C00
D800
3000
2000
ENDCHAR
STARTCHAR 21D8
ENCODING 8664
SWIDTH 617 0
DWIDTH 12 0
BBX 10 9 1 0
BITMAP
2000
5000
C800
2400
12C0
09C0
04C0
0FC0
0F80
ENDCHAR
STARTCHAR 21D9
ENCODING 8665
SWIDTH 617 0
DWIDTH 12 0
BBX 9 9 1 0
BITMAP
0300
0680
0480
0900
D200
E400
C800
F800
7800
ENDCHAR
STARTCHAR 21DA
ENCODING 8666
SWIDTH 617 0
DWIDTH 12 0
BBX 10 7 1 2
BITMAP
2000
7FC0
C000
FFC0
C000
7FC0
2000
ENDCHAR
STARTCHAR 21DB
ENCODING 8667
SWIDTH 617 0
DWIDTH 12 0
BBX 10 7 1 2
BITMAP
0100
FF80
00C0
FFC0
00C0
FF80
0100
ENDCHAR
STARTCHAR 21DC
ENCODING 8668
SWIDTH 617 0
DWIDTH 12 0
BBX 10 7 1 2
BITMAP
2000
7000
E200
FFC0
FDC0
6880
3000
ENDCHAR
STARTCHAR 21DD
ENCODING 8669
SWIDTH 617 0
DWIDTH 12 0
BBX 10 7 1 2
BITMAP
0100
0300
3180
FFC0
EFC0
4D80
0300
ENDCHAR
STARTCHAR 21E0
ENCODING 8672
SWIDTH 617 0
DWIDTH 12 0
BBX 10 7 1 2
BITMAP
2000
7000
E000
F6C0
F6C0
6000
3000
ENDCHAR
STARTCHAR 21E1
ENCODING 8673
SWIDTH 617 0
DWIDTH 12 0
BBX 7 11 2 0
BITMAP
18
3C
7E
DE
18
00
18
18
00
18
18
ENDCHAR
STARTCHAR 21E2
ENCODING 8674
SWIDTH 617 0
DWIDTH 12 0
BBX 10 7 1 2
BITMAP
0100
0300
0180
93C0
93C0
0180
0300
ENDCHAR
STARTCHAR 21E3
ENCODING 8675
SWIDTH 617 0
DWIDTH 12 0
BBX 7 11 2 0
BITMAP
18
18
00
18
18
00
18
DE
7E
3C
18
ENDCHAR
STARTCHAR 21E4
ENCODING 8676
SWIDTH 617 0
DWIDTH 12 0
BBX 10 7 1 2
BITMAP
9000
9800
B000
FFC0
FFC0
B000
9800
ENDCHAR
STARTCHAR 21E5
ENCODING 8677
SWIDTH 617 0
DWIDTH 12 0
BBX 10 7 1 2
BITMAP
04C0
06C0
03C0
FFC0
FFC0
07C0
04C0
ENDCHAR
STARTCHAR 21E6
ENCODING 8678
SWIDTH 617 0
DWIDTH 12 0
BBX 11 8 0 2
BITMAP
1000
3000
7FE0
C020
4020
7FE0
3000
1000
ENDCHAR
STARTCHAR 21E7
ENCODING 8679
SWIDTH 617 0
DWIDTH 12 0
BBX 8 11 2 0
BITMAP
10
3C
66
E5
24
24
24
24
24
24
3C
ENDCHAR
STARTCHAR 21E8
ENCODING 8680
SWIDTH 617 0
DWIDTH 12 0
BBX 11 8 1 2
BITMAP
0100
0100
FF80
8060
8040
FF80
0100
0100
ENDCHAR
STARTCHAR 21E9
ENCODING 8681
SWIDTH 617 0
DWIDTH 12 0
BBX 8 11 2 0
BITMAP
3C
24
24
24
24
24
24
E7
46
2C
18
ENDCHAR
STARTCHAR 21EB
ENCODING 8683
SWIDTH 617 0
DWIDTH 12 0
BBX 8 11 2 0
BITMAP
10
3C
66
E5
24
24
24
24
67
81
FF
ENDCHAR
STARTCHAR 21EC
ENCODING 8684
SWIDTH 617 0
DWIDTH 12 0
BBX 8 11 2 0
BITMAP
10
38
64
FF
24
24
24
24
E7
81
FF
ENDCHAR
STARTCHAR 21ED
ENCODING 8685
SWIDTH 617 0
DWIDTH 12 0
BBX 8 11 2 0
BITMAP
10
3C
76
F5
34
34
34
34
77
91
FF
ENDCHAR
STARTCHAR 21EE
ENCODING 8686
SWIDTH 617 0
DWIDTH 12 0
BBX 8 11 2 0
BITMAP
10
3C
76
FD
66
E7
24
24
24
24
3C
ENDCHAR
STARTCHAR 21EF
ENCODING 8687
SWIDTH 617 0
DWIDTH 12 0
BBX 8 11 2 0
BITMAP
10
3C
76
FD
66
E7
24
24
67
81
FF
ENDCHAR
STARTCHAR 21F0
ENCODING 8688
SWIDTH 617 0
DWIDTH 12 0
BBX 11 8 1 2
BITMAP
C100
C100
FF80
8040
8060
FF80
C100
C100
ENDCHAR
STARTCHAR 21F1
ENCODING 8689
SWIDTH 617 0
DWIDTH 12 0
BBX 11 11 0 0
BITMAP
FFE0
8000
9F00
9F00
9C00
9E00
9700
9380
81C0
80E0
8040
ENDCHAR
STARTCHAR 21F2
ENCODING 8690
SWIDTH 617 0
DWIDTH 12 0
BBX 11 11 0 0
BITMAP
6020
F020
3020
3820
1DA0
0FA0
07A0
0FA0
0F20
0020
7FE0
ENDCHAR
STARTCHAR 21F3
ENCODING 8691
SWIDTH 617 0
DWIDTH 12 0
BBX 8 11 2 0
BITMAP
10
38
64
E7
24
24
24
E7
64
38
10
ENDCHAR
STARTCHAR 21F4
ENCODING 8692
SWIDTH 617 0
DWIDTH 12 0
BBX 10 6 1 2
BITMAP
7B00
FD80
FFC0
FFC0
7D80
7B00
ENDCHAR
STARTCHAR 21F5
ENCODING 8693
SWIDTH 617 0
DWIDTH 12 0
BBX 12 11 0 0
BITMAP
3980
3BC0
3FF0
3DA0
3980
3980
3980
7D80
FF80
7D80
3980
ENDCHAR
STARTCHAR 21F6
ENCODING 8694
SWIDTH 617 0
DWIDTH 12 0
BBX 10 15 1 -2
BITMAP
0300
0180
FFC0
FFC0
0180
0380
FFC0
FFC0
0180
0300
0180
FFC0
FFC0
0180
0300
ENDCHAR
STARTCHAR 21F7
ENCODING 8695
SWIDTH 617 0
DWIDTH 12 0
BBX 10 7 1 2
BITMAP
2600
7600
C600
FFC0
FFC0
6600
3600
ENDCHAR
STARTCHAR 21F8
ENCODING 8696
SWIDTH 617 0
DWIDTH 12 0
BBX 10 7 1 2
BITMAP
1900
1B80
1980
FFC0
FFC0
1980
1B00
ENDCHAR
STARTCHAR 21F9
ENCODING 8697
SWIDTH 617 0
DWIDTH 12 0
BBX 10 7 1 2
BITMAP
3F00
6D80
FFC0
FFC0
CDC0
7F80
2D00
ENDCHAR
STARTCHAR 21FA
ENCODING 8698
SWIDTH 617 0
DWIDTH 12 0
BBX 10 7 1 2
BITMAP
2D80
7D80
CD80
FFC0
FFC0
6D80
3D80
ENDCHAR
STARTCHAR 21FB
ENCODING 8699
SWIDTH 617 0
DWIDTH 12 0
BBX 10 7 1 2
BITMAP
7900
7B80
7980
FFC0
FFC0
7980
7B00
ENDCHAR
STARTCHAR 21FC
ENCODING 8700
SWIDTH 617 0
DWIDTH 12 0
BBX 10 7 1 2
BITMAP
2D00
7F80
ED80
FFC0
FFC0
6D80
3F00
ENDCHAR
STARTCHAR 21FD
ENCODING 8701
SWIDTH 617 0
DWIDTH 12 0
BBX 11 8 0 1
BITMAP
1000
3000
7000
DFE0
5FE0
3000
3000
1000
ENDCHAR
STARTCHAR 21FE
ENCODING 8702
SWIDTH 617 0
DWIDTH 12 0
BBX 11 8 1 1
BITMAP
0100
0100
0180
FF60
FF40
0180
0100
0100
ENDCHAR
STARTCHAR 21FF
ENCODING 8703
SWIDTH 617 0
DWIDTH 12 0
BBX 12 8 0 1
BITMAP
1080
3080
70C0
DFB0
5FA0
30C0
3080
1080
ENDCHAR
STARTCHAR 2200
ENCODING 8704
SWIDTH 617 0
DWIDTH 12 0
BBX 11 14 0 0
BITMAP
E0E0
70E0
70E0
7FC0
3FC0
39C0
39C0
3980
1B80
1B80
1F80
1F00
0F00
0F00
ENDCHAR
STARTCHAR 2201
ENCODING 8705
SWIDTH 617 0
DWIDTH 12 0
BBX 12 14 0 0
BITMAP
1F80
3FC0
7FE0
70E0
F010
F000
F000
F000
F000
F010
70E0
7FE0
3FC0
1F80
ENDCHAR
STARTCHAR 2202
ENCODING 8706
SWIDTH 617 0
DWIDTH 12 0
BBX 9 13 1 0
BITMAP
1E00
3900
1180
0180
0180
3D80
7380
6380
E380
E380
6300
6600
3C00
ENDCHAR
STARTCHAR 2203
ENCODING 8707
SWIDTH 617 0
DWIDTH 12 0
BBX 8 14 2 0
BITMAP
FF
FF
07
07
07
07
FF
FF
07
07
07
07
FF
FF
ENDCHAR
STARTCHAR 2204
ENCODING 8708
SWIDTH 617 0
DWIDTH 12 0
BBX 8 16 2 -1
BITMAP
0C
FF
FF
1F
1F
1F
17
FF
FF
37
27
67
67
FF
FF
C0
ENDCHAR
STARTCHAR 2205
ENCODING 8709
SWIDTH 617 0
DWIDTH 12 0
BBX 10 11 1 0
BITMAP
1EC0
7FC0
6180
C3C0
C6C0
8CC0
D8C0
F0C0
6180
FF00
9E00
ENDCHAR
STARTCHAR 2206
ENCODING 8710
SWIDTH 617 0
DWIDTH 12 0
BBX 12 14 0 0
BITMAP
0600
0E00
0F00
0F00
1F00
1B80
1980
39C0
31C0
70C0
70E0
60E0
FFE0
FFF0
ENDCHAR
STARTCHAR 2207
ENCODING 8711
SWIDTH 617 0
DWIDTH 12 0
BBX 12 14 0 0
BITMAP
FFF0
FFE0
60E0
70E0
70C0
31C0
39C0
3980
1B80
1F80
1F00
0F00
0F00
0E00
ENDCHAR
STARTCHAR 2208
ENCODING 8712
SWIDTH 617 0
DWIDTH 12 0
BBX 10 14 1 0
BITMAP
1FC0
3FC0
7000
6000
E000
C000
FFC0
FFC0
C000
E000
6000
7000
3FC0
1FC0
ENDCHAR
STARTCHAR 2209
ENCODING 8713
SWIDTH 617 0
DWIDTH 12 0
BBX 10 18 1 -2
BITMAP
0080
01C0
1FC0
3FC0
7380
6300
E700
C600
FFC0
FFC0
CC00
FC00
7800
7800
3FC0
3FC0
6000
2000
ENDCHAR
STARTCHAR 220A
ENCODING 8714
SWIDTH 617 0
DWIDTH 12 0
BBX 10 10 1 1
BITMAP
1FC0
7FC0
7000
E000
FFC0
FFC0
C000
7000
7FC0
1FC0
ENDCHAR
STARTCHAR 220B
ENCODING 8715
SWIDTH 617 0
DWIDTH 12 0
BBX 10 14 1 0
BITMAP
FE00
FF00
0380
0180
0180
01C0
FFC0
FFC0
01C0
0180
0180
0380
FF00
FE00
ENDCHAR
STARTCHAR 220C
ENCODING 8716
SWIDTH 617 0
DWIDTH 12 0
BBX 10 18 1 -2
BITMAP
0380
0300
FF00
FF00
0780
0F80
0D80
0CC0
FFC0
FFC0
38C0
31C0
3180
7380
FF00
FE00
E000
4000
ENDCHAR
STARTCHAR 220D
ENCODING 8717
SWIDTH 617 0
DWIDTH 12 0
BBX 10 10 1 1
BITMAP
FE00
FF00
0380
01C0
FFC0
FFC0
01C0
0380
FF00
FE00
ENDCHAR
STARTCHAR 220E
ENCODING 8718
SWIDTH 617 0
DWIDTH 12 0
BBX 7 12 2 0
BITMAP
FE
FE
FE
FE
FE
FE
FE
FE
FE
FE
FE
FE
ENDCHAR
STARTCHAR 220F
ENCODING 8719
SWIDTH 617 0
DWIDTH 12 0
BBX 9 18 1 -4
BITMAP
FF80
FF80
E180
E180
E180
E180
E180
E180
E180
E180
E180
E180
E180
E180
E180
E180
E180
E180
ENDCHAR
STARTCHAR 2210
ENCODING 8720
SWIDTH 617 0
DWIDTH 12 0
BBX 9 18 1 -4
BITMAP
E180
E180
E180
E180
E180
E180
E180
E180
E180
E180
E180
E180
E180
E180
E180
E180
FF80
FF80
ENDCHAR
STARTCHAR 2211
ENCODING 8721
SWIDTH 617 0
DWIDTH 12 0
BBX 9 18 1 -4
BITMAP
FF80
FF80
6000
7000
3800
1800
1C00
0E00
0600
0E00
0C00
1C00
1800
3800
7000
6000
FF80
FF80
ENDCHAR
STARTCHAR 2212
ENCODING 8722
SWIDTH 617 0
DWIDTH 12 0
BBX 10 2 1 5
BITMAP
FFC0
FFC0
ENDCHAR
STARTCHAR 2213
ENCODING 8723
SWIDTH 617 0
DWIDTH 12 0
BBX 10 12 1 0
BITMAP
FFC0
FFC0
0000
0C00
0C00
0C00
FFC0
FFC0
0C00
0C00
0C00
0C00
ENDCHAR
STARTCHAR 2217
ENCODING 8727
SWIDTH 617 0
DWIDTH 12 0
BBX 10 9 1 2
BITMAP
0C00
0C00
EDC0
7F00
1C00
7F00
EDC0
8C80
0C00
ENDCHAR
STARTCHAR 2218
ENCODING 8728
SWIDTH 617 0
DWIDTH 12 0
BBX 6 7 3 4
BITMAP
70
F8
CC
8C
CC
F8
78
ENDCHAR
STARTCHAR 221A
ENCODING 8730
SWIDTH 617 0
DWIDTH 12 0
BBX 11 17 0 0
BITMAP
0060
0060
00E0
00C0
00C0
00C0
0180
1180
F180
7380
1B00
1B00
1B00
1E00
0E00
0E00
0C00
ENDCHAR
STARTCHAR 221B
ENCODING 8731
SWIDTH 617 0
DWIDTH 12 0
BBX 11 18 0 0
BITMAP
7C00
0660
0660
3CE0
06C0
06C0
86C0
7D80
0180
B180
7380
5B00
1B00
1B00
1E00
0E00
0E00
0C00
ENDCHAR
STARTCHAR 221C
ENCODING 8732
SWIDTH 617 0
DWIDTH 12 0
BBX 11 18 0 0
BITMAP
0C00
1C60
2C60
4CE0
FEC0
0CC0
0DC0
0180
3180
F180
7B80
1B00
1B00
1F00
0E00
0E00
0E00
0C00
ENDCHAR
STARTCHAR 221D
ENCODING 8733
SWIDTH 617 0
DWIDTH 12 0
BBX 8 8 2 2
BITMAP
71
FB
CE
8E
8E
CE
FB
71
ENDCHAR
STARTCHAR 221E
ENCODING 8734
SWIDTH 617 0
DWIDTH 12 0
BBX 12 8 0 2
BITMAP
39C0
7BE0
CF60
C630
C630
CF60
7BE0
39C0
ENDCHAR
STARTCHAR 221F
ENCODING 8735
SWIDTH 617 0
DWIDTH 12 0
BBX 10 10 1 2
BITMAP
C000
C000
C000
C000
C000
C000
C000
C000
FFC0
FFC0
ENDCHAR
STARTCHAR 2220
ENCODING 8736
SWIDTH 617 0
DWIDTH 12 0
BBX 10 10 1 2
BITMAP
01C0
0380
0300
0600
0C00
1800
3800
3000
7FC0
FFC0
ENDCHAR
STARTCHAR 2223
ENCODING 8739
SWIDTH 617 0
DWIDTH 12 0
BBX 2 20 5 -5
BITMAP
C0
C0
C0
C0
C0
C0
C0
C0
C0
C0
C0
C0
C0
C0
C0
C0
C0
C0
C0
C0
ENDCHAR
STARTCHAR 2227
ENCODING 8743
SWIDTH 617 0
DWIDTH 12 0
BBX 8 11 2 0
BITMAP
3C
3C
3C
7C
7E
6E
6E
E6
E6
E7
E7
ENDCHAR
STARTCHAR 2228
ENCODING 8744
SWIDTH 617 0
DWIDTH 12 0
BBX 8 11 2 0
BITMAP
E7
E7
E6
E6
6E
6E
7E
7C
3C
3C
3C
ENDCHAR
STARTCHAR 2229
ENCODING 8745
SWIDTH 617 0
DWIDTH 12 0
BBX 8 11 2 0
BITMAP
3C
7E
E7
C7
C3
C3
C3
C3
C3
C3
C3
ENDCHAR
STARTCHAR 222A
ENCODING 8746
SWIDTH 617 0
DWIDTH 12 0
BBX 8 12 2 0
BITMAP
C3
C3
C3
C3
C3
C3
C3
C3
C7
FF
7E
3C
ENDCHAR
STARTCHAR 222B
ENCODING 8747
SWIDTH 617 0
DWIDTH 12 0
BBX 10 18 1 -3
BITMAP
03C0
06C0
04C0
0C00
0C00
0C00
0C00
0C00
0C00
0C00
0C00
0C00
0C00
1C00
1800
D800
D000
E000
ENDCHAR
STARTCHAR 222C
ENCODING 8748
SWIDTH 617 0
DWIDTH 12 0
BBX 12 22 0 -4
BITMAP
1CE0
3FF0
3DE0
39C0
39C0
39C0
39C0
39C0
39C0
39C0
39C0
39C0
39C0
39C0
39C0
39C0
39C0
39C0
39C0
BD80
F780
7380
ENDCHAR
STARTCHAR 222D
ENCODING 8749
SWIDTH 617 0
DWIDTH 12 0
BBX 12 22 0 -4
BITMAP
3B70
7FF0
76E0
76E0
76E0
76E0
76E0
76E0
76E0
76E0
76E0
76E0
76E0
76E0
76E0
76E0
76E0
76E0
76E0
66E0
EFC0
FDC0
ENDCHAR
STARTCHAR 2234
ENCODING 8756
SWIDTH 617 0
DWIDTH 12 0
BBX 9 10 1 1
BITMAP
1C00
1C00
1C00
0000
0000
0000
0000
F380
F380
F380
ENDCHAR
STARTCHAR 2235
ENCODING 8757
SWIDTH 617 0
DWIDTH 12 0
BBX 9 10 1 1
BITMAP
F380
F380
F380
0000
0000
0000
0000
1C00
1C00
1C00
ENDCHAR
STARTCHAR 2236
ENCODING 8758
SWIDTH 617 0
DWIDTH 12 0
BBX 3 10 4 1
BITMAP
E0
E0
E0
00
00
00
00
E0
E0
E0
ENDCHAR
STARTCHAR 2237
ENCODING 8759
SWIDTH 617 0
DWIDTH 12 0
BBX 9 10 1 1
BITMAP
F380
F380
F380
0000
0000
0000
0000
F380
F380
F380
ENDCHAR
STARTCHAR 2238
ENCODING 8760
SWIDTH 617 0
DWIDTH 12 0
BBX 10 7 1 5
BITMAP
1C00
1C00
1C00
1C00
0000
FFC0
FFC0
ENDCHAR
STARTCHAR 2239
ENCODING 8761
SWIDTH 617 0
DWIDTH 12 0
BBX 10 10 1 1
BITMAP
01C0
01C0
01C0
0000
FE00
FE00
0000
01C0
01C0
01C0
ENDCHAR
STARTCHAR 223A
ENCODING 8762
SWIDTH 617 0
DWIDTH 12 0
BBX 11 12 0 1
BITMAP
F0E0
F0E0
F0E0
F0E0
0000
7FE0
7FE0
0000
F0E0
F0E0
F0E0
F0E0
ENDCHAR
STARTCHAR 223B
ENCODING 8763
SWIDTH 617 0
DWIDTH 12 0
BBX 10 12 1 0
BITMAP
1C00
1C00
1C00
1C00
7840
FFC0
8FC0
0000
1C00
1C00
1C00
1C00
ENDCHAR
STARTCHAR 223C
ENCODING 8764
SWIDTH 617 0
DWIDTH 12 0
BBX 10 3 1 4
BITMAP
FCC0
FFC0
8780
ENDCHAR
STARTCHAR 223D
ENCODING 8765
SWIDTH 617 0
DWIDTH 12 0
BBX 10 3 1 4
BITMAP
8FC0
FFC0
7840
ENDCHAR
STARTCHAR 2241
ENCODING 8769
SWIDTH 617 0
DWIDTH 12 0
BBX 10 11 1 0
BITMAP
0400
0600
0600
0E00
FCC0
FFC0
9F80
1800
1800
3800
0800
ENDCHAR
STARTCHAR 2242
ENCODING 8770
SWIDTH 617 0
DWIDTH 12 0
BBX 10 7 1 2
BITMAP
FFC0
FFC0
0000
0000
FCC0
FFC0
8780
ENDCHAR
STARTCHAR 2243
ENCODING 8771
SWIDTH 617 0
DWIDTH 12 0
BBX 10 7 1 3
BITMAP
7840
FFC0
8FC0
0000
0000
FFC0
FFC0
ENDCHAR
STARTCHAR 2244
ENCODING 8772
SWIDTH 617 0
DWIDTH 12 0
BBX 10 13 1 0
BITMAP
0100
0180
0300
7E40
FFC0
8FC0
0D00
1800
FFC0
FFC0
2000
6000
2000
ENDCHAR
STARTCHAR 2245
ENCODING 8773
SWIDTH 617 0
DWIDTH 12 0
BBX 10 11 1 1
BITMAP
7840
FFC0
8FC0
0000
0000
FFC0
FFC0
0000
0000
FFC0
FFC0
ENDCHAR
STARTCHAR 2246
ENCODING 8774
SWIDTH 617 0
DWIDTH 12 0
BBX 10 13 1 -1
BITMAP
7840
FFC0
8FC0
0200
0300
FFC0
FFC0
0C00
1C00
FFC0
FFC0
7000
2000
ENDCHAR
STARTCHAR 2247
ENCODING 8775
SWIDTH 617 0
DWIDTH 12 0
BBX 10 15 1 -1
BITMAP
0100
0380
FB40
FFC0
8780
0E00
FFC0
FFC0
1C00
1800
3800
FFC0
FFC0
7000
2000
ENDCHAR
STARTCHAR 2248
ENCODING 8776
SWIDTH 617 0
DWIDTH 12 0
BBX 10 7 1 2
BITMAP
FCC0
FFC0
8780
0000
FCC0
FFC0
8780
ENDCHAR
STARTCHAR 2249
ENCODING 8777
SWIDTH 617 0
DWIDTH 12 0
BBX 10 11 1 0
BITMAP
0300
0700
FEC0
FFC0
8F80
0C00
FCC0
FFC0
BF80
3000
1000
ENDCHAR
STARTCHAR 224A
ENCODING 8778
SWIDTH 617 0
DWIDTH 12 0
BBX 10 11 1 1
BITMAP
7840
FFC0
8FC0
0000
7840
FFC0
8FC0
0000
0000
FFC0
FFC0
ENDCHAR
STARTCHAR 224B
ENCODING 8779
SWIDTH 617 0
DWIDTH 12 0
BBX 10 11 1 0
BITMAP
FFC0
FFC0
0000
0000
FCC0
FFC0
8780
0000
FCC0
FFC0
8780
ENDCHAR
STARTCHAR 224C
ENCODING 8780
SWIDTH 617 0
DWIDTH 12 0
BBX 10 11 1 1
BITMAP
8780
FFC0
FCC0
0000
0000
FFC0
FFC0
0000
0000
FFC0
FFC0
ENDCHAR
STARTCHAR 224D
ENCODING 8781
SWIDTH 617 0
DWIDTH 12 0
BBX 10 9 1 2
BITMAP
8040
C1C0
FFC0
3F00
0000
0000
3F00
FFC0
C1C0
ENDCHAR
STARTCHAR 224E
ENCODING 8782
SWIDTH 617 0
DWIDTH 12 0
BBX 10 12 1 0
BITMAP
1C00
3E00
3300
E3C0
E1C0
0000
0000
E1C0
E3C0
3300
3E00
1C00
ENDCHAR
STARTCHAR 224F
ENCODING 8783
SWIDTH 617 0
DWIDTH 12 0
BBX 10 9 1 3
BITMAP
1E00
3F00
F3C0
E3C0
0000
0000
0000
FFC0
FFC0
ENDCHAR
STARTCHAR 2250
ENCODING 8784
SWIDTH 617 0
DWIDTH 12 0
BBX 10 11 1 3
BITMAP
1C00
1C00
1C00
1C00
0000
FFC0
FFC0
0000
0000
FFC0
FFC0
ENDCHAR
STARTCHAR 2251
ENCODING 8785
SWIDTH 617 0
DWIDTH 12 0
BBX 10 16 1 -2
BITMAP
1C00
1C00
1C00
1C00
0000
FFC0
FFC0
0000
0000
FFC0
FFC0
0000
1C00
1C00
1C00
1C00
ENDCHAR
STARTCHAR 2252
ENCODING 8786
SWIDTH 617 0
DWIDTH 12 0
BBX 10 16 1 -2
BITMAP
E000
E000
E000
E000
0000
FFC0
FFC0
0000
0000
FFC0
FFC0
0000
01C0
01C0
01C0
01C0
ENDCHAR
STARTCHAR 2253
ENCODING 8787
SWIDTH 617 0
DWIDTH 12 0
BBX 10 16 1 -2
BITMAP
01C0
01C0
01C0
01C0
0000
FFC0
FFC0
0000
0000
FFC0
FFC0
0000
E000
E000
E000
E000
ENDCHAR
STARTCHAR 2254
ENCODING 8788
SWIDTH 617 0
DWIDTH 12 0
BBX 10 7 1 2
BITMAP
DFC0
DFC0
C000
0000
DFC0
DFC0
C000
ENDCHAR
STARTCHAR 2255
ENCODING 8789
SWIDTH 617 0
DWIDTH 12 0
BBX 10 7 1 2
BITMAP
FEC0
FEC0
00C0
0000
FEC0
FEC0
00C0
ENDCHAR
STARTCHAR 2256
ENCODING 8790
SWIDTH 617 0
DWIDTH 12 0
BBX 10 7 1 3
BITMAP
FFC0
FFC0
3300
3300
3200
FFC0
FFC0
ENDCHAR
STARTCHAR 2257
ENCODING 8791
SWIDTH 617 0
DWIDTH 12 0
BBX 10 13 1 3
BITMAP
1E00
3E00
3300
3300
3E00
1C00
FFC0
FFC0
0000
0000
0000
FFC0
FFC0
ENDCHAR
STARTCHAR 2258
ENCODING 8792
SWIDTH 617 0
DWIDTH 12 0
BBX 10 11 1 3
BITMAP
3E00
7F80
6380
4080
0000
FFC0
FFC0
0000
0000
FFC0
FFC0
ENDCHAR
STARTCHAR 2259
ENCODING 8793
SWIDTH 617 0
DWIDTH 12 0
BBX 10 14 1 3
BITMAP
0C00
0C00
1C00
1E00
1E00
3200
3300
FFC0
FFC0
0000
0000
0000
FFC0
FFC0
ENDCHAR
STARTCHAR 225A
ENCODING 8794
SWIDTH 617 0
DWIDTH 12 0
BBX 10 14 1 3
BITMAP
3300
3200
1600
1E00
1C00
0C00
0C00
FFC0
FFC0
0000
0000
0000
FFC0
FFC0
ENDCHAR
STARTCHAR 225B
ENCODING 8795
SWIDTH 617 0
DWIDTH 12 0
BBX 10 15 1 3
BITMAP
0800
0800
4F80
3E00
1C00
1600
2200
0000
FFC0
FFC0
0000
0000
0000
FFC0
FFC0
ENDCHAR
STARTCHAR 225C
ENCODING 8796
SWIDTH 617 0
DWIDTH 12 0
BBX 10 15 1 3
BITMAP
0800
0C00
0C00
1E00
1600
3200
3F00
3F00
FFC0
FFC0
0000
0000
0000
FFC0
FFC0
ENDCHAR
STARTCHAR 225D
ENCODING 8797
SWIDTH 617 0
DWIDTH 12 0
BBX 10 11 1 3
BITMAP
20C0
EFC0
AE80
EE80
0000
FFC0
FFC0
0000
0000
FFC0
FFC0
ENDCHAR
STARTCHAR 225E
ENCODING 8798
SWIDTH 617 0
DWIDTH 12 0
BBX 10 13 1 3
BITMAP
5B80
6D80
4D80
4D80
4D80
0000
FFC0
FFC0
0000
0000
0000
FFC0
FFC0
ENDCHAR
STARTCHAR 225F
ENCODING 8799
SWIDTH 617 0
DWIDTH 12 0
BBX 10 15 1 3
BITMAP
1C00
2600
0600
0C00
0C00
0000
0800
0800
FFC0
FFC0
0000
0000
0000
FFC0
FFC0
ENDCHAR
STARTCHAR 2260
ENCODING 8800
SWIDTH 617 0
DWIDTH 12 0
BBX 10 13 1 0
BITMAP
0080
01C0
0380
FFC0
FFC0
0E00
0C00
1800
FFC0
FFC0
6000
C000
4000
ENDCHAR
STARTCHAR 2261
ENCODING 8801
SWIDTH 617 0
DWIDTH 12 0
BBX 10 11 1 1
BITMAP
FFC0
FFC0
0000
0000
FFC0
FFC0
0000
0000
0000
FFC0
FFC0
ENDCHAR
STARTCHAR 2262
ENCODING 8802
SWIDTH 617 0
DWIDTH 12 0
BBX 10 15 1 -1
BITMAP
0100
0380
FFC0
FFC0
0600
0E00
FFC0
FFC0
1C00
1800
3800
FFC0
FFC0
6000
2000
ENDCHAR
STARTCHAR 2263
ENCODING 8803
SWIDTH 617 0
DWIDTH 12 0
BBX 10 14 1 -1
BITMAP
FFC0
FFC0
0000
0000
FFC0
FFC0
0000
0000
FFC0
FFC0
0000
0000
FFC0
FFC0
ENDCHAR
STARTCHAR 2264
ENCODING 8804
SWIDTH 617 0
DWIDTH 12 0
BBX 10 11 1 0
BITMAP
01C0
0FC0
7F00
F000
F800
7F00
0FC0
01C0
0000
FFC0
FFC0
ENDCHAR
STARTCHAR 2265
ENCODING 8805
SWIDTH 617 0
DWIDTH 12 0
BBX 10 11 1 0
BITMAP
E000
FC00
3F80
07C0
07C0
7F00
F800
C000
0000
FFC0
FFC0
ENDCHAR
STARTCHAR 2266
ENCODING 8806
SWIDTH 617 0
DWIDTH 12 0
BBX 10 14 1 -2
BITMAP
01C0
0FC0
7F00
F000
F800
7F00
0FC0
00C0
0000
FFC0
FFC0
0000
FFC0
FFC0
ENDCHAR
STARTCHAR 2267
ENCODING 8807
SWIDTH 617 0
DWIDTH 12 0
BBX 10 14 1 -2
BITMAP
E000
FC00
3F80
07C0
07C0
7F00
F800
C000
0000
FFC0
FFC0
0000
FFC0
FFC0
ENDCHAR
STARTCHAR 2268
ENCODING 8808
SWIDTH 617 0
DWIDTH 12 0
BBX 10 15 1 -3
BITMAP
01C0
0FC0
7F00
F000
F800
7F00
0FC0
01C0
0300
FFC0
FFC0
1C00
FFC0
FFC0
2000
ENDCHAR
STARTCHAR 2269
ENCODING 8809
SWIDTH 617 0
DWIDTH 12 0
BBX 10 15 1 -3
BITMAP
E000
FC00
3F80
07C0
07C0
7F00
F800
C100
0300
FFC0
FFC0
1C00
FFC0
FFC0
2000
ENDCHAR
STARTCHAR 226D
ENCODING 8813
SWIDTH 617 0
DWIDTH 12 0
BBX 10 14 1 -1
BITMAP
0380
0300
8340
C7C0
FFC0
3F00
0C00
0C00
3F00
FFC0
F9C0
B040
3000
6000
ENDCHAR
STARTCHAR 226E
ENCODING 8814
SWIDTH 617 0
DWIDTH 12 0
BBX 10 12 1 0
BITMAP
0300
03C0
03C0
1F80
7E00
EC00
FC00
7E00
1FC0
1BC0
1040
3000
ENDCHAR
STARTCHAR 226F
ENCODING 8815
SWIDTH 617 0
DWIDTH 12 0
BBX 10 12 1 0
BITMAP
0200
8600
F600
7E00
1F80
0FC0
1BC0
1F80
FC00
F000
B000
2000
ENDCHAR
STARTCHAR 2270
ENCODING 8816
SWIDTH 617 0
DWIDTH 12 0
BBX 10 15 1 -2
BITMAP
0180
0300
03C0
0FC0
7F00
F600
FE00
7F00
0FC0
0CC0
1800
FFC0
FFC0
3000
1000
ENDCHAR
STARTCHAR 2271
ENCODING 8817
SWIDTH 617 0
DWIDTH 12 0
BBX 10 15 1 -2
BITMAP
0400
0600
E600
FC00
3F80
0FC0
1FC0
7F00
F800
F000
3000
FFC0
FFC0
6000
4000
ENDCHAR
STARTCHAR 2272
ENCODING 8818
SWIDTH 617 0
DWIDTH 12 0
BBX 10 11 1 0
BITMAP
00C0
07C0
3F80
F800
F000
FE00
1FC0
01C0
0040
FFC0
FFC0
ENDCHAR
STARTCHAR 2273
ENCODING 8819
SWIDTH 617 0
DWIDTH 12 0
BBX 10 11 1 0
BITMAP
C000
F800
7F00
0FC0
03C0
3F80
FC00
E000
8000
FFC0
FFC0
ENDCHAR
STARTCHAR 2274
ENCODING 8820
SWIDTH 617 0
DWIDTH 12 0
BBX 10 14 1 -1
BITMAP
0200
0380
03C0
07C0
3F80
FE00
F600
FE00
1FC0
0DC0
1840
FFC0
FFC0
3000
ENDCHAR
STARTCHAR 2275
ENCODING 8821
SWIDTH 617 0
DWIDTH 12 0
BBX 10 15 1 -1
BITMAP
0400
0600
C600
FC00
3F80
0FC0
1FC0
3F80
FC00
F000
3000
FCC0
FFC0
E780
6000
ENDCHAR
STARTCHAR 2276
ENCODING 8822
SWIDTH 617 0
DWIDTH 12 0
BBX 10 15 1 -2
BITMAP
01C0
0FC0
7F00
F800
F800
7F00
0FC0
C1C0
F800
7F80
07C0
07C0
3F80
FC00
C000
ENDCHAR
STARTCHAR 2277
ENCODING 8823
SWIDTH 617 0
DWIDTH 12 0
BBX 10 15 1 -2
BITMAP
C000
FC00
3F80
07C0
07C0
3F80
F800
C1C0
0FC0
7F00
F800
F800
7F00
0FC0
01C0
ENDCHAR
STARTCHAR 2278
ENCODING 8824
SWIDTH 617 0
DWIDTH 12 0
BBX 10 19 1 -4
BITMAP
0300
0380
03C0
0FC0
7F00
FE00
FE00
7F00
0FC0
CDC0
FC00
7F80
1FC0
3FC0
3F80
FC00
F000
7000
6000
ENDCHAR
STARTCHAR 2279
ENCODING 8825
SWIDTH 617 0
DWIDTH 12 0
BBX 10 19 1 -4
BITMAP
0300
0380
C300
FF00
3F80
07C0
07C0
3F80
FC00
CDC0
1FC0
7F00
F800
F800
7F00
3FC0
31C0
7000
6000
ENDCHAR
STARTCHAR 227A
ENCODING 8826
SWIDTH 617 0
DWIDTH 12 0
BBX 10 14 1 -1
BITMAP
0040
0040
00C0
03C0
0F80
7F00
FC00
FC00
3F00
0780
03C0
00C0
0040
0040
ENDCHAR
STARTCHAR 227B
ENCODING 8827
SWIDTH 617 0
DWIDTH 12 0
BBX 10 14 1 -1
BITMAP
8000
8000
C000
E000
7C00
3F80
0FC0
0FC0
3F00
7800
E000
C000
8000
8000
ENDCHAR
STARTCHAR 227C
ENCODING 8828
SWIDTH 617 0
DWIDTH 12 0
BBX 10 18 1 -4
BITMAP
0040
00C0
01C0
0380
1F00
FE00
F000
FE00
0F00
83C0
F1C0
FCC0
1E40
0700
0380
01C0
00C0
0040
ENDCHAR
STARTCHAR 227D
ENCODING 8829
SWIDTH 617 0
DWIDTH 12 0
BBX 10 18 1 -4
BITMAP
8000
8000
C000
F000
7C00
1FC0
07C0
1FC0
7C00
F040
C3C0
8FC0
9E00
7800
6000
C000
8000
8000
ENDCHAR
STARTCHAR 227E
ENCODING 8830
SWIDTH 617 0
DWIDTH 12 0
BBX 10 17 1 -2
BITMAP
0040
0040
00C0
01C0
0780
FF00
FC00
FC00
7F00
0780
03C0
00C0
0040
0040
FCC0
FFC0
8780
ENDCHAR
STARTCHAR 227F
ENCODING 8831
SWIDTH 617 0
DWIDTH 12 0
BBX 10 17 1 -2
BITMAP
8000
8000
C000
E000
7800
3FC0
0FC0
0FC0
3F80
7800
E000
C000
8000
8000
F840
FFC0
8780
ENDCHAR
STARTCHAR 2280
ENCODING 8832
SWIDTH 617 0
DWIDTH 12 0
BBX 10 16 1 -2
BITMAP
0180
01C0
03C0
03C0
03C0
0F80
7F00
FE00
FE00
3F00
0F80
1FC0
18C0
1840
3840
3000
ENDCHAR
STARTCHAR 2281
ENCODING 8833
SWIDTH 617 0
DWIDTH 12 0
BBX 10 16 1 -2
BITMAP
0700
8600
8600
CE00
EC00
7C00
3F00
1FC0
1FC0
3F00
7800
F000
F000
E000
E000
E000
ENDCHAR
STARTCHAR 2282
ENCODING 8834
SWIDTH 617 0
DWIDTH 12 0
BBX 10 10 1 1
BITMAP
3FC0
7FC0
E000
C000
C000
C000
C000
E000
7FC0
3FC0
ENDCHAR
STARTCHAR 2283
ENCODING 8835
SWIDTH 617 0
DWIDTH 12 0
BBX 10 10 1 1
BITMAP
FE00
FF80
0380
01C0
00C0
00C0
01C0
0380
FF80
FE00
ENDCHAR
STARTCHAR 2284
ENCODING 8836
SWIDTH 617 0
DWIDTH 12 0
BBX 10 14 1 -1
BITMAP
0300
0300
3FC0
7FC0
E600
CC00
CC00
CC00
D800
F800
7FC0
3FC0
3000
6000
ENDCHAR
STARTCHAR 2285
ENCODING 8837
SWIDTH 617 0
DWIDTH 12 0
BBX 10 14 1 -1
BITMAP
0300
0300
FE00
FF80
0780
0DC0
0CC0
0CC0
19C0
1B80
FF80
FE00
3000
6000
ENDCHAR
STARTCHAR 2286
ENCODING 8838
SWIDTH 617 0
DWIDTH 12 0
BBX 10 13 1 0
BITMAP
3FC0
7FC0
E000
C000
C000
C000
C000
E000
7FC0
3FC0
0000
FFC0
FFC0
ENDCHAR
STARTCHAR 2287
ENCODING 8839
SWIDTH 617 0
DWIDTH 12 0
BBX 10 13 1 0
BITMAP
FE00
FF80
0380
01C0
00C0
00C0
01C0
0380
FF80
FE00
0000
FFC0
FFC0
ENDCHAR
STARTCHAR 2288
ENCODING 8840
SWIDTH 617 0
DWIDTH 12 0
BBX 10 17 1 -2
BITMAP
0200
0300
3FC0
7FC0
E600
C600
CC00
CC00
CC00
F800
7FC0
3FC0
3000
FFC0
FFC0
6000
4000
ENDCHAR
STARTCHAR 2289
ENCODING 8841
SWIDTH 617 0
DWIDTH 12 0
BBX 10 17 1 -2
BITMAP
0200
0300
FF00
FF80
0780
07C0
0CC0
0CC0
0DC0
1B80
FF80
FE00
3000
FFC0
FFC0
6000
4000
ENDCHAR
STARTCHAR 228A
ENCODING 8842
SWIDTH 617 0
DWIDTH 12 0
BBX 10 15 1 -2
BITMAP
3FC0
7FC0
E000
C000
C000
C000
C000
E000
7FC0
3FC0
0600
FFC0
FFC0
3800
1000
ENDCHAR
STARTCHAR 228B
ENCODING 8843
SWIDTH 617 0
DWIDTH 12 0
BBX 10 15 1 -2
BITMAP
FE00
FF80
0380
01C0
00C0
00C0
01C0
0380
FF80
FE00
0700
FFC0
FFC0
3800
1000
ENDCHAR
STARTCHAR 228D
ENCODING 8845
SWIDTH 617 0
DWIDTH 12 0
BBX 10 13 1 0
BITMAP
C0C0
C0C0
C0C0
C0C0
C0C0
C0C0
CCC0
CCC0
C0C0
C1C0
E380
7F80
3F00
ENDCHAR
STARTCHAR 228E
ENCODING 8846
SWIDTH 617 0
DWIDTH 12 0
BBX 10 13 1 0
BITMAP
C0C0
C0C0
C0C0
C0C0
C0C0
C8C0
DEC0
C8C0
C8C0
C1C0
E380
7F80
3F00
ENDCHAR
STARTCHAR 228F
ENCODING 8847
SWIDTH 617 0
DWIDTH 12 0
BBX 10 11 1 1
BITMAP
FFC0
FFC0
C000
C000
C000
C000
C000
C000
C000
FFC0
FFC0
ENDCHAR
STARTCHAR 2290
ENCODING 8848
SWIDTH 617 0
DWIDTH 12 0
BBX 10 11 1 1
BITMAP
FFC0
FFC0
00C0
00C0
00C0
00C0
00C0
00C0
00C0
FFC0
FFC0
ENDCHAR
STARTCHAR 2291
ENCODING 8849
SWIDTH 617 0
DWIDTH 12 0
BBX 10 13 1 0
BITMAP
FFC0
FFC0
C000
C000
C000
C000
C000
FFC0
FFC0
0000
0000
FFC0
FFC0
ENDCHAR
STARTCHAR 2292
ENCODING 8850
SWIDTH 617 0
DWIDTH 12 0
BBX 10 13 1 0
BITMAP
FFC0
FFC0
00C0
00C0
00C0
00C0
00C0
FFC0
FFC0
0000
0000
FFC0
FFC0
ENDCHAR
STARTCHAR 2293
ENCODING 8851
SWIDTH 617 0
DWIDTH 12 0
BBX 10 12 1 0
BITMAP
FFC0
FFC0
C0C0
C0C0
C0C0
C0C0
C0C0
C0C0
C0C0
C0C0
C0C0
C0C0
ENDCHAR
STARTCHAR 2294
ENCODING 8852
SWIDTH 617 0
DWIDTH 12 0
BBX 10 13 1 0
BITMAP
C0C0
C0C0
C0C0
C0C0
C0C0
C0C0
C0C0
C0C0
C0C0
C0C0
C0C0
FFC0
FFC0
ENDCHAR
STARTCHAR 2295
ENCODING 8853
SWIDTH 617 0
DWIDTH 12 0
BBX 11 11 0 1
BITMAP
1F80
3FC0
76E0
6660
DFE0
DFA0
C660
6660
7FE0
3FC0
0F00
ENDCHAR
STARTCHAR 2296
ENCODING 8854
SWIDTH 617 0
DWIDTH 12 0
BBX 11 11 0 1
BITMAP
1F80
3FC0
70E0
6060
DFE0
DFA0
C060
6060
79E0
3FC0
0F00
ENDCHAR
STARTCHAR 2297
ENCODING 8855
SWIDTH 617 0
DWIDTH 12 0
BBX 11 11 0 1
BITMAP
1F80
3FC0
70E0
79E0
CF60
C620
DFE0
6960
79E0
3FC0
0F00
ENDCHAR
STARTCHAR 2298
ENCODING 8856
SWIDTH 617 0
DWIDTH 12 0
BBX 11 11 0 1
BITMAP
1F80
3FC0
70E0
61E0
C360
C620
DC60
6860
79E0
3FC0
0F00
ENDCHAR
STARTCHAR 2299
ENCODING 8857
SWIDTH 617 0
DWIDTH 12 0
BBX 11 11 0 1
BITMAP
1F80
3FC0
70E0
6E60
CE60
CE20
CE60
6060
79E0
3FC0
0F00
ENDCHAR
STARTCHAR 229A
ENCODING 8858
SWIDTH 617 0
DWIDTH 12 0
BBX 11 11 0 1
BITMAP
1F80
3FC0
70E0
6E60
CF60
D920
CF60
6E60
79E0
3FC0
0F00
ENDCHAR
STARTCHAR 229B
ENCODING 8859
SWIDTH 617 0
DWIDTH 12 0
BBX 11 11 0 1
BITMAP
0F00
3FC0
76E0
66E0
FFE0
CF20
DFE0
76E0
76E0
3FC0
0F00
ENDCHAR
STARTCHAR 229C
ENCODING 8860
SWIDTH 617 0
DWIDTH 12 0
BBX 11 11 0 1
BITMAP
1F80
3FC0
70E0
7FE0
C060
C020
DFE0
6060
79E0
3FC0
0F00
ENDCHAR
STARTCHAR 229D
ENCODING 8861
SWIDTH 617 0
DWIDTH 12 0
BBX 11 11 0 1
BITMAP
1F80
3FC0
70E0
6060
CF60
CF20
C060
6060
79E0
3FC0
0F00
ENDCHAR
STARTCHAR 229E
ENCODING 8862
SWIDTH 617 0
DWIDTH 12 0
BBX 11 11 0 1
BITMAP
FFE0
FFE0
C620
C620
C620
DFA0
DFA0
C620
C620
FFE0
FFE0
ENDCHAR
STARTCHAR 229F
ENCODING 8863
SWIDTH 617 0
DWIDTH 12 0
BBX 11 11 0 1
BITMAP
FFE0
FFE0
C020
C020
C020
DFA0
DFA0
C020
C020
FFE0
FFE0
ENDCHAR
STARTCHAR 22A0
ENCODING 8864
SWIDTH 617 0
DWIDTH 12 0
BBX 11 11 0 1
BITMAP
FFE0
FFE0
D0A0
D9A0
CF20
C620
CF20
D9A0
D0A0
FFE0
FFE0
ENDCHAR
STARTCHAR 22A1
ENCODING 8865
SWIDTH 617 0
DWIDTH 12 0
BBX 11 11 0 1
BITMAP
FFE0
FFE0
C020
C020
CE20
CE20
CE20
CE20
C020
FFE0
FFE0
ENDCHAR
STARTCHAR 22A2
ENCODING 8866
SWIDTH 617 0
DWIDTH 12 0
BBX 10 12 1 0
BITMAP
C000
C000
C000
C000
C000
FFC0
FFC0
C000
C000
C000
C000
C000
ENDCHAR
STARTCHAR 22A3
ENCODING 8867
SWIDTH 617 0
DWIDTH 12 0
BBX 10 12 1 0
BITMAP
00C0
00C0
00C0
00C0
00C0
FFC0
FFC0
00C0
00C0
00C0
00C0
00C0
ENDCHAR
STARTCHAR 22A4
ENCODING 8868
SWIDTH 617 0
DWIDTH 12 0
BBX 10 12 1 0
BITMAP
FFC0
FFC0
0C00
0C00
0C00
0C00
0C00
0C00
0C00
0C00
0C00
0C00
ENDCHAR
STARTCHAR 22B2
ENCODING 8882
SWIDTH 617 0
DWIDTH 12 0
BBX 10 10 1 1
BITMAP
00C0
03C0
1FC0
7CC0
F0C0
F0C0
7EC0
0FC0
03C0
0040
ENDCHAR
STARTCHAR 22B3
ENCODING 8883
SWIDTH 617 0
DWIDTH 12 0
BBX 10 10 1 1
BITMAP
C000
F000
FE00
DF80
C3C0
C3C0
DF80
FC00
F000
8000
ENDCHAR
STARTCHAR 22B4
ENCODING 8884
SWIDTH 617 0
DWIDTH 12 0
BBX 10 11 1 0
BITMAP
01C0
0FC0
7FC0
F0C0
F8C0
7FC0
0FC0
01C0
0000
FFC0
FFC0
ENDCHAR
STARTCHAR 22B5
ENCODING 8885
SWIDTH 617 0
DWIDTH 12 0
BBX 10 11 1 0
BITMAP
E000
FC00
FF80
C7C0
C7C0
FF00
F800
C000
0000
FFC0
FFC0
ENDCHAR
STARTCHAR 22B8
ENCODING 8888
SWIDTH 617 0
DWIDTH 12 0
BBX 11 5 0 4
BITMAP
01C0
FF20
FE20
0320
01E0
ENDCHAR
STARTCHAR 22C2
ENCODING 8898
SWIDTH 617 0
DWIDTH 12 0
BBX 10 19 1 -4
BITMAP
3F00
7F80
E380
C1C0
C0C0
C0C0
C0C0
C0C0
C0C0
C0C0
C0C0
C0C0
C0C0
C0C0
C0C0
C0C0
C0C0
C0C0
C0C0
ENDCHAR
STARTCHAR 22C3
ENCODING 8899
SWIDTH 617 0
DWIDTH 12 0
BBX 10 19 1 -5
BITMAP
C0C0
C0C0
C0C0
C0C0
C0C0
C0C0
C0C0
C0C0
C0C0
C0C0
C0C0
C0C0
C0C0
C0C0
C0C0
C1C0
E380
7F80
3F00
ENDCHAR
STARTCHAR 22C4
ENCODING 8900
SWIDTH 617 0
DWIDTH 12 0
BBX 12 12 0 1
BITMAP
0400
0600
0F00
1980
30C0
6060
E070
70C0
3980
1F00
0E00
0400
ENDCHAR
STARTCHAR 22C5
ENCODING 8901
SWIDTH 617 0
DWIDTH 12 0
BBX 3 4 4 5
BITMAP
E0
E0
E0
E0
ENDCHAR
STARTCHAR 22C6
ENCODING 8902
SWIDTH 617 0
DWIDTH 12 0
BBX 8 7 2 4
BITMAP
10
10
18
FF
3C
3C
24
ENDCHAR
STARTCHAR 22CD
ENCODING 8909
SWIDTH 617 0
DWIDTH 12 0
BBX 10 7 1 3
BITMAP
8780
FFC0
FCC0
0000
0000
FFC0
FFC0
ENDCHAR
STARTCHAR 22CE
ENCODING 8910
SWIDTH 617 0
DWIDTH 12 0
BBX 12 13 0 0
BITMAP
E0F0
71E0
39C0
1B80
1F80
1F00
0F00
0F00
0E00
0E00
0E00
0600
0600
ENDCHAR
STARTCHAR 22CF
ENCODING 8911
SWIDTH 617 0
DWIDTH 12 0
BBX 12 13 0 0
BITMAP
0600
0600
0600
0E00
0E00
0F00
0F00
0F00
1F00
1F80
3B80
79C0
F0F0
ENDCHAR
STARTCHAR 22D0
ENCODING 8912
SWIDTH 617 0
DWIDTH 12 0
BBX 10 13 1 0
BITMAP
1FC0
3FC0
7000
E7C0
CFC0
DC00
DC00
CFC0
EFC0
6000
7800
3FC0
0FC0
ENDCHAR
STARTCHAR 22D1
ENCODING 8913
SWIDTH 617 0
DWIDTH 12 0
BBX 10 13 1 0
BITMAP
FC00
FF00
0780
F980
FDC0
0CC0
0CC0
FCC0
F9C0
0380
0700
FE00
FC00
ENDCHAR
STARTCHAR 22DA
ENCODING 8922
SWIDTH 617 0
DWIDTH 12 0
BBX 10 20 1 -5
BITMAP
01C0
0FC0
7F00
F000
F800
7F00
0FC0
00C0
0000
FFC0
FFC0
8000
E000
FC00
3F80
03C0
0FC0
7F00
F800
C000
ENDCHAR
STARTCHAR 22DB
ENCODING 8923
SWIDTH 617 0
DWIDTH 12 0
BBX 10 20 1 -5
BITMAP
E000
FC00
3F80
07C0
07C0
7F00
F800
C000
0000
FFC0
FFC0
0040
01C0
0FC0
FE00
F000
F800
3F80
07C0
00C0
ENDCHAR
STARTCHAR 22DC
ENCODING 8924
SWIDTH 617 0
DWIDTH 12 0
BBX 10 11 1 0
BITMAP
FFC0
FFC0
0040
01C0
1FC0
FE00
F000
F800
3F80
07C0
00C0
ENDCHAR
STARTCHAR 22DD
ENCODING 8925
SWIDTH 617 0
DWIDTH 12 0
BBX 10 11 1 0
BITMAP
FFC0
FFC0
8000
E000
FC00
3F80
03C0
0FC0
7F00
F800
C000
ENDCHAR
STARTCHAR 22DE
ENCODING 8926
SWIDTH 617 0
DWIDTH 12 0
BBX 10 19 1 -4
BITMAP
0040
0040
00C0
01C0
0380
0700
1E40
FCC0
F1C0
83C0
0F00
FE00
F000
FE00
1F00
0380
01C0
00C0
0040
ENDCHAR
STARTCHAR 22DF
ENCODING 8927
SWIDTH 617 0
DWIDTH 12 0
BBX 10 19 1 -4
BITMAP
8000
8000
8000
C000
6000
7800
9E00
8FC0
C3C0
F040
7C00
1FC0
07C0
1FC0
7C00
F000
C000
8000
8000
ENDCHAR
STARTCHAR 22E0
ENCODING 8928
SWIDTH 617 0
DWIDTH 12 0
BBX 10 20 1 -5
BITMAP
0300
0340
07C0
07C0
0780
1F00
FE00
FC00
FE00
0F80
8FC0
FDC0
FC40
1E40
1F00
1B80
39C0
30C0
3040
3000
ENDCHAR
STARTCHAR 22E1
ENCODING 8929
SWIDTH 617 0
DWIDTH 12 0
BBX 10 20 1 -5
BITMAP
0300
8300
8700
E600
F600
3E00
1FC0
0FC0
1FC0
7C00
FC40
DFC0
9FC0
BE00
7800
F800
F800
B000
B000
3000
ENDCHAR
STARTCHAR 22E2
ENCODING 8930
SWIDTH 617 0
DWIDTH 12 0
BBX 10 19 1 -3
BITMAP
0100
0380
0300
FFC0
FFC0
C600
C600
CE00
CC00
CC00
FFC0
FFC0
1800
3800
FFC0
FFC0
7000
6000
2000
ENDCHAR
STARTCHAR 22E3
ENCODING 8931
SWIDTH 617 0
DWIDTH 12 0
BBX 10 19 1 -3
BITMAP
0100
0380
0300
FFC0
FFC0
06C0
06C0
0EC0
0CC0
0CC0
FFC0
FFC0
1800
3800
FFC0
FFC0
7000
6000
2000
ENDCHAR
STARTCHAR 22E4
ENCODING 8932
SWIDTH 617 0
DWIDTH 12 0
BBX 10 15 1 -2
BITMAP
FFC0
FFC0
C000
C000
C000
C000
C000
FFC0
FFC0
0700
0600
FFC0
FFC0
3800
1000
ENDCHAR
STARTCHAR 22E5
ENCODING 8933
SWIDTH 617 0
DWIDTH 12 0
BBX 10 15 1 -2
BITMAP
FFC0
FFC0
00C0
00C0
00C0
00C0
00C0
FFC0
FFC0
0700
0600
FFC0
FFC0
3800
1000
ENDCHAR
STARTCHAR 22E6
ENCODING 8934
SWIDTH 617 0
DWIDTH 12 0
BBX 10 13 1 -2
BITMAP
00C0
07C0
3F80
F800
F000
FE00
0FC0
07C0
0C40
FFC0
FFC0
1800
1800
ENDCHAR
STARTCHAR 22E7
ENCODING 8935
SWIDTH 617 0
DWIDTH 12 0
BBX 10 13 1 -2
BITMAP
C000
F800
7F00
0FC0
03C0
3F80
FC00
E600
8C00
FFC0
FFC0
1800
1800
ENDCHAR
STARTCHAR 22E8
ENCODING 8936
SWIDTH 617 0
DWIDTH 12 0
BBX 10 19 1 -4
BITMAP
0040
0040
00C0
01C0
0780
FF00
FC00
FC00
7F00
0780
03C0
04C0
0640
0E40
FCC0
FFC0
9F80
1800
1800
ENDCHAR
STARTCHAR 22E9
ENCODING 8937
SWIDTH 617 0
DWIDTH 12 0
BBX 10 19 1 -4
BITMAP
8000
8000
C000
E000
7800
3FC0
0FC0
0FC0
3F80
7800
E000
C400
8600
8E00
FC40
FFC0
9F80
1800
1800
ENDCHAR
STARTCHAR 22EF
ENCODING 8943
SWIDTH 617 0
DWIDTH 12 0
BBX 10 4 1 4
BITMAP
DDC0
DDC0
DDC0
DDC0
ENDCHAR
STARTCHAR 2304
ENCODING 8964
SWIDTH 617 0
DWIDTH 12 0
BBX 9 7 1 -3
BITMAP
E180
6300
3300
1E00
1C00
0C00
0800
ENDCHAR
STARTCHAR 2308
ENCODING 8968
SWIDTH 617 0
DWIDTH 12 0
BBX 5 18 4 -3
BITMAP
F8
F8
E0
E0
E0
E0
E0
E0
E0
E0
E0
E0
E0
E0
E0
E0
E0
E0
ENDCHAR
STARTCHAR 2309
ENCODING 8969
SWIDTH 617 0
DWIDTH 12 0
BBX 5 18 3 -3
BITMAP
F8
F8
38
38
38
38
38
38
38
38
38
38
38
38
38
38
38
38
ENDCHAR
STARTCHAR 230A
ENCODING 8970
SWIDTH 617 0
DWIDTH 12 0
BBX 5 18 4 -3
BITMAP
E0
E0
E0
E0
E0
E0
E0
E0
E0
E0
E0
E0
E0
E0
E0
E0
F8
F8
ENDCHAR
STARTCHAR 230B
ENCODING 8971
SWIDTH 617 0
DWIDTH 12 0
BBX 5 18 3 -3
BITMAP
38
38
38
38
38
38
38
38
38
38
38
38
38
38
38
38
F8
F8
ENDCHAR
STARTCHAR 2310
ENCODING 8976
SWIDTH 617 0
DWIDTH 12 0
BBX 10 5 1 3
BITMAP
FFC0
FFC0
C000
C000
C000
ENDCHAR
STARTCHAR 2320
ENCODING 8992
SWIDTH 617 0
DWIDTH 12 0
BBX 6 23 5 -5
BITMAP
38
6C
6C
C0
C0
C0
C0
C0
C0
C0
C0
C0
C0
C0
C0
C0
C0
C0
C0
C0
C0
C0
C0
ENDCHAR
STARTCHAR 2321
ENCODING 8993
SWIDTH 617 0
DWIDTH 12 0
BBX 6 23 1 -5
BITMAP
0C
0C
0C
0C
0C
0C
0C
0C
0C
0C
0C
0C
0C
0C
0C
0C
0C
1C
1C
18
D8
D0
E0
ENDCHAR
STARTCHAR 239B
ENCODING 9115
SWIDTH 617 0
DWIDTH 12 0
BBX 7 23 2 -5
BITMAP
06
0E
0C
1C
18
38
38
30
30
70
70
70
60
60
60
E0
E0
E0
E0
E0
E0
E0
E0
ENDCHAR
STARTCHAR 239C
ENCODING 9116
SWIDTH 617 0
DWIDTH 12 0
BBX 3 23 2 -5
BITMAP
E0
E0
E0
E0
E0
E0
E0
E0
E0
E0
E0
E0
E0
E0
E0
E0
E0
E0
E0
E0
E0
E0
E0
ENDCHAR
STARTCHAR 239D
ENCODING 9117
SWIDTH 617 0
DWIDTH 12 0
BBX 7 23 2 -5
BITMAP
E0
E0
E0
E0
E0
E0
E0
E0
60
60
60
70
70
70
30
30
38
38
18
1C
0C
0E
06
ENDCHAR
STARTCHAR 239E
ENCODING 9118
SWIDTH 617 0
DWIDTH 12 0
BBX 8 23 2 -5
BITMAP
E0
70
70
30
38
18
1C
1C
1C
0C
0E
0E
0E
0E
0E
06
06
06
06
06
06
07
07
ENDCHAR
STARTCHAR 239F
ENCODING 9119
SWIDTH 617 0
DWIDTH 12 0
BBX 3 23 7 -5
BITMAP
E0
E0
E0
E0
E0
E0
E0
E0
E0
E0
E0
E0
E0
E0
E0
E0
E0
E0
E0
E0
E0
E0
E0
ENDCHAR
STARTCHAR 23A0
ENCODING 9120
SWIDTH 617 0
DWIDTH 12 0
BBX 8 23 2 -5
BITMAP
07
07
06
06
06
06
06
06
0E
0E
0E
0E
0E
0C
0C
1C
1C
18
38
30
70
70
E0
ENDCHAR
STARTCHAR 23A1
ENCODING 9121
SWIDTH 617 0
DWIDTH 12 0
BBX 7 23 2 -5
BITMAP
FE
FE
E0
E0
E0
E0
E0
E0
E0
E0
E0
E0
E0
E0
E0
E0
E0
E0
E0
E0
E0
E0
E0
ENDCHAR
STARTCHAR 23A2
ENCODING 9122
SWIDTH 617 0
DWIDTH 12 0
BBX 3 23 2 -5
BITMAP
E0
E0
E0
E0
E0
E0
E0
E0
E0
E0
E0
E0
E0
E0
E0
E0
E0
E0
E0
E0
E0
E0
E0
ENDCHAR
STARTCHAR 23A3
ENCODING 9123
SWIDTH 617 0
DWIDTH 12 0
BBX 7 23 2 -5
BITMAP
E0
E0
E0
E0
E0
E0
E0
E0
E0
E0
E0
E0
E0
E0
E0
E0
E0
E0
E0
E0
FE
FE
FE
ENDCHAR
STARTCHAR 23A4
ENCODING 9124
SWIDTH 617 0
DWIDTH 12 0
BBX 7 23 2 -5
BITMAP
FE
FE
06
06
06
06
06
06
06
06
06
06
06
06
06
06
06
06
06
06
06
06
06
ENDCHAR
STARTCHAR 23A5
ENCODING 9125
SWIDTH 617 0
DWIDTH 12 0
BBX 2 23 7 -5
BITMAP
C0
C0
C0
C0
C0
C0
C0
C0
C0
C0
C0
C0
C0
C0
C0
C0
C0
C0
C0
C0
C0
C0
C0
ENDCHAR
STARTCHAR 23A6
ENCODING 9126
SWIDTH 617 0
DWIDTH 12 0
BBX 7 23 2 -5
BITMAP
06
06
06
06
06
06
06
06
06
06
06
06
06
06
06
06
06
06
06
06
FE
FE
FE
ENDCHAR
STARTCHAR 23A7
ENCODING 9127
SWIDTH 617 0
DWIDTH 12 0
BBX 7 23 5 -5
BITMAP
3E
7E
E0
C0
C0
C0
C0
C0
C0
C0
C0
C0
C0
C0
C0
C0
C0
C0
C0
C0
C0
C0
C0
ENDCHAR
STARTCHAR 23A8
ENCODING 9128
SWIDTH 617 0
DWIDTH 12 0
BBX 7 23 0 -5
BITMAP
06
06
06
06
06
06
06
0E
0E
1E
FC
FC
3C
0E
0E
0E
06
06
06
06
06
06
06
ENDCHAR
STARTCHAR 23A9
ENCODING 9129
SWIDTH 617 0
DWIDTH 12 0
BBX 7 23 5 -5
BITMAP
C0
C0
C0
C0
C0
C0
C0
C0
C0
C0
C0
C0
C0
C0
C0
C0
C0
C0
C0
C0
FE
7E
3E
ENDCHAR
STARTCHAR 23AA
ENCODING 9130
SWIDTH 617 0
DWIDTH 12 0
BBX 2 23 5 -5
BITMAP
C0
C0
C0
C0
C0
C0
C0
C0
C0
C0
C0
C0
C0
C0
C0
C0
C0
C0
C0
C0
C0
C0
C0
ENDCHAR
STARTCHAR 23AB
ENCODING 9131
SWIDTH 617 0
DWIDTH 12 0
BBX 7 23 0 -5
BITMAP
F8
FC
0E
0E
06
06
06
06
06
06
06
06
06
06
06
06
06
06
06
06
06
06
06
ENDCHAR
STARTCHAR 23AC
ENCODING 9132
SWIDTH 617 0
DWIDTH 12 0
BBX 7 23 5 -5
BITMAP
C0
C0
C0
C0
C0
C0
C0
C0
E0
E0
7E
7E
F0
E0
C0
C0
C0
C0
C0
C0
C0
C0
C0
ENDCHAR
STARTCHAR 23AD
ENCODING 9133
SWIDTH 617 0
DWIDTH 12 0
BBX 7 23 0 -5
BITMAP
06
06
06
06
06
06
06
06
06
06
06
06
06
06
06
06
06
06
06
0E
FE
FC
F8
ENDCHAR
STARTCHAR 23AE
ENCODING 9134
SWIDTH 617 0
DWIDTH 12 0
BBX 2 23 5 -5
BITMAP
C0
C0
C0
C0
C0
C0
C0
C0
C0
C0
C0
C0
C0
C0
C0
C0
C0
C0
C0
C0
C0
C0
C0
ENDCHAR
STARTCHAR 2500
ENCODING 9472
SWIDTH 617 0
DWIDTH 12 0
BBX 12 2 0 6
BITMAP
FFF0
FFF0
ENDCHAR
STARTCHAR 2501
ENCODING 9473
SWIDTH 617 0
DWIDTH 12 0
BBX 12 3 0 5
BITMAP
FFF0
FFF0
FFF0
ENDCHAR
STARTCHAR 2502
ENCODING 9474
SWIDTH 617 0
DWIDTH 12 0
BBX 2 23 5 -5
BITMAP
C0
C0
C0
C0
C0
C0
C0
C0
C0
C0
C0
C0
C0
C0
C0
C0
C0
C0
C0
C0
C0
C0
C0
ENDCHAR
STARTCHAR 2503
ENCODING 9475
SWIDTH 617 0
DWIDTH 12 0
BBX 3 23 4 -5
BITMAP
E0
E0
E0
E0
E0
E0
E0
E0
E0
E0
E0
E0
E0
E0
E0
E0
E0
E0
E0
E0
E0
E0
E0
ENDCHAR
STARTCHAR 2504
ENCODING 9476
SWIDTH 617 0
DWIDTH 12 0
BBX 10 2 1 6
BITMAP
DDC0
DDC0
ENDCHAR
STARTCHAR 2505
ENCODING 9477
SWIDTH 617 0
DWIDTH 12 0
BBX 10 3 1 5
BITMAP
DDC0
DDC0
DDC0
ENDCHAR
STARTCHAR 2506
ENCODING 9478
SWIDTH 617 0
DWIDTH 12 0
BBX 2 21 5 -4
BITMAP
C0
C0
C0
C0
C0
C0
00
C0
C0
C0
C0
C0
C0
00
00
C0
C0
C0
C0
C0
C0
ENDCHAR
STARTCHAR 2507
ENCODING 9479
SWIDTH 617 0
DWIDTH 12 0
BBX 3 21 4 -4
BITMAP
E0
E0
E0
E0
E0
E0
00
E0
E0
E0
E0
E0
E0
00
00
E0
E0
E0
E0
E0
E0
ENDCHAR
STARTCHAR 2508
ENCODING 9480
SWIDTH 617 0
DWIDTH 12 0
BBX 10 2 1 6
BITMAP
B6C0
B6C0
ENDCHAR
STARTCHAR 2509
ENCODING 9481
SWIDTH 617 0
DWIDTH 12 0
BBX 10 3 1 5
BITMAP
B6C0
B6C0
B6C0
ENDCHAR
STARTCHAR 250A
ENCODING 9482
SWIDTH 617 0
DWIDTH 12 0
BBX 2 21 5 -4
BITMAP
C0
C0
C0
C0
00
00
C0
C0
C0
C0
00
C0
C0
C0
C0
00
00
C0
C0
C0
C0
ENDCHAR
STARTCHAR 250B
ENCODING 9483
SWIDTH 617 0
DWIDTH 12 0
BBX 3 21 4 -4
BITMAP
E0
E0
E0
E0
00
00
E0
E0
E0
E0
00
E0
E0
E0
E0
00
00
E0
E0
E0
E0
ENDCHAR
STARTCHAR 250C
ENCODING 9484
SWIDTH 617 0
DWIDTH 12 0
BBX 7 13 5 -5
BITMAP
FE
FE
C0
C0
C0
C0
C0
C0
C0
C0
C0
C0
C0
ENDCHAR
STARTCHAR 250D
ENCODING 9485
SWIDTH 617 0
DWIDTH 12 0
BBX 7 13 5 -5
BITMAP
FE
FE
FE
C0
C0
C0
C0
C0
C0
C0
C0
C0
C0
ENDCHAR
STARTCHAR 250E
ENCODING 9486
SWIDTH 617 0
DWIDTH 12 0
BBX 8 13 4 -5
BITMAP
FF
FF
E0
E0
E0
E0
E0
E0
E0
E0
E0
E0
E0
ENDCHAR
STARTCHAR 250F
ENCODING 9487
SWIDTH 617 0
DWIDTH 12 0
BBX 8 13 4 -5
BITMAP
FF
FF
FF
E0
E0
E0
E0
E0
E0
E0
E0
E0
E0
ENDCHAR
STARTCHAR 2510
ENCODING 9488
SWIDTH 617 0
DWIDTH 12 0
BBX 7 13 0 -5
BITMAP
FE
FE
06
06
06
06
06
06
06
06
06
06
06
ENDCHAR
STARTCHAR 2511
ENCODING 9489
SWIDTH 617 0
DWIDTH 12 0
BBX 7 13 0 -5
BITMAP
FE
FE
FE
06
06
06
06
06
06
06
06
06
06
ENDCHAR
STARTCHAR 2512
ENCODING 9490
SWIDTH 617 0
DWIDTH 12 0
BBX 7 13 0 -5
BITMAP
FE
FE
0E
0E
0E
0E
0E
0E
0E
0E
0E
0E
0E
ENDCHAR
STARTCHAR 2513
ENCODING 9491
SWIDTH 617 0
DWIDTH 12 0
BBX 7 13 0 -5
BITMAP
FE
FE
FE
0E
0E
0E
0E
0E
0E
0E
0E
0E
0E
ENDCHAR
STARTCHAR 2514
ENCODING 9492
SWIDTH 617 0
DWIDTH 12 0
BBX 7 13 5 5
BITMAP
C0
C0
C0
C0
C0
C0
C0
C0
C0
C0
C0
FE
FE
ENDCHAR
STARTCHAR 2515
ENCODING 9493
SWIDTH 617 0
DWIDTH 12 0
BBX 7 13 5 5
BITMAP
C0
C0
C0
C0
C0
C0
C0
C0
C0
C0
FE
FE
FE
ENDCHAR
STARTCHAR 2516
ENCODING 9494
SWIDTH 617 0
DWIDTH 12 0
BBX 8 13 4 5
BITMAP
E0
E0
E0
E0
E0
E0
E0
E0
E0
E0
E0
FF
FF
ENDCHAR
STARTCHAR 2517
ENCODING 9495
SWIDTH 617 0
DWIDTH 12 0
BBX 8 13 4 5
BITMAP
E0
E0
E0
E0
E0
E0
E0
E0
E0
E0
FF
FF
FF
ENDCHAR
STARTCHAR 2518
ENCODING 9496
SWIDTH 617 0
DWIDTH 12 0
BBX 7 13 0 5
BITMAP
06
06
06
06
06
06
06
06
06
06
06
FE
FE
ENDCHAR
STARTCHAR 2519
ENCODING 9497
SWIDTH 617 0
DWIDTH 12 0
BBX 7 13 0 5
BITMAP
06
06
06
06
06
06
06
06
06
06
FE
FE
FE
ENDCHAR
STARTCHAR 251A
ENCODING 9498
SWIDTH 617 0
DWIDTH 12 0
BBX 7 13 0 5
BITMAP
0E
0E
0E
0E
0E
0E
0E
0E
0E
0E
0E
FE
FE
ENDCHAR
STARTCHAR 251B
ENCODING 9499
SWIDTH 617 0
DWIDTH 12 0
BBX 7 13 0 5
BITMAP
0E
0E
0E
0E
0E
0E
0E
0E
0E
0E
FE
FE
FE
ENDCHAR
STARTCHAR 251C
ENCODING 9500
SWIDTH 617 0
DWIDTH 12 0
BBX 7 23 5 -5
BITMAP
C0
C0
C0
C0
C0
C0
C0
C0
C0
C0
FE
FE
C0
C0
C0
C0
C0
C0
C0
C0
C0
C0
C0
ENDCHAR
STARTCHAR 251D
ENCODING 9501
SWIDTH 617 0
DWIDTH 12 0
BBX 7 23 5 -5
BITMAP
C0
C0
C0
C0
C0
C0
C0
C0
C0
C0
FE
FE
FE
C0
C0
C0
C0
C0
C0
C0
C0
C0
C0
ENDCHAR
STARTCHAR 251E
ENCODING 9502
SWIDTH 617 0
DWIDTH 12 0
BBX 8 23 4 -5
BITMAP
E0
E0
E0
E0
E0
E0
E0
E0
E0
E0
FF
FF
60
60
60
60
60
60
60
60
60
60
60
ENDCHAR
STARTCHAR 251F
ENCODING 9503
SWIDTH 617 0
DWIDTH 12 0
BBX 8 23 4 -5
BITMAP
60
60
60
60
60
60
60
60
60
60
FF
FF
E0
E0
E0
E0
E0
E0
E0
E0
E0
E0
E0
ENDCHAR
STARTCHAR 2520
ENCODING 9504
SWIDTH 617 0
DWIDTH 12 0
BBX 8 23 4 -5
BITMAP
E0
E0
E0
E0
E0
E0
E0
E0
E0
E0
FF
FF
E0
E0
E0
E0
E0
E0
E0
E0
E0
E0
E0
ENDCHAR
STARTCHAR 2521
ENCODING 9505
SWIDTH 617 0
DWIDTH 12 0
BBX 8 23 4 -5
BITMAP
E0
E0
E0
E0
E0
E0
E0
E0
E0
E0
FF
FF
FF
60
60
60
60
60
60
60
60
60
60
ENDCHAR
STARTCHAR 2522
ENCODING 9506
SWIDTH 617 0
DWIDTH 12 0
BBX 8 23 4 -5
BITMAP
60
60
60
60
60
60
60
60
60
60
FF
FF
FF
E0
E0
E0
E0
E0
E0
E0
E0
E0
E0
ENDCHAR
STARTCHAR 2523
ENCODING 9507
SWIDTH 617 0
DWIDTH 12 0
BBX 8 23 4 -5
BITMAP
E0
E0
E0
E0
E0
E0
E0
E0
E0
E0
FF
FF
FF
E0
E0
E0
E0
E0
E0
E0
E0
E0
E0
ENDCHAR
STARTCHAR 2524
ENCODING 9508
SWIDTH 617 0
DWIDTH 12 0
BBX 7 23 0 -5
BITMAP
06
06
06
06
06
06
06
06
06
06
FE
FE
06
06
06
06
06
06
06
06
06
06
06
ENDCHAR
STARTCHAR 2525
ENCODING 9509
SWIDTH 617 0
DWIDTH 12 0
BBX 7 23 0 -5
BITMAP
06
06
06
06
06
06
06
06
06
06
FE
FE
FE
06
06
06
06
06
06
06
06
06
06
ENDCHAR
STARTCHAR 2526
ENCODING 9510
SWIDTH 617 0
DWIDTH 12 0
BBX 7 23 0 -5
BITMAP
0E
0E
0E
0E
0E
0E
0E
0E
0E
0E
FE
FE
06
06
06
06
06
06
06
06
06
06
06
ENDCHAR
STARTCHAR 2527
ENCODING 9511
SWIDTH 617 0
DWIDTH 12 0
BBX 7 23 0 -5
BITMAP
06
06
06
06
06
06
06
06
06
06
FE
FE
0E
0E
0E
0E
0E
0E
0E
0E
0E
0E
0E
ENDCHAR
STARTCHAR 2528
ENCODING 9512
SWIDTH 617 0
DWIDTH 12 0
BBX 7 23 0 -5
BITMAP
0E
0E
0E
0E
0E
0E
0E
0E
0E
0E
FE
FE
0E
0E
0E
0E
0E
0E
0E
0E
0E
0E
0E
ENDCHAR
STARTCHAR 2529
ENCODING 9513
SWIDTH 617 0
DWIDTH 12 0
BBX 7 23 0 -5
BITMAP
0E
0E
0E
0E
0E
0E
0E
0E
0E
0E
FE
FE
FE
06
06
06
06
06
06
06
06
06
06
ENDCHAR
STARTCHAR 252A
ENCODING 9514
SWIDTH 617 0
DWIDTH 12 0
BBX 7 23 0 -5
BITMAP
06
06
06
06
06
06
06
06
06
06
FE
FE
FE
0E
0E
0E
0E
0E
0E
0E
0E
0E
0E
ENDCHAR
STARTCHAR 252B
ENCODING 9515
SWIDTH 617 0
DWIDTH 12 0
BBX 7 23 0 -5
BITMAP
0E
0E
0E
0E
0E
0E
0E
0E
0E
0E
FE
FE
FE
0E
0E
0E
0E
0E
0E
0E
0E
0E
0E
ENDCHAR
STARTCHAR 252C
ENCODING 9516
SWIDTH 617 0
DWIDTH 12 0
BBX 12 13 0 -5
BITMAP
FFF0
FFF0
0600
0600
0600
0600
0600
0600
0600
0600
0600
0600
0600
ENDCHAR
STARTCHAR 252D
ENCODING 9517
SWIDTH 617 0
DWIDTH 12 0
BBX 12 13 0 -5
BITMAP
FFF0
FFF0
FE00
0600
0600
0600
0600
0600
0600
0600
0600
0600
0600
ENDCHAR
STARTCHAR 252E
ENCODING 9518
SWIDTH 617 0
DWIDTH 12 0
BBX 12 13 0 -5
BITMAP
FFF0
FFF0
07F0
0600
0600
0600
0600
0600
0600
0600
0600
0600
0600
ENDCHAR
STARTCHAR 252F
ENCODING 9519
SWIDTH 617 0
DWIDTH 12 0
BBX 12 13 0 -5
BITMAP
FFF0
FFF0
FFF0
0600
0600
0600
0600
0600
0600
0600
0600
0600
0600
ENDCHAR
STARTCHAR 2530
ENCODING 9520
SWIDTH 617 0
DWIDTH 12 0
BBX 12 13 0 -5
BITMAP
FFF0
FFF0
0E00
0E00
0E00
0E00
0E00
0E00
0E00
0E00
0E00
0E00
0E00
ENDCHAR
STARTCHAR 2531
ENCODING 9521
SWIDTH 617 0
DWIDTH 12 0
BBX 12 13 0 -5
BITMAP
FFF0
FFF0
FE00
0E00
0E00
0E00
0E00
0E00
0E00
0E00
0E00
0E00
0E00
ENDCHAR
STARTCHAR 2532
ENCODING 9522
SWIDTH 617 0
DWIDTH 12 0
BBX 12 13 0 -5
BITMAP
FFF0
FFF0
0FF0
0E00
0E00
0E00
0E00
0E00
0E00
0E00
0E00
0E00
0E00
ENDCHAR
STARTCHAR 2533
ENCODING 9523
SWIDTH 617 0
DWIDTH 12 0
BBX 12 13 0 -5
BITMAP
FFF0
FFF0
FFF0
0E00
0E00
0E00
0E00
0E00
0E00
0E00
0E00
0E00
0E00
ENDCHAR
STARTCHAR 2534
ENCODING 9524
SWIDTH 617 0
DWIDTH 12 0
BBX 12 13 0 5
BITMAP
0600
0600
0600
0600
0600
0600
0600
0600
0600
0600
0600
FFF0
FFF0
ENDCHAR
STARTCHAR 2535
ENCODING 9525
SWIDTH 617 0
DWIDTH 12 0
BBX 12 13 0 5
BITMAP
0600
0600
0600
0600
0600
0600
0600
0600
0600
0600
FE00
FFF0
FFF0
ENDCHAR
STARTCHAR 2536
ENCODING 9526
SWIDTH 617 0
DWIDTH 12 0
BBX 12 13 0 5
BITMAP
0600
0600
0600
0600
0600
0600
0600
0600
0600
0600
07F0
FFF0
FFF0
ENDCHAR
STARTCHAR 2537
ENCODING 9527
SWIDTH 617 0
DWIDTH 12 0
BBX 12 13 0 5
BITMAP
0600
0600
0600
0600
0600
0600
0600
0600
0600
0600
FFF0
FFF0
FFF0
ENDCHAR
STARTCHAR 2538
ENCODING 9528
SWIDTH 617 0
DWIDTH 12 0
BBX 12 13 0 5
BITMAP
0E00
0E00
0E00
0E00
0E00
0E00
0E00
0E00
0E00
0E00
0E00
FFF0
FFF0
ENDCHAR
STARTCHAR 2539
ENCODING 9529
SWIDTH 617 0
DWIDTH 12 0
BBX 12 13 0 5
BITMAP
0E00
0E00
0E00
0E00
0E00
0E00
0E00
0E00
0E00
0E00
FE00
FFF0
FFF0
ENDCHAR
STARTCHAR 253A
ENCODING 9530
SWIDTH 617 0
DWIDTH 12 0
BBX 12 13 0 5
BITMAP
0E00
0E00
0E00
0E00
0E00
0E00
0E00
0E00
0E00
0E00
0FF0
FFF0
FFF0
ENDCHAR
STARTCHAR 253B
ENCODING 9531
SWIDTH 617 0
DWIDTH 12 0
BBX 12 13 0 5
BITMAP
0E00
0E00
0E00
0E00
0E00
0E00
0E00
0E00
0E00
0E00
FFF0
FFF0
FFF0
ENDCHAR
STARTCHAR 253C
ENCODING 9532
SWIDTH 617 0
DWIDTH 12 0
BBX 12 23 0 -5
BITMAP
0600
0600
0600
0600
0600
0600
0600
0600
0600
0600
FFF0
FFF0
0600
0600
0600
0600
0600
0600
0600
0600
0600
0600
0600
ENDCHAR
STARTCHAR 253D
ENCODING 9533
SWIDTH 617 0
DWIDTH 12 0
BBX 12 23 0 -5
BITMAP
0600
0600
0600
0600
0600
0600
0600
0600
0600
0600
FFF0
FFF0
FE00
0600
0600
0600
0600
0600
0600
0600
0600
0600
0600
ENDCHAR
STARTCHAR 253E
ENCODING 9534
SWIDTH 617 0
DWIDTH 12 0
BBX 12 23 0 -5
BITMAP
0600
0600
0600
0600
0600
0600
0600
0600
0600
0600
FFF0
FFF0
07F0
0600
0600
0600
0600
0600
0600
0600
0600
0600
0600
ENDCHAR
STARTCHAR 253F
ENCODING 9535
SWIDTH 617 0
DWIDTH 12 0
BBX 12 23 0 -5
BITMAP
0600
0600
0600
0600
0600
0600
0600
0600
0600
0600
FFF0
FFF0
FFF0
0600
0600
0600
0600
0600
0600
0600
0600
0600
0600
ENDCHAR
STARTCHAR 2540
ENCODING 9536
SWIDTH 617 0
DWIDTH 12 0
BBX 12 23 0 -5
BITMAP
0E00
0E00
0E00
0E00
0E00
0E00
0E00
0E00
0E00
0E00
FFF0
FFF0
0600
0600
0600
0600
0600
0600
0600
0600
0600
0600
0600
ENDCHAR
STARTCHAR 2541
ENCODING 9537
SWIDTH 617 0
DWIDTH 12 0
BBX 12 23 0 -5
BITMAP
0600
0600
0600
0600
0600
0600
0600
0600
0600
0600
FFF0
FFF0
0E00
0E00
0E00
0E00
0E00
0E00
0E00
0E00
0E00
0E00
0E00
ENDCHAR
STARTCHAR 2542
ENCODING 9538
SWIDTH 617 0
DWIDTH 12 0
BBX 12 23 0 -5
BITMAP
0E00
0E00
0E00
0E00
0E00
0E00
0E00
0E00
0E00
0E00
FFF0
FFF0
0E00
0E00
0E00
0E00
0E00
0E00
0E00
0E00
0E00
0E00
0E00
ENDCHAR
STARTCHAR 2543
ENCODING 9539
SWIDTH 617 0
DWIDTH 12 0
BBX 12 23 0 -5
BITMAP
0E00
0E00
0E00
0E00
0E00
0E00
0E00
0E00
0E00
0E00
FFF0
FFF0
FE00
0600
0600
0600
0600
0600
0600
0600
0600
0600
0600
ENDCHAR
STARTCHAR 2544
ENCODING 9540
SWIDTH 617 0
DWIDTH 12 0
BBX 12 23 0 -5
BITMAP
0E00
0E00
0E00
0E00
0E00
0E00
0E00
0E00
0E00
0E00
FFF0
FFF0
0FF0
0600
0600
0600
0600
0600
0600
0600
0600
0600
0600
ENDCHAR
STARTCHAR 2545
ENCODING 9541
SWIDTH 617 0
DWIDTH 12 0
BBX 12 23 0 -5
BITMAP
0600
0600
0600
0600
0600
0600
0600
0600
0600
0600
FFF0
FFF0
FE00
0E00
0E00
0E00
0E00
0E00
0E00
0E00
0E00
0E00
0E00
ENDCHAR
STARTCHAR 2546
ENCODING 9542
SWIDTH 617 0
DWIDTH 12 0
BBX 12 23 0 -5
BITMAP
0600
0600
0600
0600
0600
0600
0600
0600
0600
0600
FFF0
FFF0
0FF0
0E00
0E00
0E00
0E00
0E00
0E00
0E00
0E00
0E00
0E00
ENDCHAR
STARTCHAR 2547
ENCODING 9543
SWIDTH 617 0
DWIDTH 12 0
BBX 12 23 0 -5
BITMAP
0E00
0E00
0E00
0E00
0E00
0E00
0E00
0E00
0E00
0E00
FFF0
FFF0
FFF0
0600
0600
0600
0600
0600
0600
0600
0600
0600
0600
ENDCHAR
STARTCHAR 2548
ENCODING 9544
SWIDTH 617 0
DWIDTH 12 0
BBX 12 23 0 -5
BITMAP
0600
0600
0600
0600
0600
0600
0600
0600
0600
0600
FFF0
FFF0
FFF0
0E00
0E00
0E00
0E00
0E00
0E00
0E00
0E00
0E00
0E00
ENDCHAR
STARTCHAR 2549
ENCODING 9545
SWIDTH 617 0
DWIDTH 12 0
BBX 12 23 0 -5
BITMAP
0E00
0E00
0E00
0E00
0E00
0E00
0E00
0E00
0E00
0E00
FFF0
FFF0
FE00
0E00
0E00
0E00
0E00
0E00
0E00
0E00
0E00
0E00
0E00
ENDCHAR
STARTCHAR 254A
ENCODING 9546
SWIDTH 617 0
DWIDTH 12 0
BBX 12 23 0 -5
BITMAP
0E00
0E00
0E00
0E00
0E00
0E00
0E00
0E00
0E00
0E00
FFF0
FFF0
0FF0
0E00
0E00
0E00
0E00
0E00
0E00
0E00
0E00
0E00
0E00
ENDCHAR
STARTCHAR 254B
ENCODING 9547
SWIDTH 617 0
DWIDTH 12 0
BBX 12 23 0 -5
BITMAP
0E00
0E00
0E00
0E00
0E00
0E00
0E00
0E00
0E00
0E00
FFF0
FFF0
FFF0
0E00
0E00
0E00
0E00
0E00
0E00
0E00
0E00
0E00
0E00
ENDCHAR
STARTCHAR 254C
ENCODING 9548
SWIDTH 617 0
DWIDTH 12 0
BBX 10 2 1 6
BITMAP
F7C0
F7C0
ENDCHAR
STARTCHAR 254D
ENCODING 9549
SWIDTH 617 0
DWIDTH 12 0
BBX 10 3 1 5
BITMAP
F7C0
F7C0
F7C0
ENDCHAR
STARTCHAR 254E
ENCODING 9550
SWIDTH 617 0
DWIDTH 12 0
BBX 2 20 5 -3
BITMAP
C0
C0
C0
C0
C0
C0
C0
C0
00
00
00
00
C0
C0
C0
C0
C0
C0
C0
C0
ENDCHAR
STARTCHAR 254F
ENCODING 9551
SWIDTH 617 0
DWIDTH 12 0
BBX 3 20 4 -3
BITMAP
E0
E0
E0
E0
E0
E0
E0
E0
00
00
00
00
E0
E0
E0
E0
E0
E0
E0
E0
ENDCHAR
STARTCHAR 2550
ENCODING 9552
SWIDTH 617 0
DWIDTH 12 0
BBX 12 5 0 4
BITMAP
FFF0
FFF0
0000
FFF0
FFF0
ENDCHAR
STARTCHAR 2551
ENCODING 9553
SWIDTH 617 0
DWIDTH 12 0
BBX 4 23 4 -5
BITMAP
90
90
90
90
90
90
90
90
90
90
90
90
90
90
90
90
90
90
90
90
90
90
90
ENDCHAR
STARTCHAR 2552
ENCODING 9554
SWIDTH 617 0
DWIDTH 12 0
BBX 7 14 5 -5
BITMAP
FE
FE
C0
FE
FE
C0
C0
C0
C0
C0
C0
C0
C0
C0
ENDCHAR
STARTCHAR 2553
ENCODING 9555
SWIDTH 617 0
DWIDTH 12 0
BBX 8 13 4 -5
BITMAP
FF
FF
90
90
90
90
90
90
90
90
90
90
90
ENDCHAR
STARTCHAR 2554
ENCODING 9556
SWIDTH 617 0
DWIDTH 12 0
BBX 8 14 4 -5
BITMAP
FF
FF
80
9F
9F
90
90
90
90
90
90
90
90
90
ENDCHAR
STARTCHAR 2555
ENCODING 9557
SWIDTH 617 0
DWIDTH 12 0
BBX 7 14 0 -5
BITMAP
FE
FE
06
FE
FE
06
06
06
06
06
06
06
06
06
ENDCHAR
STARTCHAR 2556
ENCODING 9558
SWIDTH 617 0
DWIDTH 12 0
BBX 8 13 0 -5
BITMAP
FF
FF
09
09
09
09
09
09
09
09
09
09
09
ENDCHAR
STARTCHAR 2557
ENCODING 9559
SWIDTH 617 0
DWIDTH 12 0
BBX 8 14 0 -5
BITMAP
FF
FF
01
F9
F9
09
09
09
09
09
09
09
09
09
ENDCHAR
STARTCHAR 2558
ENCODING 9560
SWIDTH 617 0
DWIDTH 12 0
BBX 7 15 5 3
BITMAP
C0
C0
C0
C0
C0
C0
C0
C0
C0
FE
FE
C0
C0
FE
FE
ENDCHAR
STARTCHAR 2559
ENCODING 9561
SWIDTH 617 0
DWIDTH 12 0
BBX 8 13 4 5
BITMAP
90
90
90
90
90
90
90
90
90
90
90
FF
FF
ENDCHAR
STARTCHAR 255A
ENCODING 9562
SWIDTH 617 0
DWIDTH 12 0
BBX 8 15 4 3
BITMAP
90
90
90
90
90
90
90
90
90
9F
9F
80
80
FF
FF
ENDCHAR
STARTCHAR 255B
ENCODING 9563
SWIDTH 617 0
DWIDTH 12 0
BBX 7 15 0 3
BITMAP
06
06
06
06
06
06
06
06
06
FE
FE
06
06
FE
FE
ENDCHAR
STARTCHAR 255C
ENCODING 9564
SWIDTH 617 0
DWIDTH 12 0
BBX 8 13 0 5
BITMAP
09
09
09
09
09
09
09
09
09
09
09
FF
FF
ENDCHAR
STARTCHAR 255D
ENCODING 9565
SWIDTH 617 0
DWIDTH 12 0
BBX 8 15 0 3
BITMAP
09
09
09
09
09
09
09
09
09
F9
F9
01
01
FF
FF
ENDCHAR
STARTCHAR 255E
ENCODING 9566
SWIDTH 617 0
DWIDTH 12 0
BBX 7 23 5 -5
BITMAP
C0
C0
C0
C0
C0
C0
C0
C0
C0
FE
FE
C0
FE
FE
C0
C0
C0
C0
C0
C0
C0
C0
C0
ENDCHAR
STARTCHAR 255F
ENCODING 9567
SWIDTH 617 0
DWIDTH 12 0
BBX 8 23 4 -5
BITMAP
90
90
90
90
90
90
90
90
90
90
9F
9F
90
90
90
90
90
90
90
90
90
90
90
ENDCHAR
STARTCHAR 2560
ENCODING 9568
SWIDTH 617 0
DWIDTH 12 0
BBX 8 23 4 -5
BITMAP
90
90
90
90
90
90
90
90
90
9F
9F
80
9F
9F
90
90
90
90
90
90
90
90
90
ENDCHAR
STARTCHAR 2561
ENCODING 9569
SWIDTH 617 0
DWIDTH 12 0
BBX 7 23 0 -5
BITMAP
06
06
06
06
06
06
06
06
06
FE
FE
06
FE
FE
06
06
06
06
06
06
06
06
06
ENDCHAR
STARTCHAR 2562
ENCODING 9570
SWIDTH 617 0
DWIDTH 12 0
BBX 8 23 0 -5
BITMAP
09
09
09
09
09
09
09
09
09
09
F9
F9
09
09
09
09
09
09
09
09
09
09
09
ENDCHAR
STARTCHAR 2563
ENCODING 9571
SWIDTH 617 0
DWIDTH 12 0
BBX 8 23 0 -5
BITMAP
09
09
09
09
09
09
09
09
09
F9
F9
01
F9
F9
09
09
09
09
09
09
09
09
09
ENDCHAR
STARTCHAR 2564
ENCODING 9572
SWIDTH 617 0
DWIDTH 12 0
BBX 12 14 0 -5
BITMAP
FFF0
FFF0
0000
FFF0
FFF0
0600
0600
0600
0600
0600
0600
0600
0600
0600
ENDCHAR
STARTCHAR 2565
ENCODING 9573
SWIDTH 617 0
DWIDTH 12 0
BBX 12 13 0 -5
BITMAP
FFF0
FFF0
0900
0900
0900
0900
0900
0900
0900
0900
0900
0900
0900
ENDCHAR
STARTCHAR 2566
ENCODING 9574
SWIDTH 617 0
DWIDTH 12 0
BBX 12 14 0 -5
BITMAP
FFF0
FFF0
0000
F9F0
F9F0
0900
0900
0900
0900
0900
0900
0900
0900
0900
ENDCHAR
STARTCHAR 2567
ENCODING 9575
SWIDTH 617 0
DWIDTH 12 0
BBX 12 15 0 3
BITMAP
0600
0600
0600
0600
0600
0600
0600
0600
0600
FFF0
FFF0
0000
0000
FFF0
FFF0
ENDCHAR
STARTCHAR 2568
ENCODING 9576
SWIDTH 617 0
DWIDTH 12 0
BBX 12 13 0 5
BITMAP
0900
0900
0900
0900
0900
0900
0900
0900
0900
0900
0900
FFF0
FFF0
ENDCHAR
STARTCHAR 2569
ENCODING 9577
SWIDTH 617 0
DWIDTH 12 0
BBX 12 15 0 3
BITMAP
0900
0900
0900
0900
0900
0900
0900
0900
0900
F9F0
F9F0
0000
0000
FFF0
FFF0
ENDCHAR
STARTCHAR 256A
ENCODING 9578
SWIDTH 617 0
DWIDTH 12 0
BBX 12 23 0 -5
BITMAP
0600
0600
0600
0600
0600
0600
0600
0600
0600
FFF0
FFF0
0600
FFF0
FFF0
0600
0600
0600
0600
0600
0600
0600
0600
0600
ENDCHAR
STARTCHAR 256B
ENCODING 9579
SWIDTH 617 0
DWIDTH 12 0
BBX 12 23 0 -5
BITMAP
0900
0900
0900
0900
0900
0900
0900
0900
0900
0900
FFF0
FFF0
0900
0900
0900
0900
0900
0900
0900
0900
0900
0900
0900
ENDCHAR
STARTCHAR 256C
ENCODING 9580
SWIDTH 617 0
DWIDTH 12 0
BBX 12 23 0 -5
BITMAP
0900
0900
0900
0900
0900
0900
0900
0900
0900
F9F0
F9F0
0000
F9F0
F9F0
0900
0900
0900
0900
0900
0900
0900
0900
0900
ENDCHAR
STARTCHAR 256D
ENCODING 9581
SWIDTH 617 0
DWIDTH 12 0
BBX 7 13 5 -5
BITMAP
3E
7E
C0
C0
C0
C0
C0
C0
C0
C0
C0
C0
C0
ENDCHAR
STARTCHAR 256E
ENCODING 9582
SWIDTH 617 0
DWIDTH 12 0
BBX 7 13 0 -5
BITMAP
F8
FC
04
06
06
06
06
06
06
06
06
06
06
ENDCHAR
STARTCHAR 256F
ENCODING 9583
SWIDTH 617 0
DWIDTH 12 0
BBX 7 13 0 5
BITMAP
06
06
06
06
06
06
06
06
06
06
04
FC
F8
ENDCHAR
STARTCHAR 2570
ENCODING 9584
SWIDTH 617 0
DWIDTH 12 0
BBX 7 13 5 5
BITMAP
C0
C0
C0
C0
C0
C0
C0
C0
C0
C0
C0
7E
3E
ENDCHAR
STARTCHAR 2571
ENCODING 9585
SWIDTH 617 0
DWIDTH 12 0
BBX 14 23 -1 -5
BITMAP
000C
0018
0010
0030
0020
0060
0040
00C0
0080
0180
0100
0300
0200
0600
0C00
0C00
1800
1800
3000
3000
6000
6000
C000
ENDCHAR
STARTCHAR 2572
ENCODING 9586
SWIDTH 617 0
DWIDTH 12 0
BBX 14 23 -1 -5
BITMAP
C000
6000
6000
3000
3000
1800
1800
0C00
0C00
0600
0200
0300
0100
0180
0080
00C0
0040
0060
0020
0030
0010
0018
000C
ENDCHAR
STARTCHAR 2573
ENCODING 9587
SWIDTH 617 0
DWIDTH 12 0
BBX 14 23 -1 -5
BITMAP
C00C
6018
6010
3030
3020
1860
1840
0CC0
0C80
0780
0300
0300
0300
0780
0C80
0CC0
1840
1860
3020
3030
6010
6018
C00C
ENDCHAR
STARTCHAR 2574
ENCODING 9588
SWIDTH 617 0
DWIDTH 12 0
BBX 6 2 0 6
BITMAP
FC
FC
ENDCHAR
STARTCHAR 2575
ENCODING 9589
SWIDTH 617 0
DWIDTH 12 0
BBX 2 12 5 6
BITMAP
C0
C0
C0
C0
C0
C0
C0
C0
C0
C0
C0
C0
ENDCHAR
STARTCHAR 2576
ENCODING 9590
SWIDTH 617 0
DWIDTH 12 0
BBX 6 2 6 6
BITMAP
FC
FC
ENDCHAR
STARTCHAR 2577
ENCODING 9591
SWIDTH 617 0
DWIDTH 12 0
BBX 2 12 5 -5
BITMAP
C0
C0
C0
C0
C0
C0
C0
C0
C0
C0
C0
C0
ENDCHAR
STARTCHAR 2578
ENCODING 9592
SWIDTH 617 0
DWIDTH 12 0
BBX 6 3 0 5
BITMAP
FC
FC
FC
ENDCHAR
STARTCHAR 2579
ENCODING 9593
SWIDTH 617 0
DWIDTH 12 0
BBX 3 12 4 6
BITMAP
E0
E0
E0
E0
E0
E0
E0
E0
E0
E0
E0
E0
ENDCHAR
STARTCHAR 257A
ENCODING 9594
SWIDTH 617 0
DWIDTH 12 0
BBX 6 3 6 5
BITMAP
FC
FC
FC
ENDCHAR
STARTCHAR 257B
ENCODING 9595
SWIDTH 617 0
DWIDTH 12 0
BBX 3 12 4 -5
BITMAP
E0
E0
E0
E0
E0
E0
E0
E0
E0
E0
E0
E0
ENDCHAR
STARTCHAR 257C
ENCODING 9596
SWIDTH 617 0
DWIDTH 12 0
BBX 12 3 0 5
BITMAP
FFF0
FFF0
03F0
ENDCHAR
STARTCHAR 257D
ENCODING 9597
SWIDTH 617 0
DWIDTH 12 0
BBX 3 23 4 -5
BITMAP
60
60
60
60
60
60
60
60
60
60
60
E0
E0
E0
E0
E0
E0
E0
E0
E0
E0
E0
E0
ENDCHAR
STARTCHAR 257E
ENCODING 9598
SWIDTH 617 0
DWIDTH 12 0
BBX 12 3 0 5
BITMAP
FFF0
FFF0
FC00
ENDCHAR
STARTCHAR 257F
ENCODING 9599
SWIDTH 617 0
DWIDTH 12 0
BBX 3 23 4 -5
BITMAP
E0
E0
E0
E0
E0
E0
E0
E0
E0
E0
E0
E0
60
60
60
60
60
60
60
60
60
60
60
ENDCHAR
STARTCHAR 2580
ENCODING 9600
SWIDTH 617 0
DWIDTH 12 0
BBX 12 12 0 6
BITMAP
FFF0
FFF0
FFF0
FFF0
FFF0
FFF0
FFF0
FFF0
FFF0
FFF0
FFF0
FFF0
ENDCHAR
STARTCHAR 2581
ENCODING 9601
SWIDTH 617 0
DWIDTH 12 0
BBX 12 3 0 -5
BITMAP
FFF0
FFF0
FFF0
ENDCHAR
STARTCHAR 2582
ENCODING 9602
SWIDTH 617 0
DWIDTH 12 0
BBX 12 6 0 -5
BITMAP
FFF0
FFF0
FFF0
FFF0
FFF0
FFF0
ENDCHAR
STARTCHAR 2583
ENCODING 9603
SWIDTH 617 0
DWIDTH 12 0
BBX 12 9 0 -5
BITMAP
FFF0
FFF0
FFF0
FFF0
FFF0
FFF0
FFF0
FFF0
FFF0
ENDCHAR
STARTCHAR 2584
ENCODING 9604
SWIDTH 617 0
DWIDTH 12 0
BBX 12 12 0 -5
BITMAP
FFF0
FFF0
FFF0
FFF0
FFF0
FFF0
FFF0
FFF0
FFF0
FFF0
FFF0
FFF0
ENDCHAR
STARTCHAR 2585
ENCODING 9605
SWIDTH 617 0
DWIDTH 12 0
BBX 12 15 0 -5
BITMAP
FFF0
FFF0
FFF0
FFF0
FFF0
FFF0
FFF0
FFF0
FFF0
FFF0
FFF0
FFF0
FFF0
FFF0
FFF0
ENDCHAR
STARTCHAR 2586
ENCODING 9606
SWIDTH 617 0
DWIDTH 12 0
BBX 12 17 0 -5
BITMAP
FFF0
FFF0
FFF0
FFF0
FFF0
FFF0
FFF0
FFF0
FFF0
FFF0
FFF0
FFF0
FFF0
FFF0
FFF0
FFF0
FFF0
ENDCHAR
STARTCHAR 2587
ENCODING 9607
SWIDTH 617 0
DWIDTH 12 0
BBX 12 20 0 -5
BITMAP
FFF0
FFF0
FFF0
FFF0
FFF0
FFF0
FFF0
FFF0
FFF0
FFF0
FFF0
FFF0
FFF0
FFF0
FFF0
FFF0
FFF0
FFF0
FFF0
FFF0
ENDCHAR
STARTCHAR 2588
ENCODING 9608
SWIDTH 617 0
DWIDTH 12 0
BBX 12 23 0 -5
BITMAP
FFF0
FFF0
FFF0
FFF0
FFF0
FFF0
FFF0
FFF0
FFF0
FFF0
FFF0
FFF0
FFF0
FFF0
FFF0
FFF0
FFF0
FFF0
FFF0
FFF0
FFF0
FFF0
FFF0
ENDCHAR
STARTCHAR 2589
ENCODING 9609
SWIDTH 617 0
DWIDTH 12 0
BBX 10 23 0 -5
BITMAP
FFC0
FFC0
FFC0
FFC0
FFC0
FFC0
FFC0
FFC0
FFC0
FFC0
FFC0
FFC0
FFC0
FFC0
FFC0
FFC0
FFC0
FFC0
FFC0
FFC0
FFC0
FFC0
FFC0
ENDCHAR
STARTCHAR 258A
ENCODING 9610
SWIDTH 617 0
DWIDTH 12 0
BBX 9 23 0 -5
BITMAP
FF80
FF80
FF80
FF80
FF80
FF80
FF80
FF80
FF80
FF80
FF80
FF80
FF80
FF80
FF80
FF80
FF80
FF80
FF80
FF80
FF80
FF80
FF80
ENDCHAR
STARTCHAR 258B
ENCODING 9611
SWIDTH 617 0
DWIDTH 12 0
BBX 7 23 0 -5
BITMAP
FE
FE
FE
FE
FE
FE
FE
FE
FE
FE
FE
FE
FE
FE
FE
FE
FE
FE
FE
FE
FE
FE
FE
ENDCHAR
STARTCHAR 258C
ENCODING 9612
SWIDTH 617 0
DWIDTH 12 0
BBX 6 23 0 -5
BITMAP
FC
FC
FC
FC
FC
FC
FC
FC
FC
FC
FC
FC
FC
FC
FC
FC
FC
FC
FC
FC
FC
FC
FC
ENDCHAR
STARTCHAR 258D
ENCODING 9613
SWIDTH 617 0
DWIDTH 12 0
BBX 4 23 0 -5
BITMAP
F0
F0
F0
F0
F0
F0
F0
F0
F0
F0
F0
F0
F0
F0
F0
F0
F0
F0
F0
F0
F0
F0
F0
ENDCHAR
STARTCHAR 258E
ENCODING 9614
SWIDTH 617 0
DWIDTH 12 0
BBX 3 23 0 -5
BITMAP
E0
E0
E0
E0
E0
E0
E0
E0
E0
E0
E0
E0
E0
E0
E0
E0
E0
E0
E0
E0
E0
E0
E0
ENDCHAR
STARTCHAR 258F
ENCODING 9615
SWIDTH 617 0
DWIDTH 12 0
BBX 1 23 0 -5
BITMAP
80
80
80
80
80
80
80
80
80
80
80
80
80
80
80
80
80
80
80
80
80
80
80
ENDCHAR
STARTCHAR 2590
ENCODING 9616
SWIDTH 617 0
DWIDTH 12 0
BBX 6 23 6 -5
BITMAP
FC
FC
FC
FC
FC
FC
FC
FC
FC
FC
FC
FC
FC
FC
FC
FC
FC
FC
FC
FC
FC
FC
FC
ENDCHAR
STARTCHAR 2591
ENCODING 9617
SWIDTH 617 0
DWIDTH 12 0
BBX 10 23 0 -5
BITMAP
8200
8200
0000
1040
1040
0000
8200
8200
0000
1040
1040
0000
8200
8200
0000
1040
1040
0000
8200
8200
0000
1040
1040
ENDCHAR
STARTCHAR 2592
ENCODING 9618
SWIDTH 617 0
DWIDTH 12 0
BBX 12 23 0 -5
BITMAP
CCC0
CCC0
0000
3330
3330
CCC0
CCC0
3330
3330
CCC0
CCC0
0000
3330
3330
CCC0
CCC0
3330
3330
0000
CCC0
CCC0
3330
3330
ENDCHAR
STARTCHAR 2593
ENCODING 9619
SWIDTH 617 0
DWIDTH 12 0
BBX 12 23 0 -5
BITMAP
7DF0
7DF0
FFF0
EFB0
EFB0
FFF0
7DF0
7DF0
FFF0
EFB0
EFB0
FFF0
7DF0
7DF0
FFF0
EFB0
EFB0
FFF0
7DF0
7DF0
FFF0
EFB0
EFB0
ENDCHAR
STARTCHAR 2594
ENCODING 9620
SWIDTH 617 0
DWIDTH 12 0
BBX 12 3 0 15
BITMAP
FFF0
FFF0
FFF0
ENDCHAR
STARTCHAR 2595
ENCODING 9621
SWIDTH 617 0
DWIDTH 12 0
BBX 2 23 10 -5
BITMAP
C0
C0
C0
C0
C0
C0
C0
C0
C0
C0
C0
C0
C0
C0
C0
C0
C0
C0
C0
C0
C0
C0
C0
ENDCHAR
STARTCHAR 2596
ENCODING 9622
SWIDTH 617 0
DWIDTH 12 0
BBX 6 12 0 -5
BITMAP
FC
FC
FC
FC
FC
FC
FC
FC
FC
FC
FC
FC
ENDCHAR
STARTCHAR 2597
ENCODING 9623
SWIDTH 617 0
DWIDTH 12 0
BBX 6 12 6 -5
BITMAP
FC
FC
FC
FC
FC
FC
FC
FC
FC
FC
FC
FC
ENDCHAR
STARTCHAR 2598
ENCODING 9624
SWIDTH 617 0
DWIDTH 12 0
BBX 6 12 0 6
BITMAP
FC
FC
FC
FC
FC
FC
FC
FC
FC
FC
FC
FC
ENDCHAR
ENDFONT
